<mxfile host="app.diagrams.net" modified="2023-02-13T14:41:37.061Z" agent="5.0 (Windows NT 10.0; Win64; x64) AppleWebKit/537.36 (KHTML, like Gecko) Chrome/110.0.0.0 Safari/537.36" etag="VYp89ZOwld_pw68bUGni" version="20.8.20" type="github">
  <diagram name="PÃ¡gina-1" id="eciNLVrrCNY2iAeN3jcp">
    <mxGraphModel dx="2594" dy="681" grid="1" gridSize="10" guides="1" tooltips="1" connect="1" arrows="1" fold="1" page="1" pageScale="1" pageWidth="827" pageHeight="1169" math="0" shadow="0">
      <root>
        <mxCell id="0" />
        <mxCell id="1" parent="0" />
        <mxCell id="wvPPl5dqIDjig_3wGtzi-6" style="edgeStyle=orthogonalEdgeStyle;rounded=0;orthogonalLoop=1;jettySize=auto;html=1;exitX=1;exitY=0.5;exitDx=0;exitDy=0;entryX=0;entryY=0.5;entryDx=0;entryDy=0;fontSize=24;" edge="1" parent="1" source="wvPPl5dqIDjig_3wGtzi-2" target="wvPPl5dqIDjig_3wGtzi-5">
          <mxGeometry relative="1" as="geometry" />
        </mxCell>
        <mxCell id="wvPPl5dqIDjig_3wGtzi-2" value="&lt;font size=&quot;3&quot;&gt;MC1&lt;/font&gt;" style="rounded=1;whiteSpace=wrap;html=1;absoluteArcSize=1;arcSize=14;strokeWidth=2;" vertex="1" parent="1">
          <mxGeometry x="-100" y="90" width="220" height="190" as="geometry" />
        </mxCell>
        <mxCell id="wvPPl5dqIDjig_3wGtzi-3" value="MC2" style="rounded=1;whiteSpace=wrap;html=1;absoluteArcSize=1;arcSize=14;strokeWidth=2;fontSize=24;" vertex="1" parent="1">
          <mxGeometry x="30" y="100" width="70" height="20" as="geometry" />
        </mxCell>
        <mxCell id="wvPPl5dqIDjig_3wGtzi-5" value="&lt;font size=&quot;3&quot;&gt;MC2&lt;/font&gt;" style="rounded=1;whiteSpace=wrap;html=1;absoluteArcSize=1;arcSize=14;strokeWidth=2;" vertex="1" parent="1">
          <mxGeometry x="580" y="90" width="220" height="190" as="geometry" />
        </mxCell>
        <mxCell id="wvPPl5dqIDjig_3wGtzi-7" value="mc2.com/signin?token=token&amp;amp;merchantId=merchantId&amp;amp;storeId=storeId" style="text;html=1;align=center;verticalAlign=middle;resizable=0;points=[];autosize=1;strokeColor=none;fillColor=none;fontSize=24;" vertex="1" parent="1">
          <mxGeometry x="-20" y="40" width="780" height="40" as="geometry" />
        </mxCell>
        <mxCell id="wvPPl5dqIDjig_3wGtzi-10" style="edgeStyle=orthogonalEdgeStyle;rounded=0;orthogonalLoop=1;jettySize=auto;html=1;exitX=1;exitY=0.5;exitDx=0;exitDy=0;entryX=0;entryY=0.5;entryDx=0;entryDy=0;fontSize=24;" edge="1" parent="1" source="wvPPl5dqIDjig_3wGtzi-8" target="wvPPl5dqIDjig_3wGtzi-9">
          <mxGeometry relative="1" as="geometry" />
        </mxCell>
        <mxCell id="wvPPl5dqIDjig_3wGtzi-8" value="&lt;font size=&quot;3&quot;&gt;MC2&lt;/font&gt;" style="rounded=1;whiteSpace=wrap;html=1;absoluteArcSize=1;arcSize=14;strokeWidth=2;" vertex="1" parent="1">
          <mxGeometry x="-100" y="395" width="220" height="190" as="geometry" />
        </mxCell>
        <mxCell id="wvPPl5dqIDjig_3wGtzi-9" value="&lt;font size=&quot;3&quot;&gt;Identity&lt;/font&gt;" style="rounded=1;whiteSpace=wrap;html=1;absoluteArcSize=1;arcSize=14;strokeWidth=2;" vertex="1" parent="1">
          <mxGeometry x="580" y="395" width="230" height="190" as="geometry" />
        </mxCell>
        <mxCell id="wvPPl5dqIDjig_3wGtzi-11" value="identityAPI.com/users/getSessionTokenFromImpersonate" style="text;html=1;align=center;verticalAlign=middle;resizable=0;points=[];autosize=1;strokeColor=none;fillColor=none;fontSize=24;" vertex="1" parent="1">
          <mxGeometry x="-5" y="330" width="630" height="40" as="geometry" />
        </mxCell>
        <mxCell id="wvPPl5dqIDjig_3wGtzi-16" style="edgeStyle=orthogonalEdgeStyle;rounded=0;orthogonalLoop=1;jettySize=auto;html=1;exitX=1;exitY=0.5;exitDx=0;exitDy=0;entryX=0;entryY=0.5;entryDx=0;entryDy=0;fontSize=24;" edge="1" parent="1" source="wvPPl5dqIDjig_3wGtzi-12" target="wvPPl5dqIDjig_3wGtzi-13">
          <mxGeometry relative="1" as="geometry" />
        </mxCell>
        <mxCell id="wvPPl5dqIDjig_3wGtzi-12" value="&lt;font size=&quot;3&quot;&gt;Identity&lt;/font&gt;" style="rounded=1;whiteSpace=wrap;html=1;absoluteArcSize=1;arcSize=14;strokeWidth=2;" vertex="1" parent="1">
          <mxGeometry x="-100" y="670" width="220" height="190" as="geometry" />
        </mxCell>
        <mxCell id="wvPPl5dqIDjig_3wGtzi-19" style="edgeStyle=orthogonalEdgeStyle;rounded=0;orthogonalLoop=1;jettySize=auto;html=1;entryX=1;entryY=0.75;entryDx=0;entryDy=0;fontSize=24;" edge="1" parent="1" source="wvPPl5dqIDjig_3wGtzi-13" target="wvPPl5dqIDjig_3wGtzi-12">
          <mxGeometry relative="1" as="geometry">
            <Array as="points">
              <mxPoint x="490" y="813" />
              <mxPoint x="490" y="813" />
            </Array>
          </mxGeometry>
        </mxCell>
        <mxCell id="wvPPl5dqIDjig_3wGtzi-13" value="&lt;font size=&quot;3&quot;&gt;Identity&lt;/font&gt;" style="rounded=1;whiteSpace=wrap;html=1;absoluteArcSize=1;arcSize=14;strokeWidth=2;" vertex="1" parent="1">
          <mxGeometry x="580" y="670" width="230" height="190" as="geometry" />
        </mxCell>
        <mxCell id="wvPPl5dqIDjig_3wGtzi-17" value="IdentityAPI.com/oauth/token" style="text;html=1;align=center;verticalAlign=middle;resizable=0;points=[];autosize=1;strokeColor=none;fillColor=none;fontSize=24;" vertex="1" parent="1">
          <mxGeometry x="190" y="700" width="320" height="40" as="geometry" />
        </mxCell>
        <mxCell id="wvPPl5dqIDjig_3wGtzi-20" value="Session token" style="text;html=1;align=center;verticalAlign=middle;resizable=0;points=[];autosize=1;strokeColor=none;fillColor=none;fontSize=24;" vertex="1" parent="1">
          <mxGeometry x="265" y="820" width="170" height="40" as="geometry" />
        </mxCell>
        <mxCell id="wvPPl5dqIDjig_3wGtzi-21" value="" style="shape=image;verticalLabelPosition=bottom;labelBackgroundColor=default;verticalAlign=top;aspect=fixed;imageAspect=0;image=data:image/png,iVBORw0KGgoAAAANSUhEUgAAA7cAAALzCAYAAADK2vDNAAAAAXNSR0IArs4c6QAAAARnQU1BAACxjwv8YQUAAAAJcEhZcwAAEnQAABJ0Ad5mH3gAAP+lSURBVHhe7J0H2CRFtb9rRQUkp4VFkkpSFFCugC4qSUSSKFEkGkBAULkkCSaCJLmKFxAuCgL6R5KEJYiSFCQoEgQFQZEgSxCQJKDi/vet7fNRU9uheqZnvunv+73P08/M9HRXVzx1TtWp6gnTpuOEEEIIIYQQQogW85rsUwghhBBCCCGEaC0yboUQQgghhBBCtB4Zt0IIIYQQQgghWo+MWyGEEEIIIYQQrUfGrRBCCCGEEEKI1iPjVgghhBBCCCFE65FxK4QQQgghhBCi9ci4FUIIIYQQQgjRemTcCiGEEEIIIYRoPTJuhRBCCCGEEEK0Hhm3QgghhBBCCCFaj4zbLnjppZfcPvvs4xZeeOGR4+abb87+FWJsMm3aNHfvvfe6I444wq277rojdf+jH/2o+/3vf59dJcYqeXLvvPPOy/4VQgghhBh9ZNz2mUceecTtvffebr311nNHHnmk+/vf/579I0R7wLD51re+5dZff333P//zP+53v/td9o9zv/rVr9zzzz+f/Rrf/Pvf/3YXXHCBN/g//vGPu+uuu84PCgghhBBCiP7TN+OWmcxwhL/oeMtb3uI+8pGP+Nmg22+/3f3nP//JQmg///jHP7xBe8YZZ/i0HXvssd5A+Oc//5ldIbrl6aefdltvvXVHXao7i0R5hPczK4URF5M3Y1V0TJ482e2yyy7u/PPP93FMIW4ra6+9trvvvvuyf0cfDLb/+7//821URmw5N9xwg/vv//5vb/BfddVV7vOf/7xv+0IIMdogl1ZZZRXfz/DJ7yIYlGNw/vTTT/d9Wuitw0Fft9VWW7nDDz/ch5PXd0Lcz+Ydpgfuv//+7pprrikMq4yHH37YbbTRRh3hrrjiigOVv3g2ffjDHx5JE3qABjeFGDyjPnOLsnzjjTf62SBmN7fffnt35513Zv+2GzqGcIYL7r77bvfCCy9kv8RYA6OUmbtdd93Vrb766u6kk07qqqMeJn7961974zZk5ZVX9gM35557rjvooIPcrLPOmv0zviGvwgEAFK4//elP2S8hhBgd/vznP7tDDjnEyyT45Cc/6VZbbTX/PQRj7I477vD/v/Od7/QDu/RpsS5DX4ch+u1vf9t7qnBPt5geeOqpp3qDeZ111vGGYZ2JAIxY5G/IY4895gccB2VgLr300u4zn/mMm3POOX2aMOz/8Ic/ZP8KIQbF0Lkl/+xnP3M77LBD6YhiW2D0DmEXwrnxZAgw6/fHP/7R/e///q8f4W27oVcHXNC//OUvu69+9at+Fr+NvPLKK+7qq6/2SoKBa/KZZ57pdtxxR/e+973P7bHHHm6llVbK/h3fvOMd7/CKjcH3iRMnZr+EEGLw0O+ecsop7re//a3/vckmm7hPfOITbpZZZvG/DTznfvKTn7gtttjCXXrppdnZwYPhzADxMccck9R3YgRjxOZx0003uWeeeSb71V8mTJjgNthgA2+gAzO5TNxoOZoQg2Vgxi1G3ec+9zk/y2PHAQcc4F04QmUQGFn8xje+4R566KHsTDuZa665vJsNwo40sgZvv/32c294wxuyK8Y2dI6MDGMAMWKc6qbbBnDRCusyx+677z7TYAYwGv3DH/6wle5Jzz333EybRW255ZZuoYUWyn6JkLXWWst95StfcYsttph761vf6r75zW+697znPdm/QggxeJhh/fGPf+y/o4sxKzvvvPP63yFXXHGFn6nNM8ZwY2YpEH0dn+9///u9nKvLqquu6vUi6zfRA3FJzguLWWH6TwZZy7j//vt9GvP4xS9+MdOscz+ZbbbZfP6usMIK/vdFF13kpkyZIvdkIQbIwIzbBRdc0Bt3zPLYwXq00047za9N++AHP5hdOQPWIY7myGFTvPnNb/bCGddE1tsuuuii2T9jnxdffHHEBWqsQUcf1mUOZmmZ5WSkNh6wufDCC91f//rX7Fd7oENm9j1Ehm0xr33ta/3SiltuucUrW5tuuqk/J4QQowGGKoatLZf42Mc+5vuvGLxzvve973Usq8AA/vrXv+5nUtHHMDbp6/g855xzvBswsu7ggw92r3/967O7yll++eX9rKz1m+iBJ598srv++uvd8ccfP5OR+//+3/+r3IOCODBLauAabJAePAGrDOQmYb0t+q5B/o9VXUiIYWQo3JKXXHJJ77ppI10Go22hoBVi2KGDxyVpzz33zM7MACVAay+FEEIMEoxGmyhg1pZZ0jxDlP1AmOUMOeyww9zOO+/svdDyeM1rXuONUbzy2IehF5jx3GyzzdyBBx7YMTiM0Vo0KwvPPvusnyAx3v3ud/tNGUN9kvW8TzzxRPar/+Ce/KEPfci9613v8r+ZrLnkkks0eyvEgBiaNbdvetObvKtnyN/+9jf3r3/9K/slRDtgHROeCMzah1CfhRBCiEHAelVcjQ2WTSy33HLZr04eeOCB7NsM3vve97o11ljDG2qDgmdhmOLyHILb8csvv5z96oRBY4xHAyMbozKcnWbmltndQfLGN77Rrbnmmtkv56688kr3+OOPZ7+EEP1kaIxbDAJG7oQYCzAyPvvss2e/hBBCiMHCrCdLZQzeSFG050e8JwbLKV73utdlvwbHPPPM4972trdlv2bwl7/8JXdjKWZCmdUNNzxkjw/cqUPDEthwapCvYUSnJb+ZLQdmxW+77Tb/XQjRX4bGuO0WBB47LLNug/euIUjsnWmsfWRTqjquIAh43ku77bbb+hFOwiPcvfbay/3mN7+p/R7e+B1v/M6j6DrWO+LOsvnmm/vzbMAVb/BjEDe2w+d9pGxiZWExI078Gd2M109WwYZC5K9tjGVhkjdsKsEuyGEeh+nYbbfd/DmD9+Xhgm7/c4QjriIddr9kNJoNOcJysbrPztR05nXLGygTC4/1UaFyBBtvvPHI/xxFdRp4Ph06dZJ4ET+7j3gTf9KRonSE8eKg/plCxusWvvCFL/h6yYg9bbgXmGXnVRS839HkCgdhs6aWNWK8WiOGtWHMPNj1Re8sLruOvMDNDndAnsf/xIG8uuuuuxqTZ7y6A5nBNfE7o5tsl/2QS3Uoy2vihlwnHlbO5BP5Rfmn7nJu7ZF2x5pGy2sOq+d1+w+ezStYwnrAJ79/+ctf+jzjufE7uFPe900dIg+Q3/Qt1i7JA+o8s0z92Nm+qXwq6i+B+sza0TBd1DU2esPYq2o//Qzb6Fa+1AV3XDP8mM1kN/cillpqqezbDNhZeZAbMRnM3sa7OBfBTCj1yWC22XbuJ63mFgwYwcwA16HXcsIjkWsNXMTljShE/xka45a1tbGQWHbZZWfamMeg88Powv0TReSss84aUVgIC6GOMsXoHe/jrFJSCO/iiy/2LwHfe++9fdi2YyDhstvthhtu6MMc1HtqUV5OPPFEv/MeygzQ4eStQ8al6FOf+pQfKcSoD11w6KCIP0YJr29J6TRRsBHqvPaF/GVTrDBM8gajh12Qi3ZXHM+weRSGiEGHmLeTcl1Qnq677jpvKPJuQd4/G5aL1X02/OBgcGI0sHjSZlh7RJ0kXmHdJd7En3RQN7k+VTkMQbmhjrLxCPWQjTu6XV+F8s27iVFk2PQE48LkChD2T3/6U7+BCv81DeGjSLEZCZuQ2SYkxIG84hUeJ5xwQqUxyP9sYsK7lovkGflOHWHjt37RtFxqEvKDnVqpo8TDypnz5BflTx6FcY5hvR8ymvpi+YkCG8pDq+c857//+7/dk08+mf2TD23ANlmkLoT1gE9+Y1xhCD711FP+fB14/pe+9CUfZ+Q3fYu1S/KAer3NNtt4GVOW9jr0I59iLN/owynXMF3Ute9+97u+P0vRB2KaCnuQ8oX4hcbp29/+9tLXkjGQucwyy2S/ZtxPehiYGm2YRc5zj47XCSPvbMPDSZMm+fW3BoMPqfW5qXJiFnrFFVfMfs2oK3XrtRCiPkNj3DJae9lll2W/ZrwfklG4PLcYM/o++9nPdgicPBDQKFXs+FfU6RAexhszP1Xh0SkzclulXDbBz3/+c7/DchXM0KGMpOwujdLGK2sQ9EWgcKD8INSr8kPMDAblueeem/2aAa9EYta6F1CweAch74EeZvcm2sb3v//9WvHkOq4nfXUMXIwnXhtmyn8vIB/Y2I5dr0Ole1AwC8FmKmXtGHnGTBKvliiC/EcxQwkvSwdhMViHYl60nq0XmpZLTcIAJWlH7pdBvcSILIoXyjV1JrX+/ehHP3JHH310YV9E3cd4TZG9xJ26j+GYCmEykFCVbiDtzBKHM2Pd0nQ+5UF9Y6C1LN9MH6jbhzcR9qDlC8/AnddgcLVs6Rcz0cyehzCYzqvf2MXYvGT6DfkYD3SxaVW8zIcBeOSGYTqjzfqiO66zzjr+u0FdJvwymiwnDPJw9hhvmTa+NUGItjHqxi0zptdee603PkOhwys04k0FgM6f94ah4Nn1CDVmB5hJpBO99dZb3aGHHtqxpTydOUpWnuJsM13h8wmTEWaMaBRuOlp7XRHvrqTz7Se4EoXb9xeB0mVb9RtsGkH8cF/m4DtC36DDQqHNUxw4h9J35plnZmdmwBoWXuxO501+kC+45cTvymMWhv85mDEKwaWaNNn/HE3MZg4TjMpSN88+++zszIxZWwy3vPcK1gH3b2Y2wjpBWePufeedd/q6zyf5yvuU55577uyqelAmVj64tIadMzCab/9zUOaGtU/cDsN4knbqi7Un6hHtK/TM4Hp250SRTIFXOzBq3pQLLfIjVPpNrlx++eU+bznY9ZprSAs7hTYFs6fIGJ7FhiiWx7iNxq9JI5+YaQzXmYUwAx7KR8iTZ9QdwBBuwoAJaVouNQl9Du6ElKPVS77TZmk3vJ84hHgdddRRlYou5UR5kf/WFmmbls8Gr1ApmkHCvf6YY46Z6VmETZlRdpQhM/hAnFNn+PBmYKY2bC/UNcIz+UHbtbABYxRPgSY3wmkin2KYEbNBLmbvSCcDjKQtljPAoDGDxyk0Ffag5QvygfpkMDNbBrOjvEKHGegQ6iJtmbSj+/TbOENmxH0Aa3BnnXXW7NcMHn300Y76wftz4zdukOZQj2SWt2oArely4vWPJlOQyeGAgxCiT0xXRvvCTTfdNG3ixIkjxzve8Y5p0wXktOOOO27kmK4AT5tuxHZcxzFdYEx75JFHspA6ueuuu6ZNnjx55No3v/nN06Z3gtOmK7rZFa9y/fXXT5uumI9cu/nmm0+bLhCzf2fw9NNPT/v0pz89cg3HdOE+bbqBPG26EpRdNQOeceGFF3aEaQfpzWN6Z9BxHb/ziK+bLsx92rbccksfl3/961/++b/5zW98HsCzzz477XOf+1zHffvuu++05557zv8fMl058flq1xH2dEGf/TsD0jvdmOkIj2OXXXaZ9uCDD2ZXdfK3v/1t2nRF0edjzHQFoCOc6cbutOlKfPZvbzz11FPTttpqq47weV4d4jwvih/n+C+8dptttumoyxx77LHHTHWjrH4acVuZruRNm94BZ/++ynQltuO6T3ziE9OmKzDZvzPDM+M6XJe8fC6q6xC3T47dd989N57EjbpNewuvpz3m1ac4n8hb2gl5Th6/8MIL/jra+CWXXOK/p/LSSy9Nm27YdIQ/3UD07a6If//739m3V6HcKD8Lo6gs4+vsmG5EjaTDePnll6dNV5hnuvaaa67JrngV8m3HHXfsuK5InpG26Uayz8fweo68Ms5rB3ltrmm51CtFeV1UL4nnAQcc0HFtUbzIJ9oh+VvUxuM0chx22GEz1R/K+cADD+y4jrp9xRVXzBQ2ZTndgMrti/LKhLLmmeF1Rf0s9S9uC9STXmgynyCW3RzkBf1zXl6hC7z3ve/tuH7PPfecqa1BP8JuSr7UIewvphumI3pDFbQJ2kYY1/BYdtllfbnQ96eQ2s8C9TGuA0UyNNYvTjzxxJlkHHl4xBFHVF5n9KOcyCd0TwuP/BBC9JeBzdwyishoLTOqdjDCGc4YMEJmLwhnvUTM9I7Fr4udLuiyM86PqDHLmzd6hisoLjUGo3aMuoUwKhu+I43ZXtZRMKIdr/HgGcxSffGLX8zO9I/pAtFvw0+eERdGVXk+mxPYToK4jYUuf6wPwbU6HkkG1qFMNxpG/mMEkXVD5KnB6DwucSE77bSTnwVafPHFszOdLLDAAn60t9dZybbByHxYlzniF7VTbj/4wQ/8u/t6HYWH6Z1o9m0GtJGy2VmembdOqV/ktU9maXDvmt6pZ2dehbiRR7jiMrtt0B7DtWJFUIdxs/vOd77j1yDaLqCEFbvXVTFdFs70kv8llljCt7siUjc9SQVZxVKLeDdTdt7Ga4KZk5BYlgH5hpwzyuQZaWNtL5vFNUnTcqkfECfqXV69JC7IeNaKG0XxwpWT2Wbyt6iNk8ZwNhSmK/EzrXVms5vwfZ7EgziyYVEcNmWJyyWeDnn5GsPrUsIyYW0ls9R5/Sz1D7kfrr9Mcecso8l8KoIyo3/Oyys8BNg0LIQZ7NRZtF7DHg35wsymQT+d6slDm6DPZ2Y6z7OKmVx0NMoKT4K4X6rLdEPTezzRfyKPmCEN4Rz1JwTvjlDOIfPR92IZRx5ON4472kjZK3n6UU7MOIf9G8/uxzIQIcSr5PcyA2bBBRf0nfhNN93k1zcVGUoYfKzNNd785jd7w7ZI8CB0YoUQxctAiIUbQwCus//1X/+V/ZoZhCfKBh1aP0EYo2DY5ggxxD1WOMiLPGXFQFkJNzfANTDccIi8CTuMd73rXX7H46JXB4h86EwZJGCX6ybfExgrsRiBtAc65GEgbp+AYpJnQITgThYqtdTp1HQxcMD9vYKsiNd04aI5derU7Ff/wR1wrrnmyn51ghywXUCNF6KN7civeNOuFHmGEUdbb4J+yKV+wGBIWZzok9hQKSQvXhgNKcZlPDhIW/lXtGsqG/eEA0Pvf//7/c7OZfKD/o3rqsB9MwybwR92Ki6Cd3RiiBp//OMfu96kDZrMpzzIAwbSyvIKuUx+GqzrDPOkiCbCHg35EsoH8n6OOebIflXDgBq7WRNH3kSRp5PhPsxgHC77dZYS4IIevjWBdsiA/Z577tnhRg3oQJ/4xCdmynsGDkL3egb92Zk4DzYmDdsIywyoz3n0o5zQT8MwkZHD0mcLMVYZCuOWDoxROwROWaNnJPKee+7Jfs0YDWY9QxmxoGJmjZ3wgBFhRoZDeEcagr0MdsArEqRNgcIeKnwxdFxh50nnFa83iWEEMVy3QtrJeyDf2ewghJ2mUXJEPVizwwym1bOmQAEIDTnqMmt5mYGho+91BL1X4vbJTpWxQZYH7S2u66wvrso/6jwDTWWj6qmw+QgDVqECzgwCRhAzw3VfKVYX1mShhBVB/DAQQsifcJYBmcAGWyEp8mz++eefaWakW5qWS0A649fdFB2hwlsEeR3uoloE1zGAajDjUrWpjqWffSRYy8ysOEbCdtttl12RD+UYrk8GDNcqjxgGQ8IZ1jwwDuNZfsqkbMYpVsgxvHsxbmO6zacikItVg2j02/GrcFJmbpsIe7TlS7cgc9iYjp2t2WQp3MfEYBaXPRaaXiuPRweTHfHgOvnEIHy46VRZW6FsmNU1GHgr8g4ZRDkhQwb5vl0hxiMDM27pTBGQuCczCsaGAaHLMB07Lsllm8kgPLnfYKc8Rp/zlBw7ws1uAIPWjAA6/VCJQqAxYl8Fo4hlikEToLAUzeIAcX/mmWeyXzMENqPxeXlgR/zOUvLChCxuMrGrDtf3O51tBYOSusiBO+Hxxx/f4cJ1yimneFflJjt8FAtGykMFg3LH9Zl6TgeOohG2kUFCHQqfvcgiiyS7wsXvWMTAqTJuMT6qBrfqwOg+yxxCkEuUI7OfzEAyit/0oAXg7lg2MwSxYomSFM5qdSvPYkOmF5qWS/2AfElJL4MC4XX0G3kKMeXADrnMkmMM461B34Y7PpvO0O9VbUZFvsWGM+2nCuRz2Q64QLzDmXRgF+S8srCDmTVm2EJS3YOLaCKfikDOVLWfvLzKK8+YpsIeTfnSK8gRdvBmOQ4GZ2j8Aa9hu+KKK7JfvcEsOa8hZOOu+DmAfMHLL4Q6lFePOWhHvIc4BOO2aGOsfpcTbTGl3gkhumdUZm5R5Ojc2BGU1z8YzEQh0MKR/5B4lrUbUP5MIWSdR2jQ0aEzyjcMMArJKGIRKAq9vi+NkU9TehDUsetNmdveMMJsQCp0LnHnNN9885XmeRGMLDOyyxrycBYFha3J10ahYGEoEC4KQAzthxF0OmdmQwatJDGqHUJ+Vs0a9gKKTx1Xuyoox7333rtwrRkuv6wvx12123fy9hMMg/C9p6Mhz5qWS/2gqXpD+YfvPsXdsYhwBjiPfspfwm6q7+yGJvOpiJRBnG5pKuy2yxdApn/uc5/zA6rxICtLcVIGJ5gJZ6YeI9kO3tDA/XgYnHHGGX5NfNHa7HhfgW6gDhbt69DvcmIwsWqwRAjRG6PqlowQYTQw3HoeoVP0OoimOzBGW0OXxn7PGDQJClqTiisdSTzyHM8kDBPMqMTrsxhdDWeyyqCsY4UPhbeXmWpGddlYJBxt5tU9dIZNQaeIC+9pp53mXZ+Z+YhHt1EwGMnGjaxpV7Ey4vZJHo+2q3RdMMZxj8QVDeUmXrMPrE3v5p28g4aNWgYdv6blEuCyzKZYKL5Vxzvf+c7srt4h78hDg74ilA+46sbvPqW+MGhL2+QVNxjqeDPgUVGXpmZ3GLDrp/FXRb/zKRXKM87TXuR9SGrYY0G+0AdhfMYba7KuO14WkQeeGuh9eOrZwdpa8gLjuczwI4973dzMYKa5qH/sZzkxaFXlbSGE6I1RX3PLRimMguE+YvCO1bx30sauZOwgyi6QdIqpx1lnneUFKDA7ynozgw42dKkrIm+UfdDE69QY8ca1Ly/NZYet4USYW74YqTtJjgYobHF82YwinLkqg/WhbBATErvG1oVOmYEa3JYM8pjBmqLdGbsFRZuyYx0QnSwdcLgBDDDDm/oOzCbAsAkNbdy+UpWQuK4xcNGUq2w3sCQA5Yb8Y3Orfffdt2NNF+liR9GijUlGg1ie0R5SZtvweGiqrTctl4B2hWso7b3qSPG8QEakzDAx+BVucEPeWh1gEA3XyXB39OOOO84rujvuuKOPP31b6gwxym48Uxt7QuTBAFIYhzzy3M55P25evpcdbN5Wl6bzqYiqPADqeWx85a0hjelH2IOQL6FxzZKRJnfopU2yCV04004d6fcuwOhduBQb6I3MJIezwEUH14V6JsZ4VRtropwY4O3VpV8IUY9RN26BDg4BEoI7J2sZQ+IdQzFsU42ZPFAo4jV7zLJVjcIRr3jzpUHDrHdojGGYx/lVB/IidsEhL7pdA9Vv6Ljj3T5xVcJNqArKF4X7rrvuys7MUMKrNmZJgXJhU5RQsWFt+DnnnNPYTEyMdcDnnXeeVxhD6JAH1bGiONjL6oER9jCPi8BbIm5P1MVhGN1GicPQ/u///m/vNhfuKszyCWalhoW8GboUefbggw92bATWC03LpX7AwFaVXKOtxh4XbPhlgzcotaFCyyY0H/jABwpdKau8YPIG6379619XLi1gk6d4h9kY2lFsaHFPndmmbmk6n4ogH6q8rhhsYyDQQF7luZ3G9DPsfsqXsMzJ16Z3IKdfaXrQtgryg3ZhsEtyOANcdXC9Qf7Ga3eL6KWcGOAJBxk1cytE/xkK45ZZw2233bZjV03ck9nQIuxUYuWZa37605923Ukzmh0bSLhJhe5TMbixsLMzo5SjCbMj8Q6zjC72YowyyBCObDJ7zvqXplxLURibVKgY6Ih3YmUjJ9wTy2DTMmZTQ0h7rzO3Brtmbr/99tmvGXz/+99PendrL6B4h7PGkLIxU1Owo2g8e0wbrtplFQP8sssuy37NaOeUx7CBrAhf9wEpszqDgtmveNfjQcuzfsilpiGtKKhlBgtGOX1LCBu22cxwvF8Ds6NFs8a0PzbiKSNvsI7n0zaKQC6TjrI1rAbKeOhVwWvKBlF3m86nIpAfsSdOCHlFfxbu54Ghw7r0KvoZdkjT8iUcuE/x4kAOpLgVA2lmMJnBC4MB4rCONQ31I3wPNCBrUpdBcF24azIwyF1XNtUtJ/I9fOdwireAEKI3hsK4BZQy3okZgmHF7I/BrAA7LYYC9JhjjvGuxmWKCv8xexYrKxAbdMw0fe1rX8sVVgjXE044wbt7DgO85iM0AtjBj40ZyjZ0wbikE2ZmPDZ6GDjgnZchbJJ08sknF65N4VmsK03pIBjZblKhwhjlVTAhKHrsdMjujfFINb9/9KMf+RHcMB7Up49+9KO+fjUBiiozqWHZ8DzyvJfR8ylTpvh6HK4DDKFs8WYIQcEZ1Cgxg1S8rzbsvFmzRHvKG+EnvtQJNpELy4O8q3p9TNPQFv73f/+3VLlDkWOWM2SYFBVmF3h9V6o8o02zy3fT8qxpudQP6FviwVODvCLPQq8DNmkL3xeMzAiVama+82ZQMQJ++MMfetfcKng9UTgjhBF+2GGH5c4KEe+zzz7by+cUGHALFXJemcS6/CpjhhlJBgK7HZzoRz7lQZl94xvf6DAwDcImr2jfIWzKF7qYFtFE2KMhX9glOPR0y4t/CGW93nrreRdejPmi/Svow9AJ4jTT5psaIM6DvAvfpkHdYu0vci8FrosHeXBNDj1L+lFO8fKGeK8QIUTzDI1xi+DBwAiNK4QIM3GhYoySEc5O0el+4Qtf8Otv2WQHVzKECYKcd+ihVPGCdWaGw1FGAyU6donGgFhnnXW80s131ngg8FhPefTRR/vNBZpwYe0VBCobGoSgqNJB0RmTfvKB/CBfyB/yiVcw5M1uYgTtvPPOHQoWeYaih8LKJyPUDDighLBJCG5mV155Ze6MLB1d2JGgLLLuhXiQp6wX7cXtilmArbfeuiO+wEwVdQK3MDq/rbbayhvB/GYTjFjRxxgmT5qEDix2EUYJ6sXTgPVM1GPaCaPslC3uZhzkI2t/qLMhKOSDXLtKWcTpxiWb+kN9CesPm4qwji+ceeJ+Zr0xlAcNCg0GAIMf7O5KuyFvmXlmxoD4U4YGMiDlPb6DpEyefelLX/LfkQvUFXbeZnCQe5o00puWS02DTELWHXjggb6uUT+pk8SL+LELKvlkcP0nPvGJjkED1gAvscQS2a8ZhujnP/95v0u5pY22Th1nh+CU96IjM+Kyo21wjleA0XaQmxgW5BeyDG+JeMY3DwwtyiRMA+FRJlYv2NiJuo7hS57Qjulvqfvdyqx+5FMeuOMzy82OzOwYT1lSppYO8irs/6n78UBuEU2FPWj5wjtqw7zHc6hq4Ah9isFqdCY2fqItfP3rX/d9NTsc8xvvHHSBMM20efrZpgaI88AQpc4YzNqG6UsBHSAceKM+xvW76XIKZRoDWDJuheg/Q2PcAp3IJz/5yQ6DiE6XTsTWKyI86UziV6GgJPHuUYQvO2baO/T+53/+p9QtDyWa1xGFOzYDQh6DFmOC17xgNDD6hvKNMtCkMtgtDAjQ4SJsQzDeGNEn/eQD+UG+kD/hZgx5IKhJazxzRpjMWu+0007euEIZYeajbESf2XiUoxBm6ogHecp743rdgAJXqLz4GpQ9HVKRSzCbmWEIYyg3DYojZRCSt5a8LtT1Pffc05ctCggHzzrqqKM6yoOyit2U+w35yGABCmwI8aK+hPWHTWVCBQmlgx1Uw01KBg3xQXHBi4R2Q96+/e1v94ob8TWQUeyMzTrMYaJMnuEajzyjTpLPJs9Q2JscrOuHXGoS3EVZO4cMxy2RATfqJPEifvHgF/KB9ITQD3FP2FdxH7OhljYMZ2atKQvaaxXkG0Y0bSSEOknd4zxyk52jkQHEH9kXu1oWwaAsBkoY57BeMABCXeed2eQJ7rhh++yGfuRTHuQLBj/pYcdlypLnko5woAKo8xjSGH8pNBn2IOULezGE/SLtvco1OYS4Us/w7qCvZoCK33GdYOCEOvme97wnO9M8zz77rDc0QzAU2YelDqxrD41bYKAi9ixqqpwIJ9Q98I4bzZ3LhRgvDJVxC3TA8eh1vF6RTp1O5tOf/nRHp1kGI5FFChwCEvcvRlzLMOU7ZaR8UDADgULADpSpBjejl6wJKlr7xGwf77GjE0+BThTFLIZOj5nglI01eoH4ssN2anyBOLHDMEpWv0abyZdtttmmY7aEmZgid8imoE1gXOJe1s+R9CJ4Ztl7AmOIL8o1hn+8XnMYIU0YQQwc5NX70QZ5xgwkCngZ/ZRn/ZBLTcKgGzNSZXFDfpGPu+yyS+7gF8YZhkxZH0SfQt+Ci2gKtB0M0N122y07kw95hRcRnjOpmKcLM7/h3hVlkAeksxfvj37kUwyuzwymYISWwaA4dbLOYE4/w86jKfnCvXguWb6zEVPZBn/MKKa2VYNyY/KBQap+ykKW2+BREIKsyHvdUhlxngBrh7vxGEkpJ+IdvpMX/XZQy4SEGM8MnXFLw2eEOuwgGOmN1ysyMspoIrNyjBpivNIRG6wxYn0uI9vsoMtayzLFGaGOOw6jcozOmZAnTNYR4kaFK+gwKt/M1hBn8oJ4ImwRvAZpQZnD4CF9uBGj5JR1DHR0DCDggsXMCm6l1iHwiZBmBh2XMoyYMO9DGM1lBBSFjc7IoHyYNY13q+4WwkGxuPXWW73CTtmHeWBxDvOAQZR+u78yukxeh8RryVNBgSC/KY+4vpNWyh1PBXaArFIm+w35Sv6y5paBB/KAMjeok7juUVbM2uEei4vlaIHcYaCDuCJ/wroK/OY8MoC6w+xW0Y6vwwDtAc8T6jp5b21hkPKsH3KpSTbccEM/Y4hssrpJm0HW0acwU4QnUZGMwFjkf+o4bsNhGLg10p8gG60vSYUy4vnMCiIj43BpK6y/53vdOsj1zNASZ8o/bpc8G+Wfuk5bwB2XGcpeFPJ+5VMMOgHu9uy3QB03+UidI530QwyUd2N89hr2aMkXZhRpYwaytmhgFeOdvuP666/3/Qjpos8M+xHiSTtmYAU3YRuQ7Kdhi8swMgQXYoN+tchbqwrKLJ69pa2RL02WE/FmjbDFm1l94i2E6D8TpjfA5ravFUII0SrYyRM3cRtwQZlFWY8Vu7bC0gQ8SGzWCqWY2cvQ0G4ruD1inDN7ZpA2BsLGMhiaDIwZDPjhHtoE/Qx7NGBgn4FoYAABgzTe1V40D+/QxQPDZpypQ3g0DWrwTojxzPBOPQghhOg7U6dO7dhlm7Xy888/f/ZLDDO85z0sOwYmep0BFWMLZupt9hYvODYSY5dn0T+YM8JTwQxbBtTYPFGGrRCDQcatEEKMU9io74orruhw+WMH0tTNdsTowpKbcLdx1tKGa/yFoD6wUZm5F5933nl+Z2zRPxhwwoXdYGOq+B3kQoj+IeNWCCHGKayxwwU5hHVhvMJFDDe8FoX1+yGs65NxK2LYTd82xMrbw0Q0B2t3WbNryyDYBbxs0ykhRPPIuBVCiDEEG/TwHuEy5RW3RDZRYRdYlF2DjVaqdo0X/YONoni3e9krW/7zn//42VrW8IWztrgjs4nbIHabFu2CXbh5RRuDH8CA1llnndX1+4tFPuQnbdgGnWiTvJqt7iuLhBC9IeNWCCHGEBi1bBDFK7LYbRdjiV1S2TAKg5adTtnlk9cvhe8Ax22RnUC1ZnP04L3fBx54oH93La6M7HjNjvWUHZ/85pVn7AYfvxplxx139O/iFCIPdnJmF25r39/97nf9br6iOZCnDC6y0RvylLasHZKFGDwyboUQYgzy97//3b/qBgVr88039++9xaDlVTLhjB+giDETyGtO5D43+qAc8yoiXmWHMUvZ8clvBipiGMRgZi7vfbxCGLwXmVf4sMaezzrvSRbVMIBw2WWX+fxl3S2eFJKnQgweGbdCCDGGqPvuZl4Lcuqpp/rZXhlHowtlZxv/pMDrjHhHLO/mxPVUCCGEGO/IuBVCiDEEa7x+97vfuZNOOsltvfXWbvXVV+8wmHBLXHfddf37O3/605+6Sy65xL8q5DWvUXcw2uAuzowaG9LgIj558mQ377zzZv86/51zn//8591PfvITd+WVV/rZoboDGkIIIcRYZcI07SgghBBCCCGEEKLlaKheCCGEEEIIIUTrkXErhBBCCCGEEKL1yLgVQgghhBBCCNF6ZNwKIYQQQgghhGg9Mm6FEEIIIYQQQrQeGbdCCCGEEEIIIVqPjFshhBBCCCGEEK1Hxq0QQgghhBBCiNYj41YIIYQQQgghROuRcSuEEEIIIYQQovXIuBVCCCGEEEII0Xpk3AohhBBCCCGEaD0yboUQQgghhBBCtB4Zt0IIIYQQQgghWo+MWyGEEEIIIYQQrUfGrRBCCCGEEEKI1iPjVgghhBBCCCFE65FxK4QQQgghhBCi9ci4FUIIIYQQQgjRemTcCiGEEEIIIYRoPTJuhRBCCCGEEEK0Hhm3QgghhBBCCCFaj4xbIYQQQgghhBCtR8atEEIIIYQQQojW01rj9uabb3Zrr722u++++7IzognI14UXXtgffBf5PP30027rrbdWHgWcd955bp999nEvvfRSdqadDHs6+iH7jj32WN/mqdP333+//yQfhKgL9ZL6OayykXZN+6a+jwV5JYQQopPGjVtT+s1AsoNz/Ncv7LnDqpARr7I8iBXqOvnYlLJLOPvvv7+7/vrr3WOPPeZWXXXV7J/+YEpQUfqK8qBIITGlRYMeQqSDYTt16lT3wAMPuLPOOsvNO++82T8ipEqGj0WoG2PJACQdBx98sJs0aZLv444++mj38MMPD7UxXsZ4rJNCCFFF32ZuTzjhBN952IGhtNlmm40po4O0bLXVVn1N0yDz8brrrnOrrLKKW2yxxbIz/YNOeeedd3Ynn3zySNpQrvMM6jAPuAZ23HHHmTp0lJQHH3zQLbTQQu7222/PzvYOCh5HPxlEXWoKG3RoozIYMlbS0QvkAelfffXV3WyzzZadFWJsQh9xyy23uDXWWCM70w7a1D8IIcRoMzC35J122slNnDixUaMjZL755vOzDhh+Y5l+5+MgQKE+55xz3O677+6WXnrp7KzzyvVee+3ly7IIrtlll13c448/7u69997s7AzIk9VWW81tueWW7sYbbxwzsw1CiNGHvoU+pkw+jTWQx8xujuWBD/qgq666qu+eSv1gPNZJIYSoYmDG7eyzz+4WX3zx7JfolrGQj08++aQ3TrtNBzPLzDA/9NBD2ZlXDWZG5FdaaSU/g8sovRBCCCGEEGJ8MDDj9sUXX/TGSGzQ4J4arqfkd4y5D9o1fH/qqaeyf2dg14T3mzspbnd2H9dBXpj2X4jdawdrc+666y6/Dmny5Mnummuu8Z/8lxf3pinKx5g4fRxF7pe4OpGuI4880p1++uluySWX7FhnZWtZw7BiN117Hs/gv7xrDDNOMUabml21WdxlllnGh7/EEku4iy66yJ8LqZMvVvbkCwff8+pJWIfz1vvGdYjDnml5m1qXLP7x/xZOmOd55RbfZ2Vv/4flngfhL7/88u7qq692G2+8sb8nLmfaZpjHRfWA83YNR1E5hJTlJaTmT5PpyCOsExxxvYnTkVdvIK6vfI9lnxE/M86DGP63PNhtt90q78mrT2GeWF2Ky5Fr4vRzbZmbpaWbsLi/6FkWj7x6m5d3l19+eUde2zVxuuP6AlwTpsPScOedd47kSxgO3+3Z8X9FxHHmsPwM8yQl7Lz0W9xDyuoi6Y/zNn52Ud1NoezZUFXnoChf4rC4D/lK/21tnnu4hmv5HmLnLTziccYZZ3TkI8/Ly1fCCp8fxpF4EJ6lw/6z54T/WfqL+oei58dllHcNz+CI02lhCyFEWxmIcYuAPvzww71BtuKKK2ZnZwhXDJy7777br6dkI6Pjjz++Q7gieHG92WKLLUbWXeIqtcMOO2RXlHPTTTe5W2+91d9n7jt5YeKStOuuu3Z0AMSDTvDiiy8euW7fffd1s846q3fVIr5rrrnmyAZM/XaJLsrHGNJAWsL0kYYizC1rv/32c9tvv71f12quaOTVBhtsMLIBBwflRScdKz1wyimn+NlTrqOc8jDXYtY+YUjHSkUVtm4qNPBZL0wZUr6EzxpCwg3Ls26+EB7XkC8cfI9dwKgfYOFttNFG7qCDDhp5LvlD3KyOc7CGmI27yFvi2o+6xHPDjVM4CHuOOebIrpihgKEsHXHEEf5/W8/MfXG5GpQpaVlrrbVG2kVYzgyO8PvEE08ceeaUKVM62jRhU3dsEyOuIyzysqwuVOVlHZpIRxHINeSYlSUH9cLg/3DjNg5c9CmLMP11ZF+KLI0hbMsDW9deVO9S5IANWlFGBucpZwzocBkBSwgYgKpa358nT1LqbZ2865XjjjvOyzOeYfnXTXmkyifyBMJrGJwIw85Lf50+rgjuJb+t3XLEMi+Vqmen1LmQKllM+VMOK6ywwsgzi1yR4zrGQZ+y9957Z1d0R159pu/luz2HOJqsqds/kCfkTVj3OEgn95CnIQzannTSSe7SSy/111ldCuWQEEK0jb4ZtzYTwEEHRecfrt1ByCLAEepmLGBkoeQhmK1DYvaNTioU5ghqlLEUJkyY4NdghhAmStiGG26YnZmxlhXoaID4oYwg7MMOcP311+9YJ9pvqvIxD9x+p02b5t1zDdJQ1JGXYflvHTFQXoceeqg3MO+4447s7AyYCUp5DnlIh4oxjVJC+lI6VOoFCgtxsudwjnvDTUJIe7wut8l8MTB6w7q5ySabdDyXcgrrODBKzrrpohm4JrAZ/jBPyHPqL6AE0c6Iv6WfuNqgQ1yuqaA4UjfCNk1ZhWugCZtn8Cyrx8SBuBCnWGk1BpmXKenIg3qIXGOjtFBObLvttj4s5AoDbvH/1KE4/amyL1WW9kKKHKB84kElBqKeffZZ385tGQHpIx9TNrGK5Qn3ptTbXvuNVJ544gn3oQ99qKMsuy2PVPlEnuSlKwy7X30c6SFdYbkh84g38U8l5dl1+54qWZyK1THyNIybtdFeyOsfCTc8R/pJtw3a1IE8oZ0xKGd1D9AjqA/kaQgDWwcccMBIeTJoTlsNB6iEEKJt9M24pWNgJJDRQ5RPRgdDpZCRe4RtPAPJbBwdEh1lntFiVLnlGlzHOlXDwmREO+ygbS2rdSjEj3jj5jqaVOVjHgsssIA36rsZTQ8py/+8WRpgJjYV8h9DnTw3IzdvZiM08FEOKLtQ4TFlLSyrvPg1lS8hcd7wDMrJFHkDZc5cv0gDM1nxNU1i9bloVtN2lkYBDCmKfyrkeTwbR50gPAxuoExQ3mIFOr6uiEHkZUo68iBtefcaZTOW1CWUdsqmjuxLkaW9UEcOYJiFhg5xW2655bwhawMDqUsrIJYnKfW2Tt41QVPlkSqfitIV95v97OMI32QyM5y4zNYZYKp6dp06Z8TXdivL8jyDjDr9Wx5F99MumHG1PGVGFY+Hqr4+hjzBUA4NW6Ae5HkzxddyHTPl3TxbCCGGhb67JYcjrZdcckl21vkO1tZ3mkDnMNcioKOmw+4FBHXYwVuYNltoB/EgPgbxo3MLDePRpCgf8+Da0047zccf5Z/00anVpZv8z1MIqjAjF0Oe0fzYGDMD345wdJ4OGKUZA8fSGpYnMygWXlP5UgcUCdY7ha89YqCCEfN+YnmKEYnySVrDgQMU0XANlx1mLPYLygvFydYwhweDGGWMVl6mYmmLZU6IGRZV1Gl7KbK0F+rEBcMD4x3jxdomRgdGr23yFq6PryKWJyn1tol+IxVeOzb//PNnv2bQbXk0Lbf70cfZwBJu1+b2aq6+dah69iDLMMaM9LhcmyCuz0BeUjYYn9bHdTNDbPJHCCHGOwNZc2tuNqHbFMLc1neaQLeDmTjusZHXJrEwbc1NfNiMIPFrEjo1Oms67TzIhzKlGPLysQgzbkgTxiGKTt6saBn9yP8yzMUUxTgVG2XPK0+ULgjDayJf6nDqqaf6sscFO56p7AabfUmF+kxayR+MRxQpQHEL13DFRziA0CTkP/Uc5S3vuWWvtUjJy7r50ySWtjJS5UqdtpciS3uhTlwsDzBqMYRwScaINaMXw6FodimFlHpbJ779qC+9lEcv8ok0k3ZLf9N9HMYTnkP0Qb2+fqbq2XXKcDTpte4weMEALPW5V5mbIn+EEGI8MBDjFmy9Dwoq0CmYC14RpnjE7keQdy6FsjBDUuJXBxQ8Ous8ww1DlU4uzwUrJs7HFOg0MSZQtupQlldmVKbEuS48M5Uy9zYbDDB3yJhu86VXmLnqdXY0jrOVRxEYEyjL5m6G8ogLZJ2BhKZAsaW+Vw3QpFCUl3Xzpymq0lYmV2hn5tJcR/Y1Lati6soBvuMKisKOSzJGkCne7FZMHexWbqTU2276jSbrS1PlUSSfitLFc0l7WfpDmoonZcEOxHWoenbdOtckRX21eSLE5A1aV+V9GaYPdEOR/LG4dzuoJIQQbWJgxi0ClTVA5ibKeiQUuXh9Ef+hAAEKEffgwhiOXiO8OdcNRWHCmWeeORIXOgEMI1wgza0ViJv9rmMgWPqZPQs7LjqdlB2QjTgf8wjzEKyzrDtST16xUQvPshk/ILx4U6c6EL+vf/3rHQZn3XwA4sEsdlmHjQJkSlS3+dKLMca9oRJHGGFeGql1iTLBfY36a/WIvGNGJVQweQ712TDlBgODMMrqI6+7CMsmJlV5LoIZeqC8w+cQjzAuMSl5mZo/0Gs68mADH8KMd6U12VIkV5BFtDPbZIsjVfalyNJeIC515ADGwTzzzONnKWOjlzKw2dxuSKm3dfKuTn1JpdvySJVPYVyBNHKONJfVHajbx4UQLvKDZ1sYXMdSkrpUPZtn9aPvSaGojrEcKHTrBjOEw70wuCeuZ0WY63Mo9xm4jgfsUvuHIvnDwCYDTjY4ngppYi1w3u7UQggxrAzMuAVzO6UjANyv6KDCtZJ0XKuttpr/H/jfXCrtGpRRznULYTKrQKdsYXKg7NKxGbhv2Ss67Jorr7zSz6xA2AnyX6xIxDAST7zDtVAoLihX5AUdegphPhZ1OEcdddTIM8hf4tmN2xOzn6SLDjsOL9zUqS6smyPtFibfUZzq5IPN2pWN4JvyYbtEdpMvZoxxfd77AssgbBQxq0MoHYcddthM60Tr1CWb0bF6xC7avOIEV8gQFENLq+VvWGZF9ZHZtrIy4D/iigLHPXnGehmklbWFENYBBirKBjZS8zI1f3pNRx6EmSfXmN0x2ZInV0g7ZR66rKbKvqJnxrK0F+rIAdJJHUIZD41YvnNu7rnn9rK2W1LqbZ1+I7W+pNJLeaTIp7PPPtvXF7uOfoz+jOcZfG+ij4shPzGeLF30QbwKqe6aW6h6dr/6nhTIc3MLt2cD50LIS9sLw2RZHf2ENPK6obCe0p9RH0N4Dumu6h+K6h7eEsjcsOyFEGKsMmEaW1sKIYQQYxwMJXYQj1/F1AYYVGNAB8MuNGTF4MCoxAPmkEMOGRlIEUIIMVwMdOZWCCGEEKJt4CUVLu0QQggxnMi4FUIIIYTIwN06Xnfc7bpVIYQQg0XGrRBCCCFExoILLtixFljrVoUQoj1oza0QQgghhBBCiNajmVshhBBCCCGEEK1Hxq0QQgghhBBCiNYj41YIIYQQQgghROuRcSuEEEIIIYQQovXIuBVCCCGEEEII0Xpk3AohhBBCCCGEaD0yboUQQgghhBBCtB4Zt0IIIYQQQgghWo+MWyGEEEIIIYQQrUfGrRBCCCGEEEKI1iPjVgghhBBCCCFE65FxK4QQQgghhBCi9ci4FUIIIYQQQgjRemTcCiGEEEIIIYRoPTJuhRBCCCGEEEK0Hhm3QgghhBBCCCFaj4xbIYQQQgghhBCtR8atEEIIIYQQQojWI+NWCCGEEEIIIUTrkXErhBBCCCGEEKL1yLgVQgghhBBCCNF6ZNwKIYQQQgghhGg9Mm6FEEIIIYQQQrQeGbdCCCGEEEIIIVqPjFshhBBCCCGEEK1Hxq0QQgghhBBCiNYj41YIIYQQQgghROuRcSuEEEIIIYQQovXIuG2A8847zy288ML+s4o61w4T9913n1t77bXdPvvs41566SV/7h//+Ie799573X/+8x//W9Tn2GOP9YcY3yAPwrY1bNx8882+/SMHmoJ6jyzceuut3dNPP+1/D3Me9Mqwl3Ebod5Qf9rWnwrRLcjgrbbaqlFZLMYmefKR79bnjmVk3GbceuutbsUVV/TK1rXXXpudFUX861//ckcccYRbY4013MUXX5ydHT5MgUY5j7GGHyrtZsRzjx1vectb3I477uiuv/76DkM+734hRDW0y6lTp7oHHnjAnXXWWW6++ebL/mkXgzKukF+hTLIjfm5RfDCoMazzZBXXxuGG1xU9W3KvPVi/ltcPVtHLvaK9jLYRxPPzZIzJslgexQOHRdcV1eM8OcgRy1Ij73qbqOCz27wzGR6HzaE2mI6M2+lMmzbNXXPNNe6xxx7zv6+88kpvvIliXvOa17hFF13ULbfccm7SpEnZ2f7zyiuvuOuuu8597nOfc7fcckt2tnnmnXdeN3nyZLfmmmu6t7/97e6Xv/yl23777d0FF1zg60tdENCDGG1FqJqAHc9YBzFsncGwxmuQkAekf/XVV3ezzTZbdnbs0K+2vsIKK/gBNvopDr4ff/zxSe39hBNO8PLy5JNPdksvvbQ/R/xQHm+88UY/yGDhchD/kPjZHFddddVIWEII0RTIprPPPrtDXgEG5ZJLLun7jlAW3X333R16KP0L13EuvA4Ztv/++xd60Ky11lo+rPD6WMaa0RzLTa6dY445/DV77bWXW3XVVd2pp57qf3cDMtvCtoMwRRoybqfz+OOPu1/96lfu/e9/vz9+/etf+1kFUcwss8ziPvvZz7pf/OIXA21wDDpceOGF7pxzzvGGbr945zvf6b73ve+5H//4x96gPfroo/15ntvNaJwQYuzBjDMzz5tttll2ZnCg9O2+++5ekSuTSSiEU6ZM6VAUuf6ggw7y9yPb4kGGXXbZRYbrGIKyZDCim766l3tFe0GmjZZXzUUXXeRWW221DhmEnMPQxIiM5S1xxKBEjmEYY8BiHHIuhPCQhw899JD/vwquj2XsHXfc4QcKkZGh3ORazhmbbLKJu+mmmxof5BRpyLidzh//+Ef329/+1m288cb+4Pvvfve77F8x3pkwYYJ773vf693WGT176qmnsn+EEGL0WGmllbwnyZNPPpmd6QSlbLfddvNLSEJFkRmFxRdf3G244YbZGSGEGH3Ms4clbwbnmD3F0AzlWB4YxqusskqhbDNDmAG/FMMTORmCYTxx4kS3wAILZGfyWWyxxdwSSyzhbr/99uyMGCStM24ZkWENJAffe4XZP1xOqaz/9V//5Y83v/nN3k05dltAiWDU5jOf+Yx/Pm6rp59+uvv3v/+dXfEqda7NgwaEQrLuuut6X3sa6ze+8Q3397//PbsiHwQA1zMTzawj99maAZ59ySWXuM0339xfQ5yOPPLImRQjfvMs7sXteN9993V/+9vfsn9fxZ6FIAJz18DV7c4773Tf/va3/f3h/z/4wQ/chz/8YX8fafu///s/vzFVCGn/yle+4uNn8fzhD3/ow8HVhHwEBiL439LXT8g7Zo3nmWceN+ecc2Znq7E8IQ3UKUtTHGdzEeS/vP8tHPufI3StIW84R3ly8L1qzQfPyAuPe7i3KA6hiw7XcO6RRx7pWCcSP9vCJJ7xc+PnGPF1eekhLhyWfq457LDD3PLLL++uvvrqkTpicc7Lx6LnGxb38J4wD1Lzi8+ieBkMnITPiv8voyq/LI/syFvPBHF6+V40oBPXW6tDRRBHywOMLu4py/+88grzxJ5P2kK4Jk4/1xa5C3cbTlj2Fteqtt5LGdeB+NkMRjjrRpxJ5xZbbNFXt/C8sovrR5iX5INdF+e5EV7DwcxIKlZW4f1WNhYP+i2Lc1huKW0nL71lYRSlsYiUOPA84kA6+N+u4cir31wfhnnGGWf4+8M6Gd9r+cjv8P68+ORB2ByWnjAf4jLKy6M4znGdyiuHMD3As/Pim5dPZfFNeRa/w//DsIuI86HovjDsvLyyOIdHHE5R+sjnMEzypk5bTalbebBJKSyzzDL+E+wcZVMG8SAdVUteCBudP8XwRB/FwJ199tn9bwYU8fbEm6EMnk88cF+2+ml5HJdBN6TUvTrE5RWWqz0rDj8vPXYt4Y0mrTJu6agZcX7++ef9wfdeDdy//vWv3rjFkGOUhYPvN9xwg/enD8FdeaeddvKV+oMf/KB3jfjJT37iDbaYOtfmgfsrcdhggw28+9i73vUu961vfcsf//znP7OriiFNKPkPP/yw/41xduKJJ7o999zTp5EwMS6///3v+zw0oxnDdu+99/bPYeQJN4tnn33WG5t5Bm4R559/vjv88MNHwsWA/epXv+rPoWjxfGZCMeCPOuqokTSRZhrVd7/7XfemN73JHXDAAe5973ufD2fBBRf0cTVF7VOf+pQPZ6mllvK/+wWbSFGOlCnCaqGFFsr+qQYBh9sfrjSs3+WT2d/QrQZj9KSTTnKXXnqp/48NulD8Q4HBQEm4zoR1IaFrDXnC+f32288ffC9zKULwUMdsfQl1nfLohgcffNB97Wtf8/XLwqIz2HXXXWfq9E455RT/yXUcltZQEJpwDOPHQRrJt1ghQcFlQziuIc0HHnigv4/1M4TPeUZqCffggw/uWIcTrpMpgrLn/vAeRn3rCm/CyIuXwaANvy0f6zyHTsdctiyeG220UfbvjP9pO+H/jIJjgIX1jLwljzF87DritMMOO2RXvAr3cT9tmOtMXpLH5HUehG15YGuKwrYQQlyQf2F5cS/PpX7wDGQU8pp1+AbnWVaCAW1KEaDIIPu4J6aJcFLaei9lnAdxwbMknkVAViMbqQNx/pIWlLP5558/O9MfqmSW8cQTT/h6xEwN15n8oK+wesQnZW6bkFl4p512mi+fKqxem5zkIO/jtn/cccf5Po//Ld9S2g7xK5MtXBeHEbbPKlLbLyCP6X/pT5BdRTNdhBn3AZSZDR5XwQAdhOmhzuUZOjGxzKafypM9lFfYj1T1Wykyoxvy4kuc2GgSwjqJ0QR5dRa5T77FZRZCuKQ5zAfuC0ltM8gzyysO2h71iHwKyUtfHinPhV7qFjKCcg/jQDp4jhmYRaC/Itu4tgzC4RriVQblhH4SDgSaqzLniwx7g2eQnhdffDE70wxN1nOrp2X6lhnqhB+ml7RB2G9icyCDGAQYTVpl3JL5MXnn6oD7MW7IFCQzchx8RwEINyzCOGP2ECPrO9/5jldOUFIYjWImIqTOtUXgr0/auG+PPfbwCiTrgX/zm9/4xlsFM7cIkkcffdRXUAwzZkkxpL75zW/6MDE2v/jFL3o3DhvB+ulPf+o7RdbTMvPL8xGIn/zkJ32FTwGB8ac//ck3BGskl112mQ+XdawYQpamj3/84/6ZNCDyC2P7ueee83Elvz7/+c/76xAmzKgj9C0PN910Ux8OSmnTIOgxnhmppNOm8W+zzTbu05/+tF9v3CQo+hjxJjzprNm8KhQYJmgMBD8Cl46zjiAzKCPCtA6EZ2+33XYjcagDHR75E4ZFegDlKoSyC9NBHKhf1HUTmnSCCE3aTdjB0ZlQ1tTXEJT7LbfcMvtVDB0M4YbuTnRU66+/fvYrH+JLPA3uoU5UdYx1YdOeQw89dCTN9pxw5DcP2lm8phK23XZbHxZtC+Ul/p90MRBC3lv45C3PzCujEK7nPu63vKHcMQyQm5Rhr1hckEEG6SGP7Bk8M+506VwZkKMNWedLfMlHrs2r402FU0W3ZZwHcaVNkD9hO4Evf/nLvp+gH2mCu+66yyu14ch+lRJFvUiVWdSvsB5xHWVsg7MmE0I5aXWBPC2DZzF4GNcl8j5s+8ixD33oQx1tJLXtVMkW/kN2hQMi1j6rqNN+gXTQV5XVTwszrItcT/7SH6XAs8Pypa5R58KBoCLyZHaeOykTBGD9SFW/lSIzuiEvvubaf8ghh3TUScoVeBbPDNdmEve8MgvBQMPzLzQOuM/ah1HVZjgXywZmPjG+Y0+c1D4Uqp7ba91qul+tAwNl6Cgm49DBTIcNod4z0ER95/oiI5cBxHDZCOHkhZcHsj2Ut+EzmqznJlur9C2bsbb2Tf2l36I+hzK9bBB5kIzrNbcUBu5jGE24IxvmmoyByAwxUCH/8Ic/+MZJB4YwAIxhOv2QOtcWQeXAkMW1l9FBOg42b8JwLhKKIbj+Uhnt2WZoYiQussgivrHwyYwsMNL/8ssv+4rOfx/72MdGBDI7I1PJq5QIgzxDUOJCDISLcc3zEQrWWOkYMGL//Oc/+3sQaghF0opSYHHvN294wxtG0mpgaCO8qB8Iiy996Ut+YKBqnUU3IOhCoUJcGJHLUwIZEbX8Q/gglLoZFaRsSE+3M0YhsdIGRSOjofJncB1C0zoAOpQ4T4B8yRs95P6qEV2wOOWNXFdBOaDMW96Td90OLBSRl4+UU1UZk1959xplnQ3lYYoJeUreFpVRCNczOhsbT7QPlCfi3AtlcSEdpNcGf5BzoQJBelkOQV0xo9GMjzgdIU2FU0a3ZQyxgWkzeXmK0jHHHOOflTqTVkXebsl5G1HlUSWz8IQJFXmwWWVTwotkgtW3Mqir1PG8uhQTl2tq26mSLfzHYHM8SGQghy2P7KD+Q2ocDPKjqp8iTPrX+DpLRwpxftZp+zwjlNnW3jGUwjpl8bF+pKzfqiMz6lIU37JBLp6FARIOSEBVeycfKZuytpvSZgzqI0YtdQpDDAMuLqM4fUWkPLeJukUeDYL4OejsNntJW6WuWTuMoVwZdDEjF902bvvkAW/e6AaeH8rb0GOgyXpeJFtjfcvCtrqDzGHwl3igC5gMoq2iv6b0Df2kVcYtgi8m71wqFAJusBhXVGrrVPjOOYxJZiCBtbm49lIBXv/61/tzRdS5Ng8MWEbeGZFkBpFd4zCucE1OBQEUGoe2szCNFffo+OAZKHZch/tvlatmGW9961vdsssum/2asf6YcBkwoMHmPR9BgRFMI0ZYdpNvZeR1JLgbEy8GHeL0mpBDWOGmzRpkRv8p19HAlB8wYVekKKWAIMbVyUYHq2ZhBgVxwGisQ6og5RoUchQOMxJSjHuUczpBBL3lPaOVw4DlV1kexAMMRWDU0UmngCITriu1w5SnXqkTFzpdlH+UKvIDQ5QOFxlona6NNofruGKaCqdfxAZmmcspA3bmPRG7DBYpwU3TlMzqRiaEWDot3UWguMfXpLadKtmC8kjZ4WHBf/FMD/LY8sgOG7RIjYORYqgQZqpB0w9ieWXt3fYisAO5y6CAUdZv1ZEZdSmKb5GxZnUWfStMDwdxLwO9EXd7wrZZxCIDqwzqF/Vs55139rP+1Cl0GnSbmCaNkX7UraoBASN1gIVwuKao/IC6Rj9P/180yADIYLwSMfzQEUNZ2w+arOd1ZCv1IxzopZ9k8BdPQ+s3ywzvQdMq4xb3VNxUzH2Y75zrFkY8UVbe8Y53+DVS4cE5hAHGL8aZQaOIDZwXXngh+9ZJnWtDmOXE5YUZW9Yo4opLh8lmRqkUuc7Sgb/3ve+d6UCxM4h3vK6X31WCxWCmN2/WlbRj4OY9P1QqmDVt6j3DGOqA63lYjoDCes899/hrXve612VnO5lrrrn8pmDMUDHLTMMeNBjYrKekUw/dUHoF5ck6PAQ99Q3hVGeEtYrUEVibbUCA0tH2E/KQdJuSROdVBIIahRTFlM4ujybzqy4p+ZVaBqYYpEB7DdeVxkdRXqVSJy6WB7RN2gqjyRifZqxi3BSNToc0Fc6wQBzNTS1cB016epnFSqFJmdWrTKCu0u91Q2rbMcpki830mPJPGyGfqqgbhzZi7Z18i2UJR1iHivqtuvKr2zoBVc+yOotxFKeFo2xdK3A/gyVcy4AQRn/KQGyIuU1jeBUNgg0r8YAOA4wYdFUu7+Qp9cMMsCJSBynN1T5eXhVDecXu2YAhij7bJHXqeRV1ZSv1iTQit8hjjFjCwOilzEZz8DemdW7JGLPMpnL0YtjiBovbMaNirEFlfWl4sLEEhhhuss8884wXhlzLbO5tt92WhTJjfcuVV16Z/ZpBnWvzsI2bqDRmpOLmXNWwyzCX4rPPPtvHw8BoRUFl1nTWWWd1iy66qJ+1Zh2sGeZ8Em/OdwPpQLgiqMlbZqYNyoHNr4BO/P3vf7/f0Zl8j43RGJuNLoNBCsrizDPP9Om0MBE6nCNOGNcMlhSBWwkGLgYwG131a3S4DgjupgxtU4LJG/LFiDsYhDaCLSYW6GDXxkZfnkLNOa6zkV7qgbnChFiamzIuCAfFgZHLso4wxkYnY1Lzq2mK8suwDikuIyDvMXQweMxILyqjEDpYBrAYre0HZXGxfA1Hh/mOoksbZzSZ+mEd9+WXX+7LOGU0ualwhgXkLv1k6BJLelDEylzu+kEvMquojtMnVnkK9FJXU9tOTJlsIf+ZVUdBTZk97zYOZVCH88K0tjVoytp7EXG/VVdmoAfF+U8dwf2/ipT4VsnlVGwGMe5fuiGlvfRKr3WLfItBjuEVUTWLChikPAc9Mg/uJxxkYJUewXNZysdAXcpAFG0aeROC/hif64W69byKOvoWRitpxKPUBn+B+BAG55vSz3pl3K65xTjG+KQg2JU3hpF6Og2u4T24GKxsLsTsIxsN4Q6DqyqzxxiFIXWuzQOlis6KWVvbYZhRvF5gx2Gej4JGoyY+1sAvuOAC30GgAHzkIx/x7s8oRIyIcg2fVFqM/W5hDS/raBlNZBMpwiUOCCxmqoFG84lPfMIbvOzOSnxZc8w6JoQLmAEO5A1hYIgXgXGLYUqjp5Ng52rigkGLcYsg5FwV5An3/+xnP/ObhdV1T+5FweJe8iYUZgju0F3LSO1QSXt4DfEifjwL5YuRuFD5RdDhcpPX8XMudMchXNYL0X7iHZhjhZrRaM5RD3kusKEIwjLebRllEcODelFFXgdAWKTbMOGN4WLPjqEtQ1hu1OFQQaiTX90ocVUU5ZeVMTKOdoZ7WthBk/fMStuGJxxm9ISzBKSJcyF0XlzL7FRYnqT7jDPOGKkL3UJciBfxQ1YYVrdID+ky6GTxbGGEPezY+U4ZhB1xGU2E00tb7wfkE20nLFc7lzcjRNl9/etfT1Lmiqgjs1KwV4CELtbUhbBuFEFdZeaPuhqmlfTRH5aR2naqZAvPCe/HyGCQ1ORLGalxqANyGfkcruskzkUyvt8UyR4I+6qqfitVZpj3AtdZeOSt6RlVlD3L6kFenQXkZSgzY+J6SZhcn2f0lcH1oZFJOCntpVd6rVtmKNm9Bu2X//I8HviNzOI5NqCX55XFddxPPeAzBduEyzZWon7GdZRw0VOpw8gbg/o599xz+34fSFe3buZGnXqeQh19i7QRNhNSNvgLRf3maDIujVsMOdyNmbV797vf7StfDDN5GEAYWiiyzBJSaZjlxcijk0ZwUKHXW2+97K5XqXNtDLOsjEhyL4KSTpAd+VKUsyJYg8U6XsJ97Wtf61/1g5HGMzBezejmN4Y0Rh95RCP+wAc+4JUDa6DdgAsQDZFwmJmmE6NxEjYCAcy4ZidBDE6eT8eA67CNTHMNu5eyIyEC5dxzzy2dwSWtCAJ2aUZI3X///X5W5m1ve5uPA8ZzinsS4bAGmoZNmeDmXAeEgBkDCLdYOJbBvZQb+cW9HIDwibEOtWwHP6BO2XoeDvI83C0Pwc9osa2BYtt5BhzI+xjOUd/pTLmWcMkn6lGsdOE5wLPsuSgTlEcojLmHezkXxpFZENYiWRzLIAxTlrjXOoEwD4kvymfo8hYTdpR2H8I7XnObml9F8eqFovyijC2vSKO9OsT+pxyoh6TRIAxzqbTrMFA4F0OaOR+ukyNP6fTicu8G4kX8TCHgIH3kX1xmpJPnIh9COcl3zoUKRhlNhEMY3bb1fmH1M1T4OIdrZ9geOShDdqwPZwNRSuP11RxFShp5kCqzUiA85BPKlskZlDFed5e3hjCGeo2cQd5YfDAWw7pfRGrbKZMtDHSH96MLxLsfl5Eah1Ron+gUKLUmM8pk/CDIKyMO2hvlD1X9VqrMIP22Jt3Cw/jCYy9148yiZ9l+I8SJ/gqsznIQ53jQN4bXI4ZhEn/aax24nn7Z6kyd9tILvdYtk7uxp6L1c/THsSziN+Vm/Q51iZludIbwOlt/HPcfZVCO1mebvAv7Rw6eT7zCMrIBLga+LV5NkVrPU7B8jfWHIn0L/efCCy/sMGK5hn4Tb4iUAbtBMGG6oVfu+ymEEAUgYBHg4esQ8sDIpnNF8CJEhRBCDBco5KzPRiGva0wJUUadumUDcHUNtWGCyRfeuc+AQjcDUKI3xq1bshBCCCGEmIGt2WPWTYgmqVO38Bxk3xUMxLaCGzNvIZFhOzrIuBVCCCGEGCfgScPsGLNpRrdr9oQIaaJuYRBuueWWM60zbwukH5fhlP1BRH+QcSuEEEIIMU5gHStr6sK1oN2u2RMipKm6hesyGxS1ceaTdFa97kn0F625FUIIIYQQQgjRejRzK4QQQgghhBCi9ci4FUIIIYQQQgjRemTcCiGEEEIIIYRoPTJuhRBCCCGEEEK0Hhm3QgghhBBCCCFaj4xbIYQQQgghhBCtR8atEEIIIYQQQojWI+NWCCGEEEIIIUTrkXErhBBCCCGEEKL1yLgVQgghhBBCCNF6ZNzmcN5557l99tnHvfTSS9kZ0WZ+etcTbqG9rnC3P/xsdkYIAbSJ5b98zVC3jV1/+Dt/DCvHXXW/e+v0PHzs2ZezM73xwsuvuA2/c7ObsPMU/3njn//u5RdyTAghhBDlyLgVtcDw33rrrd3TTz+dnemeUIkLj0EYoijLPJs4DBtVyjL/h3Gvk4+ESdiEUQeuJ8wUI4NruDZWxu3ZVXE0isIx6qal27THxOlIra/xff2sf8Ncv0UxlNeWJ9/ilph/djft5I3cJXus6mZ/vbppIYQQIpVx3WtioGGo3XzzzdmZ4eHYY4/1x3jgsx9Y0itydhy80TJu5a//YkzNVJhh0880DSIfz71laqkhx39cE0McFtn7Z+5bW63QEcdPTl48u6IT8uuO6WEtt8ic7oLbHs3Ojj7Ea81jbuhIx+arTHLrHntjab7YfbuuOaOMnv/Oh/15DJlBGKCDqH+9Eg/ajEfue+IFd/P9f3ebrrxIdkYIIYQQddCQsKjFZptt5s466yw333zzZWea51OTl3AbvGNiX42aEz/xDj8rMsess2Rnxh5N5+OCc77eLTD9uPaPT2ZnZob/uIZrDYwVDBeM7w+tsFB2dgZHbvZWt9Jic2e/XuW2h551877hde6wTZdz19zzpDfOemXhuWd1f/j6mm7Ptd+UnemOH+/8ro50fHXjZX16y/Llx795xL15oTf4MgHq3eEfXd4bMtfd95Q/1yTjoX4LIYQQQsTIuBVDBwo5bnmiN5rORwy4j6y0sDvxmgdyjU3O8d92q78xOzOD51/+t/vzE/9wb500Z3amHDOGMSDXWHp+fw5jdxjAQF4xMsbnnPW13nD9w9TnszOdkB5mTElPaGwuvdAcbtU3zTtUM9NCCCGEEG1m3Bq3uPwuv/zy7uqrr3Ybb7yxW3jhhWdyA37qqae82zL/5f1vcN6u4UhxczaX6Pg+Dr4feeSR/uB7vMa16nn8z3Hfffe5tddee+S6vE2yWEMbhlW1kVa85pZnbLXVVv4zjFcc5zpgDDz41IszGUO4fbK+sWzNorlf2jV8n/rMzOmJ1ySaS+Sv/vS0f0a8jtLWf9qR594ZP5uDcLkXl9y7H33erf/tm/x5zvWbonwM4RrSneoOuvbyC7q/Pf/PXGOT2Un4ryXn9Z8GBuGayy1QaBTH4Jr5p+nG8AeWXWDkXvIxJX5lWPkQlmHpj8usSczVdLmFO8vBBh8oo7y0WdziukLdI55hHbRrLe5h/U6tf5yzPCCfUsqK59k9HHG7IY55a5KtLfO/ff/8WXe5S3/3uJtzj8tK77FnpZZTUbsMidNRlP44DuTxcy/9O/u3kzA/OfJkRgjXs4yA9mXlVHZPVbry8t7qidUNg2tTy1wIIYQYZsatcbvXXnu5u+++26211lru4osvdo899pg/Z5x++un+94knnuj/u/76692UKVO8cWdgBGIMTp061T3wwHTFffp1hIWxXGbgYvTtuuuubosttvD32H2w6qqr+t/77befP/hubsB1nnfTTTe5H/3oR+7SSy/115HWhx56yB188MEjxitpOeecc/x/XEOYK664ov+vDk888YSbPHmyW2ONNUbCWXzxxd3hhx9eaigXsfe5v/czfVv916LZmRnKF4rfmZ96Z+GaRZS4t3/12pF1jRysjdzptNv9/1VgUP3v1X9xf/nGOu6JY9fz7rKmDGKA8EzCvPzzq3nlM1Q87dkYYvbs2778fjf3bK/1LqKPHvNBt/wic/p7+Y9z/SYvH3tl5cXn9mtMUaJD5Zjv5Ad5v8g8s2ZnXwXXXcDIqjJKcO99y0Jv8DObwPpDjEOMxCYhzuHmPWGZ1SFlnSSu2nn5UjbwgPHLbG/sln3PYzNmiMMZ33BAIKaq/j053ZiibRF//qOeMxP9yR/c3lHGMcSJ2WprFxzUja1P/m0tI4l2Rnv79tYreDd6wrP2Z3z32gfcAT+527dNnkM6MIbDNphHWbsEa98MvJBHdg3Xc19oGMYyiIPyOeiCe7IrZmBhVsmMGMqEuOEhYeUUur+HEA5tKZR13HvIlHtHBi5oq7G7vHlRxO2JukSaGUwSQggh2ozckgtYYYUV3KGHHjqytnTppZd2G220kbvxxhtHDLY77rjD3XLLLW6XXXZxs802mz+HcYpRitFYZNg9+eSTbtq0aW6llVbKzsy4j6OMOs+bMGGC22OPPUauIx2kh/sJBzBCud/SyLXbbbfdyD11OOGEE0biz/0Y7jzr4Ycf9ufKQHENZx9QslkbaYoWyiIGUbhmE8U/XrNIOCjX4ZpKrkdpTgElf7/139LhOkrYPINn2XnCJC5m4HGgePPs0GhAOd/xvfkbJvWDqnzMgzSxNrPO+kzSHuY7WD7lGVdAHIgL92KUEL88I5e8RHEnjy0+eUp6E5iiHxqldcsMIw5jjrIvMkSqIA7EJQ/yM5wpt/whH8MZ33hAoC60kbBt0YZiAyiGMqW+h/WGeE2b/vlowzOAGObf32GlkWfhrl61njylXVJvyf9r9n5PRzs5ZvO3eZdx2hQQFvU1zCcgn0hziLWFMpnRC2FcQllHujC8bdM30oPBSn2xZ1KP5p/jdW7Zhedwjz4zo4yowwyglA3OCCGEEG1Bxm0Bq6yyiltsscWyXzNYcskl/ezniy++6H9fd9113uDF8A2Jr4tZYIEFvPF50EEH1XLdrfO80Gg1eO7EiRP9tcB9uD6Hs9HdsNBCC3UY6jD//DPWSuLaXYVXiE+eMWOEwvqFH9/VMfNjs1KxErnIdOUNo4eZrDIFLXYHLYKwCDME5RnlOJxFAmbczChJmbkbBFX52BR5a0WL8ikGI4M4EleM3Ng9Ns9IzlPSm8DWym77vVs7ZuhSsdkzwsAY6hbuJy55WF7bbC117e//+Jeva7QJMz6ZQWUGOjQ0U2FWOR6UsFlmM4DKIB9sQIWZzXsefT7pvjrEs4qks8ylG1LaZdGMJeFjkNqsucmgvMGbePY9RWb0Qllc4oEg0h4+k7ht9e5F/bpxa78MRDAgkedZIIQQQrQNGbddwiwp7sG2LjY8dtttt+yqfDA6TzvtNO+6y7pf7ilzY4ZenlcEOx/j1sz9hFO13rbfoFAyOwNfvfiP/hNQlFGYUZxNieawdYT+mukKGjNcvRAbGSjNKM/xjCgHhplhivywKIdF+dgUhM+Mkc0QcVw93QiIBx/KwMjF9ZK8xTgyULgpx7isuY71mNcFs8W9QjqYscYQseflzSbnwXW4mTJ7ljLrjVdAnsFXtAmVQbgYWWbYY7RgmDBzyUwtv0dr5o1yZ00ngyjm0mtutcNAVbu09p0CYVGGVaTKjF5IjQtg7AIzttQTXq+FUUxdMcO911l/IYQQYpiQcdsluN5OmjRpZF1sfFS9Lof7jz76aH8tLr2smy2bQe31eSEY1QYzvNxva3J33HHHrjeCagJmUFhHFr5PFeWU952iOKNAxweGls3iNgmGBbNDNiMaH+byS/yY/WoKZpox8IpcO1Nm6fLysUnCGSIU+W6U49i11Iw0DMY4r23NqF3bJDabbOs449nkGP7nOq4P3UKLCD0MQswQqipL6gMzkJQjRi6GiRm91AVzWTZDZhAQd3P5LXN9b7pt1KHq2da+U0hNR6rM6IU6eWreCbQb6gmv16KdUlfmn+N1fgaYOkVdKquDQgghRFuQcdsDuPUy49qrMcgMKkYra2DLqPO8vOvuvfde9/jjj4+4DIdgGLMml7XArAkeTXgXKK6YKM8o0RgHE6afN1e7PEIlLqYXgwhXQpvhKCIlfnWIXQtD6szSxfnYJGY8n3DNA96AxsjrVjk2t06Ub4z6PHdLe15VWfQCCj6GdZmrKwYm6cWw5foUiHueW3WK2yxYfbj6nr95l2QzYjF6yY+r7v5brmvtaECdjT0o8mat865rmpR2WdS+KSfKy/K1KCy7LiRFZvRCWbriNmSDINTpH9zw8IgRi7zE0L1wumykTuW1OSGEEKKNjGvjdvbZZ/ezmKxl7QZeswPxrsAYlmVuxrw25/LLL89+zdg9mesxXo08Q7bO83jF0amnnpr9mvHM/fffv2PN7plnntkR/u233+7XArM2dzRB+cJYMjdUM2yYLQsVSRTLwy6913/aPcwihq6lXM+5brGdhuOdYwnX4kL82JWZ+IXPxhA67Vcz1jeXGd8xZeklHoRj738tI87HPAgz79UgKZA3KNkYXmWzhij5hB8r++FuzjybvMMYL5oBRgFHcbeZyirIO9xBwzwMIT6HX3pf9utVQ6VsJhWDgjhW5T9pCV/Dwkwehuz3rn/Q/+ZZNvNZZSRTHzCyptzxuHdJ5jfY7NuFtz9WaSDXqX8pkD/kU2jEkVZ26w2xNcPh+u+868BmqG0dca+ktEsGgMiXNY+5oaN+Wt20Xb6L2iTlSfsKSZEZvVCWLtaPH7zRMh3rfWk3zNDe/7dX1+lSftQ76s6SC3R6XeBBRF9DnyGEEEK0jXFt3NquvraOlfe01sHWzgLGqK2BZefiqlfqHHXUUSPXs+6WeDCDa5ghy3/2ztg6z2MmOLyGV/XsvvvuHa87YhbX1vxaOLz6KNW9uZ+Yy6opxRhpzJbZ+x85eB8m71Q1QwRlzVxL7RqUec51C4rkbw58n//O8yxclMrQwOHZ9ioOu2bdY29071xiHv+/GZq2Fq/K9bUovTynzs7GcT42CXmD0YXSz/cyMBRYI21p4WA2ibzlXpvFJH1FaTNDibwPjYawvO2oyl/jjBsfHrmH/MVgC3fWzcPexRo+jyN+p2gIxsbP91p9pH6kPsvAeL3xz093GLHkG8YuM6O4qpZRt/6lwCZab55uGFq5YqxfuPu7/WCHwXNt/XfZdUBdpXxZ/1yWl3VIaZe0J+pxWD/DummQf8zsh20SOBfCPSkyoxfy0kW+sVsy8Qyh3bBsgIGQ0IjF0KXuzDP7a5PliRBCCDHsTJiGH6oYU5iRHhqyQox3MO6ZoWPWC+NACCGEEEKMLbTmVggxLtArT4QQQgghxjYyboUQ44Jud3UWQgghhBDtQMatEGLMwrpN1m+yJpF1lGfvvIrWFwohhBBCjFG05lYIIYQQQgghROvRzK0QQgghhBBCiNYj41YIIYQQQgghROuRcSuEEEIIIYQQovXIuBVCCCGEEEII0Xpk3AohhBBCCCGEaD0yboUQQgghhBBCtB4Zt0IIIYQQQgghWo+MWyGEEEIIIYQQrWfCtOlk34UQQoiB88ILL/jjlVdeyc6MLrPMMoubY445/DFoBpkXo5lOIYQQoh/IuBVCCDFqYMg9++yz2a/hYu655x6o4TdaeTHodAohhBD9Qm7JA+bpp592W2+9tT/4Ljo577zz3MILL+w/jX/84x/u3nvvdf/5z3+yM6KtHHvssf5oG9RHtdn+gEE3rAw6bqOVF2XPpe7vs88+7qWXXsrOiBTuu+8+t9VWW/nPscZxV93v3vrla9xjz76cnRHDwu0PP+sW2usKN2HnKb6c2sZ4rVuSs80yro3bPEPKoIJR0fj/5ptvzs6KQfOvf/3LHXHEEW6NNdZwF198cXZ2uKgasKD+UI9CwYXCs/baa/vzdrzlLW9xO+64o7v++us7DHkLn+u7UZSsnodHGw3MYcLKJE92DAOUb1lHGQ8yWHriepJXp6nPcV0krG7zYlhckfMYdNxGKy+GuQxSof4VyWDRXzBEMEgGZUyZAffTu57Izow/8vKAc+see6M781PvdNNO3sjtufabsn/ay2iX9bD39SIfzdy2iCeeeML97//+rzv88MPHzejOa17zGrfooou65ZZbzk2aNCk7239Q9q677jr3uc99zt1yyy3Z2eaZd9553eTJk92aa67p3v72t7tf/vKXbvvtt3cXXHCB63XFgA3Q3Hjjje6BBx5wjz32mD8wnrtxQUS4p44s1rlWpDGImaATTjhhpJ5wrLrqqm6zzTbr6zPbTDxIIMYfpvxqELw/7PrD3/lDVHPtH590C875erfy4nNnZ5pjmMoBg3f5L1/jP9uG5MVgkHHbIu6//353yCGHjKuRaTY8+exnP+t+8YtfeEV7UDBjfOGFF7pzzjmnr7Ma73znO933vvc99+Mf/9gbtEcffbQ/z3N7Lec77rjDG+a77LKLm2222bKzzi299NL+nOie+eabz5111lne8BvL7LTTTm7ixInu9ttvz84IMZzQFmmTtE0xWBaee1b3h6+vObCZwpUWm9s9cex67kMrLJSdGX+MlzwY7XSOl75+rCHjVoghYcKECe69732vW3HFFf2s2VNPPZX90x0PPfSQN0wWWGCB7IwQ9Zh99tnd4osvnv0SQgghhBhuWmfc7r///n5tIgffB4m5ebLe7J577vEzbbiTEpfPfOYz7s4778yunAEbIf3f//2fdzu1a/70pz9l/77KP//5T3fppZf6/3G/Za3b5ptv7t1icU2152688cb++tNPP90tueSSHeuLuOYHP/iB+/CHP+zvX3fddf2ziUMZGECsaeV67ltllVXcN77xDff3v/89uyIfXPG4/le/+pWfdeQ+W5Pw73//211yySU+DVxD+o888kj35JNP+v+BdDGzSJrJG64hXdwbY88yNw5cJCkD8oSNpnbeeeeOvHjkkUfcl7/8ZR8nwv74xz/uZ37jDalI+1e+8hX/bIvnD3/4Q/8c8pf4APnO/4NYc0H6mTWeZ5553JxzzpmdnRlzbSlziVxppZXc448/7q666qrsTDEWHunkCPPT8nu33XYbqXvxmksj9Vq7zp6Xl7fxNSluztyD6y5tkevjsPlu4cX/GXnPjduR5Vd4v7moUn+4L8zDsvwNsXvtIB533XWXjwP185prrhmpr3lxb5oXX3zRt5MqA3evvfbqGNk2mRWmpU58n3nmGV+HbrvttuzMcGHlhFzj4HtcpnFdKyrztsBgW1EdtjZjMjqEfChLe9H/hEWYhG3E7SO8Lw6HT35zT1gWcZhGXF5nnHGGr8NlMpb/ll9+eXf11VeP9BN513POwi3Ki/j5/K7C1rqyeZAdseso62A3/M7N7s9P/KPj2njTHguLtY3cE4ZZtZa2aM1tXvzsmhdefsXHK/yP35wH4sG57177gD/4bnEuWodZ9jwjdGklr+w6C7sMC5/nhvdavC3OdsTxq0ozEF/OxeUVl2uYBxavz591l7v70efdInv/bKb0hPHlSMk7rrE05ZVDGVXPA0uDXUO6n3upUwcM02n5t/LXf+HumZ5OPrkvLOO8dBTVgV/96emR8oivMUyOhO2R78gGdE3+szZbJisgRV7EcrYozFCmcOTJ3vFMq4xbjNlTTz3VPf/88/7g+6ANXMBIwpWU52+44YbuPe95j7vooot8ZcfYApS7Qw891B100EHuda97nfv0pz/t11ceeOCBI9cYDz74oPv2t7/t/2eN5+c//3k3depU/4k7IK65zOh96lOf8tfjnku6MWRf//rXe8X7q1/9ql+Ly388k9k/jNajjjrKG89F4P56ww03uA022MDf9653vct961vf8kfZfQZrRA877DD38MMP+98YZyeeeKLbc8893RJLLOHDxHD+/ve/7+NsRvOvf/1r7/KI4fXBD37QK8Y/+clPvIGeCq/MOOaYY7z7sEHekk833XST+8QnPuHjgSHNs6644orsKufTjAD57ne/6970pje5Aw44wL3vfe/z8VtwwQV9XM0NmvBIx1JLLeV/9wvqFflB3qy++upuoYV6c8PB/Xj33Xf3RkKRQgUoeuT/Flts0bHWctddd/X3EA7xYj0m64FZv8tvzsekXIsxcNJJJ/kBHZ7FRmHEMRTOfMeIow5zDeHAwQcfXGngwnHHHeddr7nXjC46A+r73Xff7c+z9vj444/v6LTi53JQFnvvvXd2RTnUu1tvvdXfZy6SVflrEA86PPLDrtt3333drLPO6t3ViS+DaXzyX2hM9gPyGZmCYYs8SYX7KCfWyFs6ul3nPaxQfqRrv/328wffrbzNsA/rGgf3UGZ5htWwQx/1ta99zct20kJ7pF5YHV5sscX8YCIDsiH8Rz5Q93t1F6ZtIpet/nNstNFG2b/F2KBweA/yPGx7sWwgfQy+2gBnEQzqcM9aa6010m45Z7BPBvKEDREtXPIt3jcjRTbl8ePfPOK+tdUKfvMgjtu+/H537i1TZ1LU/zTdUNru+7e6a/Z+j7/u+e982L15oTe4NY+5YSYj5asX/9F/WpiXf341bzQVKf9FYEC8/avXujWXW6AjfnPP9lr//3X3PeVdTe2/R4/5oDfo9j739/5/+++zH1jSH3zH9RkX6DwwfjDqdl1zxrUcPO+QKffOZBg++fw/vWG06cqL+OssPz75g9s7DM0i1v/2TSP38oyb7/+7W/d/bvR5RFic//bWK7htv3erzwejKs3Gpb973BtdVl5F5WqYWzjPXH6ROX24lldmED741IsjcaNMSYMZnNQB6kKYd1wDdcsh5XnAd8rANr/i4FkHXXBPdsXMzDHrLO6SPVb1+bHc9HTyyX3mDl+nDsB/n/N7d/hHl+8IIxVkA23dZCJtdsqUKaVttkpepIRp/Qs2AvKE6wgLOScD91VaZdwi/GPyzvWbP/zhD94Q5dlUstNOO813lr/97W99RcSYwkBhRnPTTTf1FfNLX/qSNzQxbpmZC8FtFKMOBXaPPfbwhhaGLQYjyjLG8Uc/+lEfFjDyg1Kxww47eIXxsssu84YCBjcKCGGgnDNj+dOf/rRUmdpkk018OmhQdt/73/9+95vf/MbP+lXBzC0N8tFHH/WKG+lmxhgD5pvf/KYPE8P7i1/8oh8AwFjHGGeGFEPyO9/5jm/IPJ+RctKWCorUMsss49cio1jiQnnyySf7/CQswiQfyfdll13Wlw2DIjwXY/u5557zceVariPtGINvfvObff5aXMh30oHy1jQYQhjPzDaidFGfttlmGz8YwqBGEbYOJBSMeVAmCEjKkvTkGbmUC2ljoMZgMAAwTJsGwU4dt3XAGE4YwqYYI7ypkxgNNsDAtRirrCFG6SwDhfJDH/pQh0FNG6D8yS9Tsvmf8uZZ5Ik9F8PcngvkIXFJAdfyLbfcMvs1g5T8JX4os3RS4bPXX3/93EGEfsEgg40EM+BFniOXwjXbVdhsLwq9QRpISxU2Y/uBD3zAyxZ2D1955ZX9QdsGZnPJ47/85S/+N7z88st+MBE5CHxyPZ92P/9znWH3FP3fLdRP0o9cCw060kU9oD6kEseRI5zNTkkn+UR+Ff2fAm0K2WTpoT7QhoE6zG8MWNpY2N8w2IjswYukV8hT8g9D2th2220rjWbabjgQRJ9HnGyQmfjSz5IvcfqQVb0SyhPLJ+SYDQinyKYiUMgxCAzWJ26+yiT3h6nPZ2dmgDF3wifeMWKQYCR8f4cZZYKBHMJmRKGiT/gYTSdeM12RrpitMzBwDvjJ3T4uJ05/rkH8dnzvDC8Qwg2fQ9wwSjCKUgzMEK7H8COeYZg8D+MJwzA0MoFrLe/ID+7DSL3vierXcWHk2b2W5/c9/oI3lAgLtvqvRf3mTmzyZKSmmfvO2vldI+Vlz8B4q5s3GNSkK4wb8SAN5BnhPTq9XNm+8gPLvrqEiWssjXVIeV5YXuEzyBuu64YwzJQ6QJv4+KqL+v+7YYUVVuiQGbRZdDg28AwHruqQEmbeXirIF+Qc8qLbZ481tOa2ApQ8Zk5COIeiyqwpvPa1r3XrrLOON4pwU0BxwNDFkPrYxz42suYRxfcd73iHe9vb3uZ/G1RkDOIf/ehHfmT6Ix/5iDeGoeq9hzwLg5LRGzpwU0wZHcZw+/Of/+zjUQSzqxiyzByjSNLx48KLAZrSSJg9RnEhbcDIEXGhY15kkUV8XPjE/Rf+9re/+f8ZIEBxQAG2e3HDZZQ7FeKO0vaGN7zB/2YkC+P5Zz/7mc9ny4t3v/vdvjx4NgMLjHahzJBWFG57fr/B+I4NVgxtjE/cTRFYlDsDA02uk0VAooCakUs9MQUUxYkyQ+EyQQm21pK8ahoEsQlv4LnM8lF+1DmUPmaKKJ8Q8oQ1xCi5VRD3EOoFinE8A8l15Aku8/bcPEUc9+oUCI+8M1Lzl/iRNgZrRhPbLZnRZeLDDHvdztLShiwLDZ0UcMcnDtdee633VmHgEGOOg+UH8Na3vtWX4+9//+psB/IE2RvKD8KhTLmX8Pj/yiuv9P8hNzHaSaOFz3fO1TX8Yhikies4UP54AVAfygyWEAY9wzhyYKCGVKUTucIAXt7/qcRGJcR1mLpLXKnLBnmBcoYM6hWexUAq6a1DOMgCsRwhvvQBscy19PUC3jexPJl//vn9p+2pkCKbykCpN9dKDlxHY2Np1TfN65ZeqNNzYs5ZX+tnK2NDmBnJmOUWntP9bboxgBGUAgYiBk5eWDGh+yozxMxkPv/yzMuTyuB5zE6HxpmBsR4bmQtM/x1fu8g8M/S8R5+pTmOcrrdOmtM/Y5GC2cyYqjTnlRfP6CZvLrjtUW8Yx0ZcGB7xRgva+uTfJg9gFJHyvLLy4rpuqFsHgHrdLXkyET0BucIAbzekhFkkU3t99lijVcYtCmJM3rm65BmQGJvskouLauxOl3cOQzdUam2H3VjByYMZCiorMzcYaszIskNwChZPDGs6fVx746NIscCAZW3qdttt52cQV1ttNW9c4ZqcSmjYgqUbAy0vLjyDa3BfJm9sgKAbUHJD110LF4ObWfP42cw8UG4ofCjwKBm9PD+GcPMUY8sTZvuZhQ/BwMeQwAjA9ZX1zhgUeWuPe4V6wAwPAtSMFhQnFChb/2EHgrLKJa9foPSFa0vtYOaZtSpVUCdMgTRQwEkP6QrDNJdF4LnMUPUCRnpoxKbmL/FDmQ1lyGhC22QEGcOI9fN1IP0Yicg0K8Mq98o6MNiIjGLAytobBiNGH8axwZp/ZClwnvjYbBkDKXhu4DFhrLfeeu6vf/2r/69baFO93J8HRikz2kWUpZO8YjDLBmj5n3yy/5uEOoNRb7MMNrATG5fdQtjmpkedKltqUYfRbnspsqkIjKQ597jMz36ZG2a3M19NYgaiGYx5MMuGcQcWd2bduoHnMRM37DSZ5hQY4GCgw9bKhgdGtcEM8W8OfJ8f7MCtl/9DF+JUUp/Xj/KqGyYDHGX1cxix/sX2eQgPPIPEq7TKuMVtFHc+Zvg4+M65bsFIhd/97nczzU6g5DIbgDIQb+zD2kiMyhAUYzopZuZCYy8eRYkNIGZVmbHFyGL9J8Yms70Yq3XAQOceZjviI1b0DWZ8WTfMjO0pp5ziXXFRRkMFsYoi11kMjLy4hKNS5E1sxFXNVIfEeW1wDgUufjZGXWjMMmsau4h3AwYrdQl3EWb+QqgnNpNh9S2Pueaay2+uxWwlM+4oiP0AwyN0i7NZDFv/ER9Vbs/9gPoari2Nj9DFMBUUR1sDHIdna4J5bq/rnGNS85f4NQnhFY3iWgdZ9UzyBEOpyjWyCNJGGkk7HW/RxhjdgJzCOCUdGH5s1IdxWgUDDchf2j5LNnB/RlZwsPygapasCtpXk+/jZraauFk8U12KLZ0Quixz1J35rCKsR8gvZCCyxdx+q7wR6syOUidpr2aQhl4obSVFNuWB8YGrJWsKQzfMuqTOlNWZmcRowHgoAvdQ1kGyFjN0W+6WqucNA02nOQXcgpeYf3Y/4GHGdHiEa2e5lvWsnMfgZo0sxngdUp/Xj/JqQx3oFetfbJ+H+LB9H0QL3ZIxZlFkOHoxbIGNhJgBOP/88/1osO2my4wmM3/MDORt7IPRe/nll48YZlxPGBiquBYxSm4dPuur+B8wdJilDdcMYlzhLss9NuPD9RieRTATaMY199D5UbGJsz0LiA8bPhXBc4EwzEglbfGGV3VgzQCcffbZHbNgbE6FsYLChRHBSBPuz8xKGFxf110uBCMCA59wUQrCAQjSZEoQZcO6YmakcE+OBypibOa1CGaD3/72t/v8ZvbdZm7MsGXDKxQ8Zq3LYGYXAxdjmYEOFNR+QV5heJnrna13HQaIFwMUoXtjr5BGM+iLKHouxmC3gw2p+ZsSvzrgUUH9yWvLPKPI/TrG1gYzCNYtzLhhUNEu4kHEbmEAjp3QcU1mzT3fqzZ8I93Ue2QtbY112bjpIoPsQG71unEc8iXP9djqUZ7LchkYuMQNWQVVm+6F6eQ+XLvZ2d/S2M0If17d5DfnqbsGg5csF2HDPgZFGEhLSSt1NR5YKGsz9FmsiSWd5t7bLcwsl6Wv3zTZ9nEpveaemQdo8taSmutw7JqJW2kM55jVw5U5BXNzjd1Ay2DWr5vZQih73m0PPetdqvPcVUebXtKcCoMX1Ik67sa29jV2WU8h5XlF5TUe60BdivoX0cm4XnNLp4IxAawRZbdcOmM+2YUXJYSR4Xh2EgMK90h2NmatKsoHyh8bsKAwATNP/D7zzDP9xk7MWjAziqFjhi8wK4xBiFHJDqOE94UvfCF30xyMQq4lDDamwvWPGQhmelk7ShzsWbi3MutSZiTz2iGUEWZtbbdlwuwF8g6FGOOfvCQexIfvKFgYfKQDd0BmadlMCXdhruM+c5/rhrnnntt98pOf9IorYZLfbFjFd/LClCAUInZSxhjFnY/nku+sEcQ4BeKx6KKL+u/kDfFjpicPDCLqCWVAulGWWDfNumzqwx//+EdfLijgVTDYQlisG2bTrSL3ZAQbbnlls2G4gsbuoBj4pNOUTpREvuPmEl9L3Q0FaB0lrBeFjXgRJ5RwhLiBcXDGGWd0ZSAx6MTMfbxLKvlBmUHRcxkE6dZFOzV/kTXUUWRJOBNF3Ox3HaPfZl3jda88jzxgoKVoRijE8iTeKKgMnkHaDDPqYpftMriO9heWQwwztcwK4/lSNWvLpko///nPfT4DccFbggHBXshTNGj31H/kT3geA5/ZdBswqAsyCdlVRpxO1tfiMUI5AsZtNzO3vI4qXH9t9Yg2Fa4VpdwYEKa+pA6g2FrdMHzylDYTErYFYOAGo5j+pBfyZAPxID6ku4peBwhTZFMe5lIZKvPsdMyrYGJQ7NngCeMBMDxYX8nazjWW7sw/XEpDA4PZO85h8NgGQVUwO8cuzvEuy8xenvarh7whwkxwaEh/7/oH/S7BMSnGUtnz2LH44I2W6XrjoKaok+YmYWMriHeCpoytnK1cDBskCWf1U43klOdRXmykRXmFdS01P/IM2TbUAehVXvAqM4h3XEdmlvWX441xbdyiKOKKhuKKOxUzmcz6oQhgPDLinacAUjlxH2bmF0UBwxSDFIMYBRT45BU57ObImkoMFRQh7gsVFGbpUKYxslj3ytpQjGJbQxWCcYShRsMgPHtnLjPLGDm4AZIGlAKUC1zZUEyLsJ3ZMNZRRlEUDjnkkJ42tWHNMGkkXDba4pVCxJVn4P5sxiuKN7spc578xxBCEU9xLSyD1zJh5PN6IQYgiAdKAmuJmV0Fyh3jk5kFrmOWAUHBu4vNbZprcBWj/Lj/3HPPLZ3BtTKg3lAvUOYpH+oV6UPRJT+q4BrWQKOcUiZ4D/QCdStcl4E7Jx4PoWsvz2JWHcM+vJZ6bkoxmBJGGEXvijTqXJsH8cNwCdeq0n4YkEk1kEK4h4Eb0sraXQvTDD2D59Kmw+dCNwaBkZq/tF8G2cgzuwZPBquTZmhamVatY80Lj7RzniMVyi82PqqwdZEclBvGZJ1nIidoexhq5k5ruyUbhPnGN77RD2rxPYY2S9lyL69UYtd0vgPhI0uReRY+R6rbr2GKRrgTeVFdY+aaPiUs8zKIB/EJ40d8476hLJ1sdMgggbk1Uy4MotYFWYjMpiytHpE+0hm3R/IE+ckMbrgMpQjyg3TSB1j4KH60/xAGQ8O6TH9BnUgZpCmD+NPv0a9aeVkfTLqr4H4bwOLesgHHPFJlUwyKOrvAoszbukY2Ospbc7vBOya6T05e3K/P5TrWVfKKHtxQY4P13M+u4o0DCxNXWlyf6+6cy/X2GhYLa91jb3TvXGIeb4iwGzBu1fYf5K0/NWMp792tIXnPs1fN9OK23RR10twkPJf1tGDlz0EZhwMb+5z7h5H/7HU6Yb6llkPq8wjb3J/tGkjJD55hxrGFDcNeB6BXeYG8pB8Bk5cc6LPhQON4Z8K0Kp9MMQKKHYoBnXATnaoQQox3zI2/Lhh/GAV4O2CMhLDOlIEhDFgbUOuWPMO5X9TNi2FMJwY+g3kMZmCwtRXr75mJDgcD2waKP7NjZ++8SunMK8YK7zpl9quuISuEEMPEuJ65FUII0U5sfT6zk2J4YL8D6MUDaBiwNbfM6AohhGgPMm6FEEKMGkU7rheB14y52O6xxx49z1iWUTduvTLo5xlNPZdZ2zobSQ0DxBnXwNDlnnO4BeOK3ebZZyGEGI/IuBVCCDFqxO8Mr8J2D2YddNFry3BTxjjp1fCtG7deqfu8YUknxiBrjlkzimHbJjde1r7jDh6uX7N01FknLoQQYjjQmlshhBCjCpsFcVS9dmtQMJOJwTdo4xYGmRejmU4hhBCiH8i4FUIIIYQQQgjReuSWLIQQQgghhBCi9ci4FUIIIYQQQgjRemTcCiGEEEIIIYRoPTJuhRBCCCGEEEK0Hhm3QgghhBBCCCFaj4xbIYQQQgghhBCtR8atEEIIIYQQQojWI+NWCCGEEEIIIUTrkXErhBBCCCGEEKL1yLgVQgghhBBCCNF6ZNwKIYQQQgghhGg9Mm7FQLnvvvvc2muv7W6++ebsjBBCCCGEEEL0jozbDDO69tlnH/fSSy9lZ4UQQgghhBBCtAEZtxm33367W2ihhdyDDz7oHn744eysyOPpp592W2+9tWZfhRBCCCGEEEODjNvpMFN74403ut12280tscQS3tAVQgghhBBCCNEeZNxO54477nAPPfSQW3HFFd3qq6/uDV25JgshhBBCCCFEe5BxO53rrrvOrbrqqm6++eZzK620krvlllu8wRty7LHHuoUXXnimg3W6rNc1V93zzjsvu2MGGMms4+V+g2s4d+edd/r7LQwjflaV+2/oJkzY4b1xfMDiFF4Xxs/gHAfhcg3POOyww9zyyy/vrr76arfxxht33JsXrtYwCyGEEEIIIQbBuDduMQwx3tZYYw3/e7HFFnOrrLKKN3hD9tprL/fYY4+NHNdff71bYYUV3O677+6WXnrp7Kp0WNt7/vnnu0svvdRdddVVPgwzDqdOneoeeOAB/5yLL77YG5Ep61tPOeUU/2lx5F5crUMDFyN6gw02cJMmTRq57u677/bh5xmiN910k7v11lv9dWeddZY78MAD/fVrrbWWD5/z5A0wIMDMdxguM+InnHCC/18IIYQQQggh+sW4N27vvfde/7nMMsv4z9lmm80baBh7GL55YACedNJJbqONNnKbbbZZdrYeTzzxhNtmm2388wyMQ2aNd9lll5HzzCjvt99+7pxzzqmcAWVGNYwP92JYcq+l5aKLLvLxNoMUmLE+9NBDc2esJ0yY4LbccsvsVzk8L3w+4W6xxRbeWNfsrRBCCCGEEKKfjGvjFoMLw89ckg1ckx9//PERwzcGg5EZyZ122ik7U5+JEye6BRZYIPs1A2aLMTzjmeAll1zSP+/FF1/MzuRjs88hiy++uE/Lk08+OdMsdUjRjDX3zz777NmvNEK3amaOU+IuhBBCCCGEEL0wro1bXvnDbOWRRx7ZsU508uTJ7q677sqdLcU45HpmPkODuC6x0chzmOGM48KBgdgEGLgYunXAfTmcXS7D1vuCuSbLJVkIIYQQQggxCMa1ccsrf5hBZW2oGWOhUYbhG77zlplPZiVxE2a2NwRDFYO1WzAgMSQJO44LB+tduzWmbZaYg+/9gLW8xx9/vF+HG7o8CyGEEEIIIcQgGLfGLTOlvPIndkk22MEYQzB85+2pp57qP8vckdkIKsRmh1PA/bhsrW8VsUsxcM5mic0Az7vO4pnnstwtlsdCCCGEEEII0W/GrXHLxkmnn356oTGHwYvha++8rXJHto2ouIZrgfvYeAoX5xQwqOHwww/39xqEZ2GWET4bcBPmHJs6ET8ONquaMmXKyOt7AGP6oIMO8ut94xnpPPKMZJsVDs9dcsklPo/LIL64MqekTwghhBBCCCGKGLfGLUYYr7OxXZLzwPDFOON1Pfvvv78/Z+92tSN8Ry07BeNWbNfwyp0ddtjBbb/99v7/KjCaTzvtNP+dWVx7Bmt/V1xxRX++jLPPPttfa/fhJswri0KDlc2qMHrNqORgl2UM4FR3Yoxkrrf1wRjKxJ0dlzGcLVzQmlshhBBCCCHEIJgwbTrZd9FSmHndddddvXGaMvMqhBBCCCGEEGONcb2hlBBCCCGEEEKIsYGMWyGEEEIIIYQQrUfGrRBCCCGEEEKI1qM1t0IIIYQQQgghWo9mboUQQgghhBBCtB4Zt0IIIYQQQgghWo+MWyGEEEIIIYQQrUfGrRBCCCGEEEKI1iPjVgghhBBCCCFE65FxK4QQQgghhBCi9ci4FUIIIYQQQgjRemTcCiGEEEIIIYRoPTJuhRBCCCGEEEK0Hhm3QgghhBBCCCFaj4xbIYQQQgghhBCtR8atEEIIIYQQQojWI+NWCCGEEEIIIUTrkXErhBBCCCGEEKL1yLgVQgghhBBCCNF6ZNwKIYQQQgghhGg9Mm6FEEIIIYQQQrQeGbdCCCGEEEIIIVqPjFshhBBCCCGEEK1Hxq0QQgghhBBCiNYj41YIIYQQQgghROuRcSuEEEIIIYQQovXIuBVCCCGEEEII0Xpk3AohhBBCCCGEaD0yboUQQgghhBBCtB4Zt0IIIYQQQgghWs+EadPJvo8pXnjhBX+88sor2Zn+Mssss7g55pjDH0IIIYQQQgghBsuozdwee+yx/ugHGLXPPvvswAxb4Fk8k2cPkqefftptvfXW7rzzzsvOiNGmn3U7j0E/rxdUX+th+XXzzTdnZ4q577773Nprr5107WhCPLfaaiv/2RR18qltDFObQc4svPDCPj7333+/2rJIQnK/nLEsv4alX3rppZfcPvvs4+UXn48++qjq5BimUeOWykvFKTsGUcEHbWCGjOazDRQQGi+NWdRDeSdGk7YYqHmgJKAsoKiNRYYpfXXj0oRxgWycOnWqe+CBB9xZZ53l5p133uyf4cSUWdpTkwMpov20Wc52yzDJr7p6Vq/yi+ccfPDBbtKkSe6xxx5zRx99tJt11lmzf8VYpFHjdtVVV/UVx4799tvPbb/99r4ztHNc028GOWMbM5rPHi1M8KR2FAg2DiHGM+OhHfQjjSg4GoDqnTpym2u5bvXVV3ezzTZbdna4efjhh92DDz7oFlpoIXf77bdnZ0W/GQ9yrReUP83AAEWqBxCy4JZbbnFrrLFGdmZ4aEN9qJPXw4I2lBqD7LXXXn5kqi1KyDChvBOjydJLL+2uuuqqgQwCNs1mm23mZ/Tmm2++7MzYYpjSVzcuXMf13DdewKBdbbXV3JZbbuluvPFGDYaIEdosZ7tlmORXXT1rPMov0RsyboUQQggxZmCm+ZxzzvEzNSuttJKfwWX2RgghxNhn1I1bW/tga3LzfOrja9rokha6gOGCQDpCV4TUNNq9dtx0003ZP6/CNeH95sZ35513+mdwhO4F/B+GmVcGFv/4Op61/PLLu6uvvtptvPHG/nyYrhDSzv9HHnmkP/hOmFdeeeVMcTLCtFg6HnnkkY648J34xaSkKybOO4jDif8vIqVMLU/CI89NML6uKL+AZ/Asrrvuuuv897hMLLzwWXaf5VNemcfhWJkU1S2uD+/Pq69VhOmxIy8e4f95dSKOq11LHsTP4HtYVmH7jZ9l+WXkxTcMz/I+bgc8w+pMWC5G1XOLqHtfXhuweMX3cq2VBf9ZOsrSGBLWj7z/QywOu+22mzv99NPdkksuOVN9gzC9ef+DhWXXxenNI0wf8Mlv0hqmw8KyPLAjLlPC49pUeRYSx8UI0x6GZXHlfyC+qXKbe+xa8p5rLZw88up/GLblfZwfXBOniWu7cYe79957/ecyyyzjFltsMbfEEku4iy66yJ8LIR0pZWD5R5zjPI7zIi/9Zfll2DPi+yy8vPLhHP9Z3bX8QsZZHAgjjD/3cD6vTOy5YZhAGJyL8ykMw+p7VZsvS09R3TA4n9em8+6z+NgRxiW+vqh8854Fdr9dR3rOOOOM3PQaFp+q/El5fngNB7+r4Jo4D+K6wmHlUhUPruPIy4uw7uTBffF1Vi8sHA6Li5UPcbLrJk+e7K655hr/ybVFeUAYXHPXXXeNyLqwnsTYs8J4hGFzb5wfFqc4TVxbVCdS6kNYBnn/l5FXLkV1NH6OpbduXg8To2rcUqAnnXSSu/TSS/163Isvvth3nmHF4zsZesQRR/hrWL8LLA4PK1FbOOWUU/xoMmnBNQNS0miVzDb04Lq7777bnXbaaV7pqIKR6/PPP9/nNe44uOUADZ8RbsIizOuvv94df/zxHZWXRoI7SLimmut47RFp4N611lrLlx//Wbpi7H7WYnPwHVeTd73rXW7ixIkzrYviuVOmTHFbbLHFiPsK6fja177mTjzxRH8/ebH44ou7XXfdtaPBpqQrBa4Pw+F5K664YvZvMRhxP/rRj0bqNvc/9NBDM5UpxqeFzXHCCSe4/fffv0NwEgeEsuUvx7777pv92wlh8gyeRbjUNdbJUcfC/OF/4PmGrVFjpgOoJ5SlPZM8pDziPMyrW73WV4M477jjjv57GA71Bew5YRlxUNeos2E+AkbRD37wg5FyoR6S3zvssIOvZxY++UNZxNB+wZ5jMivMkzvuuMPnuV0Th1fUDsrcxVKem0c37YA6w/qkcKbrqaee8spB6N5J2VCv8tYxVaXxiSee8DLPZKG148MPP3wk/BhzJSQfbS+HUJYB7QQIk2OjjTZyBx10UEfdb7pP4ZmWDvKXvNtzzz19vludzWvXkCrPUqCsKVviQFgcpD+POnKbdmTXkg6uLXIPJH0bbLDByMYtHNxLntNOyV+MzVVWWaVD9nAeWYFsMMMU6BMwTLmnDoRNHaS+0XfkyUCjThlUtUPSQT0K0095VL0ikHwr6mO74bjjjnO77LKLDycsq271D0B2co/lE/EL+4NUuVZWHgxAUDdS+tgyCJv2ltIWQrqRHxykZ++9986uyCclf1Ke35RuA8hhZJXVFeozevnOO+88IruK4gEpek4KhFvWz4dQf3BpJt1rrrnmSBkXySTqLNessMIKI7KOssiDsmUgz3QBDstf8h0YMIv11RdffNGnO+43QzkUU1YfyLs6ek1MnTpaVp/q5vUwMarGLZ3lAQccMGK4INBQWqzTo4DJdAreKiPX0hCpRCiRbYOGEzas1DTySeMJ84tGcOihh/pGWwVCbJttthm5F2ggdE40fmt8KIq77767jxMCh/gxAIFwC5Ufrlt//fWzX73BsxEm9kwD4YEQQZgYpINGb/ElPeQJoOhCSrpSQdBSLuHztttuu458zGPChAlujz32mKmswjLlvzCOwEgbacaYANKCoEEoh/WGvA+VeqCszLBFAbFwMVYff/zxEaWR6zBSqHMolPyGWJE0ZcvgedQDU36MvLrVa301Tj31VK9oHnLIIR3hbLvttv67PSdML6BwoiTFszU8m7ZlYW2yySb+k7V5llbCoT7mKV+031Cwcw8Kf1ivOBdeY+GFeV2XlOfGdNsO8jpvZDL38bozOnIIZ8e6gfhbnlMe5FGsHNSFOh3mE+Ub133S3mSfEoZlbYS8D+uZteswTyFFnqVAXaWsTz755A65QDsJ20W/ob3FfQXPD2UfaYyNG8qcukX/T3sGk1Nca/mYAmESdjjoEsvAkDplUNUOTckNn015lPWVpLPJPpb0fOhDH+qoB0a3+gcgOynHUJYQ527WM9MeIMxfK7e65Z0HZYD8DwdFUtpCqvwIZRdwD/f2StXzm9RtDO61umI6OG1xp5128ucgjoeRouekUNXPD4KwbMMyIG8wEsl38p94UfZhvSdf5plnHt8Xmu6WJ4dSqavXhNSpo/2oT8PCqBq3ZHxYcFRqRjxNCbSZJFNAjQUWWMArCtYJpnDbbbe5lVdeeeSgAb788sv+v2eeecYXOtdQeewafoegOIRhxP+ngCtdSGoai0aA7LoquIZrQ1C08kZJETIIsieffNLHD0HVTQOtQ5EBhsIbpjnusGD22Wf3cTajKyVdqVBejGTWHRUtK6u43iJgzH0E5YPZC7uGtHBPigGBMMsTiDZTYmGaIkmZUvf4DeQf7S9ULCgHFD9zVyEvYiMtr26l1leEZ+wCxPMIP0XZKXoO18cKNMT1x+ITt8si8tpBUb1iRNTShFwh/80wrEud5xrdtgPykjy19kT+3XPPPV7RRlZaGyU9hEX7qws72JqHgDH//PP7T1MOuiHOp7jNNdmnGPEzqUt5bSKPFHmWAu0gL6xBYu01r66aDCKeQNlPmzZtpA5SV5dbbjnfZk1pNEORvKiDGUyhzIyfH1KnDKraod2XN0tfRD/62KI861b/gLx8IjyuqSvXTMbEBgKY4dsLpJ+ZZvrEOqTID8oqL39T+5Ayqp7fpG4DsRw2HZzwUuR6HT2niJR+fhBYW4j7JYgHfCmnsN4jV9Zbbz0vw0zGUBbIOOvX6kAYdfSakDp1tOn6NEwM9YZSKDmhn7cdZgCk8pe//MWPjF5wwQXeIOXAxSJ8z9Vzzz3nXeJw9+R/vmPMoswB56hsdn/8fypxhUtJI8Ifg6IX8oQVHTcdABU+fLa5xoApmt000DrEykeZoKkiJV2pMNplrmeEYYZXEyCcMOxwAaIu4e6BawgeDQZpSeloMDo5whE4wwSiKRKmSCLQmKnld55iinFGHnKvubbkjU7H8atTX4krrjgWPoftoohgRcDGbcZool30AwZCqCtgaaqrZDVBL+2AemAdKErn3HPP7esLMpA2St5Tn0ZbIalLU33KMGHtIB6YGjTWXlNA3pvssbpEnUPe24CbGTt1PAMsLMqSMrXypQ3QFmz2pV+Q/8gvZjStjlUNjDbdx2KwFIXVjf7RLyhvlHDKGooU+m4gHFwoKW/SU2etYhmD0oeKaFK3GRaq+vlBQdni9ZCCySRkFPWKwV9kV9hvItu6WVLRq15Tp46OxfpkDLVxS+GEft7xEboOVEED+v3vf5/9ygdXpKWWWsp/R9jPNddcIwLRZmuNt73tbX5UpleBmZJGOkwUl6ahQsfvIbaD0W/cE4gfnWW/IY2hK2g3goH02GdVuupAR8m9tp6EtSG9lLsJcXPFYb1KUZwsTVVgdGJAIZTIwxiegyKBYmeKJHmOcUI+xYokYaAYUC/rtDNoqr7aCHAR/WoX3UA8iS/5a27koYthv7Dn5tFLO6Ddo3BQL1A6zYil3tDxks5uB59Gkyb7lH6T2vaHpR1UtdcQizOyiLqEJwmyx4xeFLRujB2btbC1deFBmQN9SyqpZRC3Q9o+z7SBUVuvl0dVH9vP8h3N9sBgGQPaRYOredTRR5BvyDnkH/0faennwMYgaFq36SepxmodudFP6tQt89BARtngL7ILGYZ78l//+teuB38HKc/bVJ/qMtTGLZUen/46nVEeGKxHHXWU38ymjksxs7l///vf/XdmaEOX5U033bSRKfvUNFIJzfALoWF1O8JqBo+NnObRVBmkYIYVmxTg74+xGwuGvPiaQmPCNCVd3YCShTt76E5XRFFZYTAgRIuIy7NOWui8iwxc8pYO5NZbbx1RJIHwuZbzVYqkKSApNFFfww6kiKLn2AxOUzMBRl5cOEc8i2bXLS690M1z69SdGDpqFE/qhY1KA3UXo5bz3YxKjzaDlGcppMizFIrawSApa6+WptB44TuDhRhWeJLQTk2xu/zyy/0gSpWxE0O5IudMvoWgqOWtEa1TBnXbIfIHmUxawmeGpNbJOIw68riI0WwPlDXKP+XBQCp5GLtH5sHsms1OGcSfDe/y4DlMXFAv4vvqYv1onF9NyPgUyKO8+jpaFPXxVXpOSEo/PwjK2oKlyfpBq7u0SWSVGbGkBUMXmYae1e3gby96TZ06Omz1qUmG2ril8DBwMCpDIU4hsaV1KOirwMA9++yzvVGLkYtbMe7KRVCpMGLmnXdevzb3O9/5zohRzIGLM42hV1LTaOtQwt1EiWPZiHAVNnIa74LH6CYNFogfo9DEL3SvCq+pK5yKGi7PotEyo2mL82PowHAxD/OA+IfrBlLSlcqZZ57ZEQYCAwFYVfYYcKTD4Nmsw0K5stEw8iEULDwnLk/yg3twXQ5HnUlH+NvAwGUWNzZwLW9/+ctfjiiSQB6T14zShYqkdUyhgCQ9qYZpE/WVzoKNTVB8wvsIh3KBDTfc0Ne9eGdTFEoU53BTjCbA9TvMV9oE52wghnpBxxK2hUsuucS7/sTUMUiqnptHL+3AOm/qxRvf+MYRI9Zm1qhHKaPS/TC6eumQqfdN9SlNkCLPUihqB7H8CmlaqSxrr6QJOYYMMopkD9/Jl3AQDigvXObCcgvhOQyKlil+hB3XnTplUNUOuddkExAmCiUGe1FbIa5VfSzxRoYgS4w68riIfrSHOm0e5Z/BMupMijyxQTfql4VPPuEtExL3j3UNriKK8qtIxufRi0xsUrdpghQ9p4oyuRG2pZimB2bK2iFpCjfeAqu7yJLY6I37zTLy6kMvek2dOppan5rO60Ew1MYtoKzj2oOybv7gVAYU9CpBWAQGa5VxcsUVV/jKSaeEgOf9blZRMXZpdE3M3EJKGqmwbBRExeY/rqHiH3bYYR1rNOtA2KwPQhkI1ydR0dk91uB/RqLoQOwajC1r6IRDY6KT578qA8YMH54Zr4VhYwtGZkMDLAQXCgSn5QFhED9bpwmp6UqBDjEMA+Up3rApDwxMiyMHbu4Ix9BVlXInLbbeqag8uYd7w3VRvBu4SHByvRm4YVmgIF144YUdiiTpIK/J87Djp2zZIRABac/kvrw1t3k0VV+JBx0NQtriQXksu+yy/v+ismZElUGsqnKqCwNk1AF7Dm2CtsHzgecxu09HbdcAnVJMWTuIqXpuHr22Azps6gW7pIZti86bekTnW0WdNKZiHTLtgfBDJTaFfvQp3ZIiz1IoKmvkV1Eb4J46cjuFovbKc0LZByZ7UJpCI5bvnGMGJG82tAjzCgnlWwxhM/gU7jZapwxS2mHY9gkTHSJOewz3l/Wx/I8M6VYel9F0e6jT5kkfsgg5kzLLRXxsJ2ur5wxM8OqjcBf+F154oaO/xDiJdxLvFvKLsgjzC/JkfB69yMSidt6NbtMEKXpOClX9fB7IDzPiuD40SLslrx2SJnQhyj3EBnoZoAt1Mes355xzzqT2k1cfiso5Va9JraOp9akfed1vJkxjenKMQQUIYabV3qFlmIsy4HL8pS99yf3qV7/yv4FCpHMx4jC+9a1vucsuu8wr7LZO1xiUv/xYBEX1wAMP9EZQ3BHRoBgFD7eLF2IQ0OHQ1um06QiE6BXJs9EntQzU/vuHDarUNYiGjfHWnsdKuY0nxlMdHfqZ2yYI3YntMMM2BIPX/g8NW4jDYBMGRrxjw1b0BiPqbVzLJ4QQQoh0GMxmprtstr0NpLifCzGajLc6Oi6MW9EOrKPD/UEdhBBCCDF2YTA7b23zMIMbdLwUAnfPfuzxIEQ3qI6OUeN2lllmyb4NntF8dluhEbLuwNY2yO1LCCGEGJvg0sraPZaQtc1FcsEFF+xYz2vp6MceD0J0g+roGF1zy2YC7LQ4GrAJxhxzzJH9EkIIIYQQQggxCMakcQsYuByvvPJKdqa/MGOLUSvDVgghhBBCCCEGz5g1boUQQgghhBBCjB+0oZQQQgghhBBCiNYj41YIIYQQQgghROuRcSuEEEIIIYQQovXIuBVCCCGEEEII0Xpk3AohhBBCCCGEaD0yboUQQgghhBBCtB4Zt0IIIYQQQgghWo+MWyGEEEIIIYQQrUfGrRBCCCGEEEKI1jNh2nSy70KIHnnhhRf88corr2Rn+scss8zi5phjDn8IIYQQQggx3hnKmdvzzjvP7bPPPu6ll17KzgjRO/fdd5/baqut/Gc/wKh99tlnB2LYAs/heTx30NBGt956a/f0009nZ4Qo5thjj/WHGHvcfPPNbu211+6bXBVjg7EsA0jXMOisxGPhhRce6ZuHJV5CDBq5JQvREKNhZMJoPTcExRYFF0V3GKnq5PmfwyAdKAnxEV5jjFflftjLvBukDI59UPpR/hmgG6uMhzTGDJM86mbwt1fZw/1Tp051DzzwgDvrrLPcfPPNl/0jxPijL8YtjSxPCRQipl+z9KNRBwc1YxszWs8dbVBm+jkTv8IKK7jrr7/ePfbYY/64++67veLUbX3tV10fJvpdJt0wjHESg2E8tLlhQ3neDDZAkWKscy3Xrb766m622WbLzgoxftHMrRCiZ5Zeeml31VVXuVVXXTU7M/ZgJHyvvfZyt9xyi3v44Yezs+OXsVjmlO/RRx8tBXEMQztmZmuzzTbLzow9xkMaY4ZJHpHvdWdPJXuEaA4Zt0IIkcj888/vFlpooeyXEEIIIYQYJho1bnGLYF3akUce6Q++x+sOcFkJ17ClrkvAxZTrud/AzYw1FhZW7AoTuqPZ/UXPtLiXXRPDs3hmeF/oChunNV6XR/jmdhJem7J+L7w3TJvlQZwefsdUxd/+D88ZhBfHM4wHR94zDe7j/t12282dfvrpbskllyzMnzDMsPzzsHSX1UEI41pU1nH5VT17GCHOlOGdd97p87ebMrOysmsI7x//+Ef27wzsmvB+wuawMgnzOS7bojKwe+3gGXfddZePw+TJk90111zjP/lvEOXz1FNPuQkTJrgFFlggO1NNUV23dJBHMWF+Wl7xPaVOpuatQbg8K6wX1vY5+G5wrYUXxtGuryoTu6cs/lVyCfLiDN3EKYTnhGnOi0t4f5zXHDwbUuIYQrhhOHE8q+KSB88Ir+eIn2vtNKVs8uoWbSKVOD5x/uTlZxwPrq/q1y0tef2LPSMMl+/k7SOPPNLx/LjecV34HKOorMP4ccR5H5MXN7CyD+OTl1cWfl443MtheWP3xM+COGy+X3755blpNMryPCTl+fE1YZsswu6J84DfYTlYWJy3cxxx2RCvvDrBd8Iug3vzruN8+MzwGuJoceP78ssv766++mq38cYb+2s5lwdh2rXkPdfm5amRJ0fCsON8NLgmThPXasmHGEYaNW5xB2Ft2n777ecPvptrhjWoc845x69ds3Vs3IMLR1njoFFNmTLFr38zNxsaHsrKEUcc4cNhET0cfPDBHULwiSee8NetscYaI9ctvvji7vDDDx+5jrD233//jvV1G220kf+vCBr4jjvu6L8TJveQrokTJ/pz/M95+8/CPOigg2YSeAgvqLouD+61tBF/XCb33HNPn8/27BNOOMGnL8xjvm+wwQZu0qRJI8+N1xTiHsMaDs7FcbnuuuvcKqus4hZbbLGRsrXNDAjr4osv9nGLBaRhLkTEbfvtt/f38ZvzwH0I7C222GIkfqTv+OOPLxTyUFYHIaU+AM8I66o9u6zTGFYefPBBd/7557tLL710JI9Ty4zvYTvjoE7svffe2RXl3HTTTe7WW2/191k5UPdox2HZUm677rprRz0jr4kP8bLr9t13XzfrrLN69y3KZM011xxpt/12wSPetCPiXcfdrKius6a3qH1ddNFFvn2tuOKK2RnnTjnlFP9peUG+oMyEdTI1b0OWWWYZL7duv/327IxzL774onvooYdmcsGm3RNenH5kRVWZMNh00kkn+XoYxj+sbylyKZWUOJXBs+hPwrgQhr16i/wkX8O8Jk3dUCVvquKSB/dQXhYmR15fAKllE9ctXCl32GGH7IpyitqzwbNSZX6VHK/qX/LAICM9J5544siz0Tu6kfnEoW6fWIdu614/yzklz1Oez/cU3S4V8rwbHQnoO7/2ta+N1Amup56VydMiqMPUZeJAWBxFeib5Tbtda621RtoL5/KgrOxa0sG1RTIuRb6i09H3IDsMzlOXMaDvvffe7KzzfcYSSyzh7xFimBiYW/Idd9zhlSWERKgYIdhoSChzeSAQ6GBOPvnkESFJQ0MwYbygaAGKzC677OIFF88KocGH1yG0Q6WNeJmhZmy77balCuypp57qhdwhhxziwwSu5z77jjCy/2CTTTZxvFb4ySefzM7MgHSEwojrHn/88Q4hUkSYB+QPwhIBRl7YsxmFi5VX8ptrQ4FJnA899NCOPFxppZVmigtCHWFIPvIMruWe8JnEibhRTnU7JCtfyi3MF9JHh0d9iDuhOlTVB8LmGeSN1QGevfvuu/t41e3URhsUwW222aajLqaUWVgOll9AmXBdCsxybrnlltmvGZjhtuGGG2ZnnNtpp538J8oQUAYoAnTs4bPXX3/9DmWpnzCzipJlo9umlBUpDt1A2wRLN1j7ijcHQfEPn02+UDZhnUzJ2xjqOGHdeOONI22V9j7PPPN4w9dm5ixeKIrdgPJ1wAEHjKQJwx0lOFSiUuXSIDADP0wvdY86CMhx5Dky0iAfw/qaQoq8qYpLHuRzGCZYXxDPttYpm7w6WEVVe+5G5lfJ8bow2EQ9C8uA9IbtIpWm+8SYbutev8u5iqrnWz0I9RquLdLtUgjDsjKlLlXpSEDfidFndYLriT8UydM8kJuxHgtVembTpMhX0hgPutKmeO0gZYUcAsqKthH3U0IMAwMzbhFeCJi4Iec1JAMhlycQaGiMqGEEhuAqiICyxgesjws7AGDdHFgHj5HKqG2q8DYlL6VRc50pxyjKuMfFikWsLOalo4j4XlyBuLfMbbJMSY1H7awzCDtkM3RRfIFruSYsIyAupAHFrA5WvnG5Qd4sUx1S6gNhkwfhrBlQTzD048GJMqi7K6+88siBcWTwnf/5tP/pZF5++eXsCue/c87+x1D8y1/+kv2bRl59SCmzsnLguhTIs9lnnz37NfPAiME1XGuj9JQB8bY6NhqEuyWjlCMjLrnkkuzfZkAeIhdjwxLM8DXy2mtYJ1PzNg/CDtsq9WO99dZzyy233IgsMIXa2ktdYvlPHJlBYEaAtNeRS4PA8i1vRgdoUwzepHrZFJEib6riUgbXU5fog8x9Me5beikb4lVFVXuuK/NT5HhdKIN4BqrbPqzpPjGm27qXWs558j2lnKuoen4d3S6VuM6Strw+MY+8OpEiT2OoD3lhDZI68pW2FU7E0PboC9B5ra+iDlMeTdQLIZpmIMYtDQHhVQcUSVwfGb2OOwg6r3ANlR3WcdcFgWsuSIRTtaaCBo/SUdaoTaFg5jl0NUNhHm0s/qkgDG1EnLLE0LVOysrW1reGB7Py3UD5MmI6WtBpUf/oBMP04N5UB4xW8hnX3Ntuu80fuASFMKBCvvLftdde69f3XHnlldm/zt1www1+dNfuX3fddd2ZZ57ZYQBXQT2lQzZSy6yJckBxCQ0tq3vkZfhc8po8N8z9K4z3aEJ9p6yYfaprXFQRti9AwYiVwBRS8zYPMzowrJF999xzj1dwiBsKEedQcPrpglZXLvUb6i1uzRgp1teELqqUz2mnnebrKX0P/5NXdUmRN1VxyYMyoy/beeed/SCauSAye1aXXsumqj2Ptsxvkn70iTFN1b0YK2fCHQ2a1u2GAasPcV84aOq0YWQ8sh6ZT/wxaOkL6BMYfKCviic5hBgmBmLc2uhcHXB/OPvss31nEHfijNCGa6jioxu3QQxo3EysEyaMIiXWRhGLQBjgwogiUnc7+EFQFf+YcOQ8Hlm1ssX1J68sukk/5TuaO9KiZFL/qAtxeqgj8WBLGbj5lA3sbL755iNrmXADpc6YkQPU86WWWir7NcPIwgCmjnVLapn1oxys7tk6ovgwdynKoEkIr2jGxJSPqmea6xquXU3CjB2j5rSvstH1IogT+Zqat3nYbASGNUrL3HPP7RUc2j718q9//WvfXdDqyKVBygjyjfwjX+mPwvWf5AVGJ/8z+IFBav1VahzryJuyuMTY0hkG2erIrDzq9hkxVW1rtGV+KilGXy99orXDFMrqXluhHjSt2/WL1D7K6sNoU6cNW5yR+ejBuCTTF5jRyyBEt4OwQgyCgbklIwhsBiDERoXyGslqq6020omHQptGiksOymDT0KhZU4EQoAHnESqCdSC+rOMbbcrij2HFLFKoXFMuuDpSTswkxrM3RWXbLWXli+LN6GOe+1pTkDfhTFq3MEvLpmObbrqpdymmHj/zzDPZv8WQPpuZxQUZV2RzS7ZNzHolpcyKysHabDektp2mysCgvpCvNtocYgM2VXWKdoBxwYxME7MkBjLH3L3wHiHtsYsq5OUZ57iefO1WLoHFASOfXVHNiCVMDF2UTRScfra7unKJmb5YRvdTxtrsPXmUN7iE4o1Bg5FqpMSxm7peFZciqP/dzICVlU1KfatK42jL/DoQF2bBQuI86LVPDOsQWP0vIq/udQP9euieGpJSzr3ST92uG/LqrJUFdTqVpnWkbqgrX/nOgDCyH5dk+j8zeukjkD11BmGFGCR9MW7zGjIbnNCw4l3m6KBpQLbpSYx14qGBa8YW50Ilk07+jDPOqNXZAw01nKW1zpRRxDxo4GxGgCIajpyTLlxGTQCEeUD4uDQOA2XxZw0Ps4fkewiKBcIPV/F4TZ+tDYx3HCb9Yfnkkaf0mBERD2qQh6w5y3NVj+mlM7GZtHg9E8+nrtQBA9dcijFOv/Od75S6FJMPDKywIzCG8FFHHeUNWgsDV7QmSCmzonbGutMqN9ciqDeEiYEYzzLQdiy/qX/UQ1wqw7YZttU6ihD1hfDiNYtW5xlIS5ndom4wy9bNpjBlCj7tCwObNlk0Oxob1eQf56w9puZtERYH4meGBGESH2YQ3/jGN3YMauXRi3LKs1LlkinhXGfpolzzZGy3cSJc8s2gvBmAQLYT11gecD3lg+yB1DimyJuquORBPML6RhhhvtahqG6RXs5VUdWem5D5eZS1uW4wLyY8s6z95+VBt32itTfCs+u4n+eFAyJh3YC47nVLr+UMveR5UZ9DHnSj2/UKeR6WNflMO6W95g1AFlGk/5bJ5V4GK/OgbOvofea1g+yPjV7yxWZzDcqrKfd4IXqlL8atCXbWSdj6VRoWLjQ0HlsjwsHoDwo7Qq0IRiXNwLXtyjnHrG64vgzBzggTz6rDCy+80LHGg8403sQqhv8Q/tagOUjXsssu6/8nrggmSysC8rjjjhuKNbdQFH86FpSMGFPUWK8VCjSg7MzoogwsPAyAqg7AFDvyn3pjig/1hBFDFEELj2vYOTPFNSmvDqZSVFfNCOqWKsOAWdqf//znIx0Mcf7b3/7mFl10Uf8bY5d62QSpZWZtL2xnwLluyStbDjrzUA5QD1Fqw7bJemTLx1AR4r9QGcsjLzzKl/N5dT4PU/4w7utuLlVU14H2SN1ipq9ohoplGpSPxZ38Ix+tvkBq3uZBvuKVgUIT1lXiQ7zmnHPOStlat0xiUuUS8bBdS62NFsnYXuKEImjxoJ1gTIbxYPDJ/rd4mnxKjWOqvKmKSwzxQGG1+o5ifdhhh3W15haIn3lSWTxQvDmXAnEta895dZdrU2V+HmVtrhuoS7azrMnNvDzgum77RNLKLKzJXAZIWbrCoFpIWd3rhV7Ludc8Jw08qwndrlfIc9qQlSH5TP7QXuvEpaiNM4lSJJe5hzJlUIFrux2YCqmj9xEv8pyBwVDn4zvn8OihXxFiGJkwjS3RhBA9w0BNCIZoaAS+973vdd/4xje88QCshTPlFxgYQWEJ19iG1/A/Csdll13mz1k4gKIr2o0pL7GSwSAHhgnnUY6EEGLQYBAho+LXOY5VMALxjghf9yiEaAcDW3MrxHgDFzxzJ+bA0A0NUmBDKdtNmZm50LCF0K2Z/9lsg5HcOBzRbpjdYGZOa5iEEMMIs7d4o2m2Tggx7Mi4FUKIUYYdmHHlq3JZFEKIfmJuqyGcY/CNNZuaxRRCDDsyboVoiFlmmSX7NlhG67mid3DzY90TLu1yfxNCjDbMzobrXTlYK4yBy5pNIYQYdrTmVoiGYGMydhAcNGzsMMccc2S/hBBCCCGEGJ/IuBWiQTBwOV555ZXsTP9gxhajVoatEEIIIYQQMm6FEEIIIYQQQowBtOZWCCGEEEIIIUTrkXErhBBCCCGEEKL1yLgVQgghhBBCCNF6ZNwKIYQQQgghhGg9Mm6FEEIIIYQQQrQeGbdCCCGEEEIIIVqPjFshhBBCCCGEEK1Hxq0QQgghhBBCiNYj41YIIYQQQgghROuRcSuEEEIIIYQQovXIuBVCCCGEEEII0Xpk3AohhBBCCCGEaD0yboUQQgghhBBCtB4Zt0IIIYQQQgghWo+MWyGEEEIIIYQQrUfGrRBCCCGEEEKI1iPjVgghhBBCCCFE65FxK4QQQgghhBCi9ci4FUIIIYQQQgjRemTcCiGEEEIIIYRoPTJuhRBCCCGEEEK0Hhm3QgghhBBCCCFaj4xbIYQQQgghhBCtR8atEEIIIYQQQojWI+NWCCGEEEIIIUTrkXErhBBCCCGEEKL1yLgVQgghhBBCCNF6ZNwKIYQQQgghhGg9AzVujz32WLfwwgu7rbfe2j399NPZWSGGD+oqR9sZK+kYTyAbkZHnnXdedqZ3br75Zi97OfhO2GNZDt93331uq6228p9CtJWXXnrJ7bPPPr7d8slv0Rz9kLWi3aAvhW2NPmTttdf2/WbboF6PV7nRuHFbJCyoMFOnTnUPPPCAO+uss9x8882X/SOEGAvEnUI/kVKSDp3y/vvv766//nr32GOPuVVXXTX7p30Mso6NVcZT27G02sCOHfGAX951KLR5gyPUPepgeG3Z9cDz4uur8p/nHHzwwW7SpEm+3R599NFuttlmy/4V/YJyoS5QJ4aNKkOL/+NBPdIT1728+mf1Om4bYxnpETOoqldtZCAzt1QgMm311Vcfc8IZQZAnDIrODxN5grCIOte2CYTaWFCWx0o68mhDWxpmrrvuOrfKKqu4xRZbLDszdjDlZNg65UHX2aLnDToewwTpXn755d1ee+3ljUM7GOSZY445sqtmyE6u22KLLTquO+KII9zkyZML82+//fbruH733Xf314d10eonhNdefPHF/lwZDz/8sLvlllvcGmuskZ0RY5V+t9O11lrL3X333SP1jzZw/PHHj1vZMNYYq/p5L2jNrRCiEVAiBzW7gOcHHiCbbbZZdkaMBwZZx8Yq46HtYLBiZKLQx54KSy+9tNtll138d67ZbbfdvLEZ5wf3YQRMmTIlaWZnww03dNtvv70fTDKuuuoq/7nTTjv5T4OwJbuGE8plrHsX0gYYjKH+D+MM9aCQHjED6gOyqs1eXTEyboUQQggxJmD2glkpBkLKDBS8XM455xw/A1uk1JkRwHVVRgADLrgQh7AMa/HFF3ezzz57dkaI4YB6KcRYpe/Grbn8XH311X6ENM/XH+iQiny+uT5eA8G5cP1A/L+5A8XPSl1XYNeFzwjdPokn54488kh/WByuvPLK3PNh3Hg25+2I02wuKvYMDlvPY+my83E6QveEoudY2nChuuaaa/wn/+eVS8q1eXkVxysP4pO3TimvLsTp5sjLt7L/Q+wZ1MnTTz/dLbnkkqVxsTDz8iiOW1zeRcR1OH5+Sv7Y936kI+86u4ZnW35bWfNpbSR+XniEdaMsD3gG5/LaksWjKH5hmPE1hJ/XRizsFCxudsR5nhIPI4wDx0033ZT900kcZlV8rQzIO6sboQzLIy6P8BnWzsPyA8sLPg27Ni/NvYTDPZYGvlvfsvHGG/t74zCBc3npCakqz6I4QxgnC6dM/sfEeW5hGVaOef8XPa+sH+Lge1g2pIEjflZe+dn9dg3fL7/88pnyLIa45l1jzwzLvSg+cd7kcfvtt3s3/BVXXDE7k0+q2+9KK63kHn/8cXfvvfdmZ/IhXuwrQjszCJu2d8cdd2Rn0iDt9LV33XXXSN0O8yeuM1a2IZaHVkfyrgGuycvXvHoSlz1HXEf4nfesuPwtLM4TB8Lis4iy9MTxyns+2HPsyJO1cfyJL/3FnXfe6fOJ+8I08z0MM84PIG/tXjvCtOS1037z0EMP9TzwQhpGo+7E5MkQIH5xeFaefObFs1usLO2InxunPy+dQFzCcMriZvWqSpd/6qmnOp5NvoTk5V9Veoadvhu3TPfjGoTP/wknnOD9/fNcAFgPRocUuvQAmcmoKethGIW1wuRcuIbA3HyKKn9d6IxYI2zh8yyEAWkAnsd5Rn1t7Q3uDeuss07u+TDutrEW/+EORecVN0oEHXnBNVxL3hx44IHus5/9rDv00EP9+TKXKa6lY+U6DuJtz2GEGdc+7l9zzTX9J9fklUvVteT3BhtsMLLpBQd5xXPyhF43UAd23XXXjjVR4ZqlOvlqmBsG+YIrGffxm/MGZXDSSSe5Sy+9dCRMjMgwTNJPXoRxo24Q3zJBwH880+LLsdFGG7mDDjqolgBpKh18j9edUdZF63JOOeWUkfrFDEmMxcvC4qA9IAfMRa8qD4raWNFsTJ00PPHEE74jsDQQBzr6ww8/vLLO0t6oW+SjPWfffffN/k2PR169pe2cdtpp3mAL6aaeWRmQd1Y3ilx6LS5lcpX7kImkL3wmchFC2Y3h8OCDD3rDIKapcKh3xJU6ZWUR1sXUMqZMwg23OPLWT6ZQt85Sl8I8J46hUcbziQfrP+1/YKMh0lD0vLJ+qIhu5R15vsMOO2RXNAeGx49+9KOR+JBH1BFLex6cv/HGG31/lFfPQ1D4YP755/efRSywwAJu4sSJI/WzCGQw16AkGpQP+Y+8qNMfkqfUxxVWWGGkbhMW91e10xDy8NZbb/XXFJU/7QMjn7YWguwASw/1oE4fkUpVXxKSl54U2Wj5liJrizjuuOO8Ozv38jwg3WFZWH6EOhlx2HHHHf338NnUqaL2W9ZOm4CypG2TZ1XtpIzRrjtGnv1AmVPelG84MMXg1xJLLNHoHhSkL+5D0GWM1P47pT6FUHZVujyDa7SrE088cSTMqqUWVelpA0PjlkwhUfBkeiigqZSMmppyg9FJB0JBhQKAhkrlvuiii7IzvWGdhcGziB+NJbWDiiHuCAIEpAkUnoNQo0KH4YZGgOUNIzNbbrnliOHCJxWOzjy8F6WO6wjbIC15z+kV8ps4hJ0SeYUBTlrrjljn8eSTT7pp06Z1KLikzdJXJ1/rQBkccMABI2GidMZrqkg/9Y71VoaVmwn4PMgj8szChk022cSnk/Q2SVU6yB/yCeUsrPPUL5TquE0CHVVYv6pAWBIO9cLabZN50E0auNbSQBxoY3kddQhh0NmgcIbpX3/99f2z6sTDZFlYNtZ2UGpDuq1nqaTK1XgWi/Qif2hroWysUiCaCqeKqjKmLFCYTz75ZF9GRr/kZQzKLvGzPCeO2223nf/kuTyfeIRpQM41JVtDUuUd8j6s28SNfG6aCRMmuD322GMkPtY2+pH2brCZNjtQ9PMME2Qc8iLVe6KM1HZqkIfoAmVQzvG91h6tblpdrCNfU6nTl+SlJ0U21pG1eaBTfehDH+qQEaSXdFO+Vhb8H7uxn3rqqX5Q7ZBDDul49rbbbuu/DwIMPPLZ6iptGoMlNd+LGO26Y5Cv8YApMv7ZZ5/1MoyyB4tb05vbEj75EPZTlK/Vi5Q6mlqf6kL9DvUuwsyzG0Kq0tMGhmrN7TLLLONHs1BoDBohBWFChd/WaELyKncTMJJiAoEOhEJ/8cUXs3/rEafFoMOLw43TyOgylTRlncRCCy2UO9OR95xeIJ/Jbzr1GBoFjSNUjLqFkXM6taJZzTr5Woe4DKhjzAiY8m3pR2EOBSVuPpSTzbKUwf1Wv5ihYQDDZhSaoioddAJFs2N5bRJC17sqENqMAiKk4zKCJvKgbhry2ojN4JQ9mzAIizDzqBOPIllmM0VGE/WsilS5au2adgWmQCADSDe/gTiVzZ41FU4ZKWVMWRQZz0WzEk1CO8JIyhtF57nkBQM+IakziXVJlXd5bT+lX6pLWdtoOu0pxGlk0AEDgTqKAo2ukNc/AWnhWjNymckruraM1HZqEOcqt9O8e+O6Z7/r9BGp1OlL4vRYnaySjamytoy4/EkvMgwDL4TrGLhjgNbi17QxVRcGrmw2ECMTmUO8emW0604I4YcD44S53HLL+fiZIYcuiOyIy7JXCI92nTfIl1pHU+pTNxBm3L9V6cZl6WkLQ2XcIngQQFYRrVKY8cQ5OtpBgLKBsg0IBBMK3WJxj0d7OTCa2wiNjUbXb6gXuA/R4Gz00QTzaOarpR+Xs/C5CA4EQxkYfLjsoBCFLigpo8hNg6LPyHQdKIsUKB9cHRGw4aglNJkH3aShG+iISHuRwpgajzqyrJd6lkKduJgyYzLaFAg6ZIxEfsdyO4+mwukVUyxGC2YyzP2XMg1n9ahL4ToqO5CBqa6UTWL1MLXtjwbUq9AgLyNlMAtIN0pzkfsyz2RGEJilKwP9BlkHVdfG1GmnRurAEIYBZWueFLS/cNCnn/K1Tn2K05MiG7vJtxgGyuLyR3bwDJ4VPpu4GMPYZswrpWwwpg6jWXdCeJ71HZQ5fQt9B/HDuMbItjgWDU53C+3a3H2pA+H61NT+O6U+DYqy9LSFoTJugdGeoopoHVcKNirSDSjd5nqIi0ATWNxttDc+BrHOAsoU87rUGfXMg86CTiMF8o+1BeQVgww0eAYgRjNfLf3Uk7xnF9UdBC8GH7PNZfGrkz+90M/nXHLJJX72K3QZh9Q8SGVQeUXHU0ZqPOrIsm7rWSp14gLIEMoUOWkKBGFgrNJBpyoQTYXTC1XladTNozqgSFCOGD2MptusHnUpXEcVH6GLXxtoso2W9e3Uo5QZd5RhBt2Y1SsjVtbzQH4xM5PiYmnXMnBTR2HsZx00V0XywgwD2iHPhDpl163e1Q0psrFf+YbsYMYeWRU/F1dT8rRXHSnGwivyXMCQxMuN68pAz8bgamJJy7DUHStnnk8bxBOIvsOMXvKmaAa/CcgH8pP6QDqQz8Qjtf9OqU+DpCg9bWHojFuriDfccIP3M6cTCCsiFSCvU7BGFVdcCiaEDo+Ory4Wfi8Uxb1pGCWjQw6x+NP4Tej0ig0g5CkHls9Vsy7ENR45J+7sElmEjTxa2Q4qX2PK0t8NeenuJn/qgvClQ4zrDGBg0AnmuRRVgSBkkKjIHTmPbtPWrzTEUN5linOdeBTVW64LZ+aarmd51JGrKAx01mzsYgoEEEfC4HyKAtFUOL1QVp7kd+zSFc8Ikl/EtQlIJ2ujzLWurC6NBmXGYGrdrCPPitoGbQiFuQhbB8jgWVhWMfSD6BdlLpomw2KXwjzwTEl5rkHdqzvQXFf/qQN9NWHjLYDxFG6MVVe+8ps6HNIP+ZUqG1NlbR3KZIfRtOymbCljyjqvjvGclDpAf0y/TN1uwmAZlrpDPHg+A4J4ApEPZvSyozvyu0on7RWehycHfRuyLrUOpNSn0SBOT1sYOuOWjGTUhxHQPD99OhAqQbzLGLN5VOpwEybCCTsuhAEdT5XyTGOkIMPKyAxU6EJgFAnNvPPW4OPdOrnO4tgUsdAif2g44fqtOspT3rXkMTNylBUuLgZpZn0so3kI2iJMWQrdY0yZCOEcgsngWvKLPIZe8rUXgUL6TTmK18ydeeaZM9UJg/sQtsStLN2p+QO9pIMOgNFDXCPDdPCssrWyZVhbI/6xOzKk5gEUtbGQfqQhD+oz9XrnnXf2YRvUT37XiUdevSWNYVuCbutZHVLlKpBG8uGXv/zliAIBGKfzzDOPH+1NUSCaCKdX5bGoPMln5FrocUBc6APoCwxcS/OU45Q6C3H5IV+Rs8hb8oNypy6Fcoy6csYZZ3TIujr9ULcU1UPC51wVdeQZkK+h6661IcqrrC0TT5Qx6m3e2lbia22M8g89gUK4Dpdw2izXVWH5Qx2xDa94DuGE8Jsy5VqrW6nUaad1scGl888/36fX2iPwPVWu2aBVaOSn1pG6FNVJCNtWqqytgw2ixHuBkCemrxC/Ih2J+Bl12ik6HH09ZR5iMivU8cogTyineBOyEOKU4pI6LHWnqO/gO3p/OIjaJNb/G+EgXGodTalPRdTR5VMoS09bGDrjFmh0FFSeKxAVBfdUGlC4+xsjMqzLDBuVzfCZrzuvrOGVBUz9l0EYjKAjKCx8iIUJmNAkLqEQyDtPuMQREGYWNjPUVOymwAWEXehoJPYMBAQNK1QKiA+NDqHDNXHDCym6lvD4Tvj2LNLMtQi0MihLW6tkZYlQY8v9eN3lUUcdNVP45pbXS76aQEGJoczCBp0C9ZBRQhQ0ey4HSjfxKoJ8REkpS3ed/OlHOgiLemT5XAfaCkoeR1gmHNbJp+QBFLWxmKbTUAT1mg6ZsO05vFfUZFVqPKgf7HqKUmp5hNJ62GGH+Q1AQrqtZ6nUkauAsnDhhRd2KBBcg5HK7FxqJ9hrOKHiQHy7UVbzyhPZEctL8oZ6bTKQg3jTx8Sk1lkUhjC/eW64Ey71BXe2cL0WdYX8Ie1G0fNS45EKeUB8wjxgYIFzVdSRZ0C+hrKD8qGcqvoVIP9Y7kDdCPOXg7wM6xt5jEs4eR9eR13ifB3ZgRyON5cKy44DhZ62TF7WpW47rQP3kl9xezR4Zqpcs12trfxS60g35MWLI5SNfKbK2lSKygK9a7XVVsuuKtaRll122eyKeu00LzwOZnN5bVYos8qw8kZ2ElYelBvps3wswsIa7brD/chG7IfQiOU75+aee25fL5rmhRde6Og/aOPhDvwpdTS1PuVh+R/r591SlZ42MGEaPlBDBg0bwUMnRkGLdDBqeMctQrtNFVEIIUQ7QTnGoItfUdMtNkiRYsiK5kApxkgKX1sjxifMnPJOaYymFD1cdUcME0M5c4tLAfTDfUAIIYQQzcHsCl4Y/ZgVEYOBSQVmr8PNgMT4hSVOc801V5JXoeqOGDaGzri1RsJoURMjwEIIIYToHXOHDOFcvD5ZtA+bVDAXWTG+wfPvy1/+clKbVt0Rw8bQGLcYtaw1wNccw7bOOhchhBBC9BdmZ+M1pAxGY+BqGUw7oeysHJtyKxfjA9UdMawM5ZpbIYQQQgghhBCiDkO55lYIIYQQQgghhKiDjFshhBBCCCGEEK1Hxq0QQgghhBBCiNYj41YIIYQQQgghROuRcSuEEEIIIYQQovXIuBVCCCGEEEII0Xpk3AohhBBCCCGEaD0yboUQQgghhBBCtB4Zt0IIIYQQQgghWo+MWyGEEEIIIYQQrUfG7QB4+umn3dZbb+1uvvnm7IwIue+++9zaa6+t/BFCCCGEEEJ0zbg3bs877zxveGKACiGEEEIIIYRoJ5q5bRiM5X322ce99NJL2RkhhBBCCCGEEP1m3Bu3m222mTvrrLPcfPPNl50RQgghhBBCCNE2NHMrhBBCCCGEEKL19M24PfbYY93CCy88csSbBfE/B+f539a9mlvvnXfe6TcZ4mDDIYP/w3Dz1ssWhZ1HvOaWZ2211Vb+M0xD1bpc2xRpt912c6effrpbcsklZ4o7hPHP+x8sLLsu1c2Za7jW7uMgDSEp+Wdl8Mgjj/j/i8LKex73hhB2GEbeNUXEcQ3vs2en5o0QQgghhBBibNO4cWtGx9SpU90DDzzgHnvsMXfxxRe7jTfeeCYD96abbnK33nqrvyZ0DX7wwQfd+eef7y699FJ31VVXuaWXXnok3HPOOcfdfffd/h6OVVdd1bsWx0ZiUdgpPPHEE27y5MlujTXW8PeTjsUXX9wdfvjhhYYUcSSuJ5xwgtt+++39PRZ3gzwAi/tGG23kDjrooA7jkjzi2UccccTIs+Hggw8uNeIIY8cdd/TfLd/Jp4kTJ/pzdfMPA32vvfZyJ554or/u+uuvd1OmTBkxMAmPOE2aNGkkLK6ZY445/P9AWpZffnm3xRZbdFxz/PHHz2Qox/B/GFe7L9UwFkIIIYQQQowvGjdu77jjDnfLLbe4XXbZxc0222z+HAbUfvvt542V0ECbMGGC23LLLbNfr4Jxuc0224zcD4T70EMPeWMrNFSZKV1llVXcRRddlJ2ZQVHYqWCkEm8gHhhopOvhhx/257qBPMCQNDbZZBP3+OOPu3vvvdf/Jm/II64Ln01e8mzyoIhTTz3VG+CHHHLISL6RT9tuu63/Xjf/VlhhBXfooYeOXIuRjjF+4403+ni++OKLPjwGAAyuWX/99f13Swv5GKaZazDcMZTzZq2B8/yPcR0+f/fdd/dhYsiTxqOPPtofYT0RQgghhBBCjE8aN26vu+46bwSFM5aAmy7GEEaRgTE2++yzZ79ehdnGBRZYIPs1A8LF4AsNM8CwWX311f0sYTgDWhR2CgsttJBbaaWVsl8zmH/++f3nU0895T+7ITQEgTSSVvIFMJyZtcboDYmviyHdpJ98KDL06uYfBu9iiy2W/ZpBWIbkLXm8//775xqplpY4H2GZZZbx6bn99tuzM51wnuevuOKK2ZkZ8DwGA5588snsjBBCCCGEEELMoFHjltk63JGPPPLIjrWSHMwQxuDSmmeMxYaphVuHorCHGQzna665xrslh3mHa+/VV1+dXTUzGHsYfeRbHt3kXxXkLbOmDGRYfEOXYdLCDHw34FZt65bDfDC3biGEEEIIIYSIadS4xeDBqMSt1tZYhke3r9yxcMc6zA6vueaafn1pXv6F7r0hNrNbRD/zD9dh4sa6agYwbC0taWEGvBswam3dcpwH8TpmIYQQQgghhIDG3ZIxTGIX1yYoCpdZSdaB5rnctg2MVNYKF7nrFmEuwrgeF9Hv/ON+1tcyQ0yYZWlhjTEzzXkuy0Bael3fLIQQQgghhBhfNG7c8gobiHcWxrDi6JYNN9zQGz277rprh4GGQcU60J122ik7M7r0YphhXLJxFTOgYV6Rj2eccUZHfoYwM8umU2zCFO5CTD6deeaZ/nvT+ReGDWYkmzs4aWFWl7SE7sqsz2WdLptDFc3AstaWNbfxTtLce/nll/vvPE+vAhJCCCGEEEIYjRu3GDWnnXaa/x6umWSX23iDoDpgMLHGkxlC1qBauMwU8rxhmbU1w4x1qEXvsS0D12N7dZKlkXxcbrnlfB4UgaGIEYlRbPeRT8suu6z/vx/5hzFt4RBHDFsMWoNn2St87Dp7zVGRizUUxRVjd7XVVsuuEkIIIYQQQohXmTBtOtl3IYQQQgghhBCilTQ+cyuEEEIIIYQQQgwaGbdCCCGEEEIIIVqPjFshhBBCCCGEEK1Hxq0QQgghhBBCiNYj41YIIYQQQgghROuRcSuEEEIIIYQQovXIuBVCCCGEEEII0Xpk3AohhBBCCCGEaD0yboUQQgghhBBCtB4Zt0IIIYQQQgghWo+MWyGEEEIIIYQQrUfGrRBCCCGEEEKI1iPjVgghhBBCCCFE65FxK4QQQgghhBCi9ci4FUIIIYQQQgjRemTcCiGEEEIIIYRoPTJuhRBCCCGEEEK0Hhm3QgghhBBCCCFaj4xbIYQQQgghhBCtR8atEEIIIYQQQojWI+NWCCGEEEIIIUTrkXErhBBCCCGEEKL1yLgVQgghhBBCCNF6ZNwKIYQQQgghhGg9Mm6FEEIIIYQQQrSeCdOmk33vmalTp2bfhBBCCCGEEEKMdyZNmpR96z+auRVCCCGEEEII0Xpk3AohhBBCCCGEaD0yboUQQgghhBBCtB4Zt0IIIYQQQgghWo+MWyGEEEIIIYQQrUfGrRBCCCGEEEKI1iPjVgghhBBCCCFE65FxK4QQQgghhBCi9ci4FUIIIYQQQgjRemTcCiGEEEIIIURDnHzyyW7llVfuOL7whS+4xx9/PLtC9AsZt0IIIYQQQgjRIKeddpq77bbb/HHrrbe6bbbZxh1zzDEycPuMjFshhBBCCCGE6BMTJkxw7373u93mm28uA7fPDLVxy0jHoYce6l5++eXszAz+8pe/uP32288988wz/vuWW24509Q/x6WXXurDyPuPg/8Im2eE5/OeKYQQQgghhBB1wU35ne98p9t5553dFVdc4dZbbz235557uqlTp2ZX1CfPhsH2Ge+0fuZ2qaWWcmeffbY3VJn+Z0Tkpptu8r832GADX9B85zj88MPdbrvtNvKb/4zQdWDixInu6KOPloErhBBCCCGE6JnQ1sAeWXLJJf0sbjcGLpN72223nXvXu941Eib2z4svvjju7Re5Jeew1VZb+c+XXnrJfwohhBBCCCFEU6yzzjruox/9aG0DF8/Vo446yh1wwAF+Is+YddZZ3WabbeY/xzMybnN4+umn3XPPPZf9EkIIIYQQQohmmTx58oiB+9hjj2Vny7n//vvdoosu6t761rdmZ/JhNjd0WcY12jCX5htvvLHDtZl7IFwCanBu11139Z/DzNAbt+eee65bbbXVOgpn00037avxiS/8W97yFjfPPPNkZ4QQQgghhBCiGXbccUe/Dvdzn/ucu/LKK5Nnbx955BG/hLJshhYjleWYF1xwwYjLMptYxWtyjz32WLftttv6a7j2pJNO8sbrpEmT3FxzzeUNaeP3v/+9jy9LQoeZoTduwzW0dpD5ZHiTUMHMeAYWfAshhBBCCCFEk2BnhLYNa3Cb5Oabb/a2jRmiGMIbbbSR++1vf9uxJhfXZruGT4xXjFi7fsqUKf56Du5dddVV/bXDjNySM8JF3jJshRBCCCGEEMMGLsnMwhZtHMV5/ue6kHnnndd7vpbtKbTYYotl35x705ve5K9nRpljzjnnrHSFHgZk3AohhBBCCCFEg4ReoSeccEJ2tndCozMPZl1xW8Z9OQZ349lmmy37NTMPP/xw9s355Zks02Qml2PZZZdtxWZVMm6FEEIIIYQQoiH66XaM0fmBD3zA70FE2AYztuedd57/xH0Yr1Tb/IlzZ5555kwGqrkdg8WVTa4M3sd7zTXXuGuvvbbj/DAj41YIIYQQQgghWgKvAGIPIjaNstlhNuBlphXjld+sp8UAtv94J2746iDAzZj35XINYe27774dG+oy0zv33HO3aqPdCdOmk33vmTrvaBJCCCGEEEKIsQ6v4alyTWamFSNzEDBbe/TRR/tNo8qemXpdFRjJg0LGrRBCCCGEEEKME1KNVl4dxC7J++yzT0/rbQdp3MotWQghhBBCCCGEh7W6W265pV+Tu8cee7RiIylDM7dCCCGEEEIIIfqCZm6FEEIIIYQQQogayLgVQgghhBBCCNF6ZNwKIYQQQgghhGg9Mm6FEEIIIYQQQrQeGbdCCCGEEEIIIVqPjFshhBBCCCGEEK1Hxq0QQgghhBBCiNYj41YIIYQQQgghROuZMG062feemTp1qptzzjmzX0IIIYQQQgghxivPP/+8mzRpUvar/2jmVgghhBBCCCFE65FxK4QQQgghhBCi9ci4FUIIIYQQQgjRemTcCiGEEEIIIYRoPTJuhRBCCCGEEEK0Hhm3QgghhBBCCCFaj4xbIYQQQgghhBCtR8atEEIIIYQQQojWI+NWCCGEEEIIIUTrkXErhBBCCCGEEKL1yLgVQgghhBBCCNF6ZNwKIYQQQgghhGg9Mm6FEEIIIYQQQrQeGbdCCCGEEEIIIVqPjFshhBBCCCGEEK1Hxq0QQgghhBBCiNYj41YIIYQQQgghROuRcSuEEEIIIYQQovXIuBVCCCGEEEII0Xpk3AohhBBCCCGEaD0yboUQQgghhBBCtB4Zt0KIgfHFn1zp3vS177rfPfJEdmYG373+Nvdfx/zAPf7cP7IzYw/SuPn3L3D/+Oe/szOdcJ7/uc7g+9z7/o8/8vKtaSgfnnXlHx/IzowOpJP0luVX2yBPrSw5yOtBklqXaIO0xbHeHouoaqdjDSvv0W7zKeTJyGGBOPWjzfSrfJA/g5JBloYm2pX1UXa0od52i+Vbr/VqUP06zxmEnpKCjNshpN+dqyk5cUWnYlojyqukXM991rFUdTRcn9coCTtMX0qHZY2828ZpyrIJRI5eBcZok5JvTdDkc5abuED2rTuK6lQI8Qzr1zBAfE+54Xa36xrvdG94/Wuzs53c8Je/ur889Yz72IrLZmec++zkld2zR33RXf+Fbd38b5gtOyvaBvLn0//vMveTT3/MlyfH/3x0nezftHrdK6pL1aS007HG+Xf80S01/zzuPUu9MTtTjfUJ1pd2q9CS39R7C6dKbufJyEHSa9/STb7llY/lW7f60KCZc9bX+zT0Cvn/yz897O47eJcRObrOsktm/4rRplf9rklk3I5Dtn/32916y7/J7XfRNSPKFELygjvudadus4GbONcb/Lk3LzCvu/7+v/rvcO19D7plFpov+9U+UOhQ7BCIjx66hxe2u51zxVAZQeOBBeaY3S081xzZr/HB76Y+UalATrnrPvfp96w00v5GAwyuYVAY3rHoQu7+r3zWnfvJTceEkYEcXWXxRWoZEKMF9e83e+/gj9Gsi6NBSjsdS9D3/fyev9Q25g+85Fq3+HxzjRgY+627utvpR5fWGpzh2g1OOse97y2LjfTJsP2ZUwr75GGQkb1QN9+6LZ9hhbR3mw7LizaXf12aksWD7NeHRb+TcTsOQbh8Zf3J7skXXnTf+PkNXrBi6CJoUSqN9d/6JnfzA494ocI1z738T7fSGydm/7Yb8mDd5Zbyo8DPT0+XEP2C9nPidbf6+lbUsTN6/4v7HnKT3zQ+lGohho2UdjrWsJnQd0x6td9PAWU59DxAbqFPMDiQCjOS8KV13+M/TS+55aFHfbxixoKMrJtv3ZaPEOOdCdOmk33vmalTp7o555wz+9UMCLRN/u88LwBg2Ynzu0t32aJjFMNGAP/4+FPZGefdv8JRCtwZ9r3w6uyX8zOXp2+70UgnFj8n/h/iMOK45MXjqI+s5d3BUsBd93s33JH96iRMTxxXRkou+sxmHYZpCmF6wrTQyTN6ut27V3AX/u5e98U13+0ef/4f7t4nnnb3PP6kvx4BbdehDOSlkdlgjOa4vEjnQ08/57656dpus+//pCO/DIvPY8+90JHWkP/f3pvAalJc+Z5ZU/MEqOzCQANTmMXWsNlIgMyI4hmmDUzLMOyvMcvwWGfUYEC2RggMZmkJsZaZx7SwgAahAQPdYn/s5vVgwAO0gR6apUHGArfNYkrAUCzuMqCnUg2/rDyXc6MiMyOXb8l7/z8pdb8vv8xYTpxzIk5EZF5rI4JT5H7ePt/Obvqnl7N/eOV3+e//27/fcaYjQWbH/90D2Q3/cf9cTtZWzBr7ziZs41j7xdrJ2oc6s/3Qt0dMDm3yCetbJTcv7zrCfKwsMX022uRTBfJgOyC6dvJt/yU/5/U6lJfHyptiP6TD7C+6fcxN9+e/xewnzC9WX9N/BmNV9ofunfafH8n+7tgDS+VFftiW10VPqL8e9Os/XHdX8S1e1phsyuRbJo8UuZVhsvoPO26b/Z+P/VOuU1cfvs/MZ2ufUOe8DXuqfL79tuygPXOfZfUK00qRW50eVPniKvux61jRrdNrqPP5TdqnTJesjcx/lvWBKfmE+ub7ryaE6fg2DMsLJrNUffNU2Wmd/Kt+R88ImpdutSS74L/8Yy5X/xkZ3/hPL830rdSXevrPVueqfKzO9MekZXKLtaOBfNlKaHpmaYC/x3SZVTO71mPluu5/+Z+T25m8Idaesf4Q3Yv5yCo9MEK5eTu2+1lVDMtiY5uY/zR831LVh8Wok1vYPmE9PGE7V9kOhPI3X+fTCfPzv3kZpepbG0I/7bG8bEzUxeen2Glqner6FvOj/8che+Xb1PFJMVuu8sVQJhvTf2tTiOki9zM2RW6MW62d2/rrGFaXGw7/i2zJkiXF2dGzYJqDWxwqK4sX7f+dWcYE1tBmfIfsuM1aTs/AiNlyW+ZkYg6GewjALB9TgnDwY4TOsAum+DFljpWV65c9/FSlE43hDcgrs51nKwyOAt7+6I/ZYTtvn/1fT69xYMi6rs5lhgfeWFNk5wesodH5QaQZdSin0ElD2AEiRzona+NYhx7qRVgu6lwX3KbkU6UDRh86Rz5sNTeZWpvF9KEP3S6DcoQda9j5Qp0dQpXsLB/f2TS1dcPkUhfcxurhqdJtA/2NBSQxfSM/nksq07fYPUZZPmXt4+VWRSgr/AiDIfSMrYYQyqdMbmbLZT7f+wMb3IT+IEVudXoQpgnIKeaLq3QSqvJKyadJ+5S1saesvCn5hN9j5a/D9IVVq5hM7HcfkFg+7EDi0Zu+9I22wSfGAi6oax8mhrkfXfxfl+6YX8sW9TP+p12zU277h7wdbJKDPPDHdv0BO2w9oxc20VuWz3//ZxvkdfbBYaxvMcr0IGYbdbZAObyPqSPsU0yGp3w+5nj69eWz2hXKfGSdHpgMqsaREKYRls8oswsosw0IdcqokltZ+0BdnxHaoF3vJ/OtbMiFuoa2FtNrny5wX6q+daWsTcDy7eLzWT2vs9Myf+mpywf5mq74gDNsM6NM58L6Vcm+TJfMt/nxUJVOtoV8lm620ViD26neloxgUVJrUP6i2B46LRQQA41BoxLYogBlikkaDJS8k0C5f/f+h9lv/781wR1gOHXbblBCjHBUWH39M0F05Jzzz8emwGwXDg0siA1h28ztz72SvfXhH/POs+kD4xiNf/ifA+cxCvzgg7amTW0gA/bMLc/20AF5cAwYNJ2FGTR/cRTWpugS26LYOuWdTBNS8jEYmHn9GwXIy+s9259os0lAvlcd9t0Z2aJrOPu+7ck7cmhr65STZ0J5NrTMt9DedGoMUsuwfJpuPUMuzDSj5z5/2+Zn6TKrzqDG6ks+dKoMupsQa5+m+LLiB7zupVLn8w0b5AC+i3vwc6lygyo96NMXV5GaTx/tk0JVPjEfGfPFdbAdE//n3wHhsd+xXYN8CGjwoys/+6/5uVR9K7NT0xXuLRusp7QP9mZlpR/K5fPv/l3+3UCu9qIkPps+Gql64Mta9SIf7vn6Rl/JbcND+mGatJ33IR4GrgzU6cNiv9fBoJ7nTp8+7djs1P9xl+LsbMp8ZJ0e0H6UqW4c2Rcx2yjrw+rkVtY+ddiY1z+nS/qMOdBxdN1gwue/O/eneWAfPteJvmE/dePiVH0bB119foqdVtGkbwlXUvE9jMdTH5Oj/yYNswnaDhu1HSCpkIb3s6N4r473WeNi6p+5xfHZm+U4cAYhGKYZcQyUdJMvVTtdjNzns/vf3Jyt+NOnxa9ZbuDM+jLLYdfgnAzyt9ksnAW/d3mrXhVl9W2q1Mxmwv++5/+Qz/7iFMEHvTiIDT6X365bbTaT5ygCjlERKyv1wPETZHpHD759Oby+4UwWLFjQy8PyVfkAnQUdNHrI76N6vTpp+rdIb33BNfmAfr6BrVuwV2frTah7E6l1hm0HhlAWxNiEFb/7QQ0dLDsY6nziNFPn88HLhWuZiPABSp3cUvSgL19cx7jy6QNsyfyWHbZlsQkMuqp8bdnv9F1/+q9rgttU6uy0TFeMoekBvoD+L/aiIr4T/Fn/aBMWPoA0sAfso2xVuwzyoC70e8g2DKy8vOt8ZJUeWKCQMo4cJ3Vyq2qfFMrGvPh9dgAY39t5u3yiPwx6jbpx8bTR1ef3RUo+od7S3zR5cRTtS3tawEz70Y5leU+SNjrclakOblkep7H8yh/OYBQw4+NXFznCFRmUz36zQU8Y4GJM/J7y5r++aaLUlBvHxWzeWX/x7/MZrvMfejIaCIYOYkiUDQYYxDCY8TNpQLtaG9tB/UkDZ8Iuft85tKUqHwOZ228EumxB6TPAxRkyY07alg+2xuzzfCMcDNTZegrYEqsHDBRjOgjMgDMTPoqXpPgZWCYsmLhggBJumRKz8XJrqwfjGmBM40AGW7K30vvDVlRGDX696WpLnZ22ZVr1wPq9st0itoLMdWUriHUBWh2U2a9WQ8wftvWR6AErieMcR6aQIre69mlLGFCtv946+aIMsor954iUcfFcYBSrlTFGkQ+6RL9O/84E0FDH6n0zqLclM7BnhdHDUj5BGg4sBg4Zx1z1unVLo8ngFadTFQTQSbbd+oIBlG1JjZWVl1EwS5n6v9+QA8/P4LgYvFFWZgh5doK0YIP16le7+4L8CULDbbke2+6SurUN+bA1JzbbDNY+yAF5MFvGlg77HoNOgZVbtusA19lzHobJzFYBrSMzUvKJQcfOoNGTIremsJofrtyOIp+2IF8/Wxmjyn5CqA+TOn++9RalHXaZrXMvuzPKVtXtTZdVdokuVeVdhemw33UBtCG2wgQOOsYKgJ9MGeXgxGRCZ1vmk7tS5/PrSJFbjFAP+vDFRpVe95nPqLH+NjZRGkJ90JPY//e1QX3Zv2qz3233Edj4gL5s0TrpwW2VnZqusNLn5e8ZV/v0lQ/yrNstwnl+/7v/9+Xc74criJQhJbClXe3/2IbyszJbG1KumC+u8pF1euDLbNjvBtfQv9kuLw57ljSkSd8SI0VuKe1TNR6K2SDtwJgjlib1Zys1euQXY2L6NlTMjpv6/KaMKx+wbeN+4kGB7Rf0O03ZMzg/BmbMSAADiwv3//PsPxevkAeCM2aJWdXyW00YzFngxooY21IsHfAP/XOdzcp7/DUMpMKtLDgo7gWcRxjoUF6e7eP+JpAmSssWEMPqEyur5VPmCD04LgYM4J/pIV2CXer43/43C7IVf1r7bXxlcI+XjZWnCZQF+bGlG8I6IUOef6Cdcbhg7WP4cnA/z/BUycT0C8fDqgJHqCdgHRFp8WyClYFZUJ7lptMw6IBZCbX2oRy016X/9xedaV0+wO9WT4N0wg6+Tm5VcA2dnZcbb5wOn0eGLvn0SShfCAcKVfYDtopphPfX2XoqVc+pAT6DFQV2T8SIDbKsTlZmK7evq/dbHKQf+jawNFLyGRc2+PNgB17faIcqn59CndygTg/428UXe6r0uo98UtqYwRgyJcg2sHf8XOpKP7JDhuRlvsJo0j7U6//54X9cKx17po7fqT8+icDJsDxsgJ5CnZ0iG4IaL38vk9r2WV6c7EhdPql1Tl0J5XcG6ezq8oNy8iH4At93QBO9jLWhta9R5yNjaYDXtZRxZNi/YRMEvCGkWdW3VJEqt5T2qRoPldlglS8nXxvb/PkVf5eXJaZvEI67hkKKz++DPvJJ8cWms17vwbfPtPTrk2DBtP8rICHqsIkFArVxG6zlTeeb0sGJyULAwkAndQDWFjqntm+k7RPrJP0bL4EgUtuTxXwnxU7nGkycgg8ip5Vx+MhpY0jtIyaDTVYyARNOBk1qLFzHv/3bv+ltyUIIMWTq3nRJ58SgjS1Mkxi0sVoVPn8lxHyj7Rtph4qthLLldNqZtI+cBENqHzF98FgLO9NG8Wzv0NDKrRg8WrkVqYxr5XaaiG2vHcV2LCGEEEKMntjW5SaPkIwLGyM/9v1Dx7pyq+BWCCGEEEIIIUTvaFuyEEIIIYQQQgjREAW3QgghhBBCCCEGj4JbIYQQQgghhBCDR8GtEEIIIYQQQojBo+BWCCGEEEIIIcTgUXArhBBCCCGEEGLwKLgVQgghhBBCCDF4FNwKIYQQQgghhBg8Cm6FEEIIIYQQQgweBbdCCCGEEEIIIQaPglshhBBCCCGEEINHwa0QQgghhBBCiMGj4FYIIYQQQgghxOBRcCuEEEIIIYQQYvAouBVCCCGEEEIIMXgU3AohhBBCCCGEGDwKboUQQgghhBBCDB4Ft0IIIYQQQgghBo+CWyGEEEIIIYQQg0fBrRBCCCGEEEKIwaPgVgghhBBCCCHE4Fmw+nOKz51Zvnx5tmjRouKbEEIIIYQQQoj5ysqVK7MlS5YU30aPVm6FEEIIIYQQQgyeQazcPv/888UnIYQQIs7OO+9cfBJCCCHENKCVWyGEEEIIIYQQoiEKboUQQgghhBBCDB4Ft0IIIYQQQgghBs/Eg9t77723+CSEEEIIIYQQYho57rjjik/Ty0SDWwW2QgghhBBCCDEMpj3AnVhwq8BWCCGEEEIIIYbFNAe4EwluFdgKIYQQQgghxDCZ1gB37MGtAlshhBBCCCGEGDbTGOCOPbg96KCDik9CCCGEEEIIIYbIz372s+LT9DCRbckKcIUQQgghhBBimExjYAsTe6GUAlwhhBBCCCGEGBbTGtjCxIJbUIArhBBCCCGEEMNgmgNbWLD6c4rPnVm+fHm2aNGi4lt/PP/888UnIYQQIs7OO+9cfBJCCCHENLBy5cpsyZIlxbfRM9GVWyGEEEIIIYQQog8U3AohhBBCCCGEGDwKboUQQgghhBBCDJ5BPHMrhBBCCCGEEGJY6JlbIYQQQgghhBCiIb2v3AohhBBCCCGEEDDOldteg1shhBBCCCGEEGISaFuyEEIIIYQQQojBo+BWCCGEEEIIIcTgUXArhBBCCCGEEGLwKLgVQgghhBBCCDF4FNwKIYQQQgghhBg8Cm6FEEIIIYQQQgweBbdCCCGEEEIIIQaPglshhBBCCCGEEINHwa0QQgghhBBCiMGj4FYIIYQQQgghxOBRcCuEEEIIIYQQYvAouBVCCCGEEEIIMXgU3AohhBBCCCGEGDwKboUQQgghhBBCDB4Ft0IIIYQQQgghBo+CWyGEEEIIIYQQg0fBrRBCCCGEEEKIwaPgVgghhBBCCCHE4FFwK4QQQgghhBBi8Ci4FUIIIYQQQggxeBTcCiGEEEIIIYQYPApuhRBCCCGEEEIMngWrP6f4LIQQQgghxFSxcuXK/Fi1alVxZnQsXLgwW7RoUX4IIYaHglshhBBCCDGVENR+/PHHxbfxsXjxYgW4QgyQsW5Lvvzyy7NNN900O/LII7MPPvigOCuEEHHuvPPOqfIXzzzzTLb33ntnr732WnFmuqBcRxxxxNSWr4xPP/00O+OMM/I+QjSDtkYn6VuxFyHGDf4ZP41/HAUEt5NgUvkKIbrRe3BrTi7sZBm0LF++PHv99dezW265Jdtggw2KX6YXGzSkOuym14thgO4y8GYAPm2U2ZsQQ2ea/Wmd3cUG+3wmAA2PWECfOqmDjE488cTs0ksvzd55553s0EMPLX4RYu4wjq3IMSaVrxCiG2NZuaWDpmPfbbfdsnXXXbc4Oz9gkDKtgZEYDQw4R7F6xiBYK1vDZBQ6IX3on1H76x122CF78skn80CU45VXXsn7xrZ5vvDCC9kmm2ySbbPNNsUZMS2Mqh+YNBrTfIF8sBDTid6WXMHWW2+dPfLII9muu+5anKmm6fViGJx22mnZZZddNpUTM+yAYCeEVmzEXGM++FPsF//y7LPPZm+99VZxVgghhBBtUXArhBBCTIgNN9ww23jjjYtvQgghhOjCyINbtrBsv/322aOPPpqdcsop+TNGnCsjfC4p9twR99ddUwXbhMqe5WKLiW25iV1XVT5/vX2mzjfeeGO21VZb5d9jW5TIizxj21tiZairf1V6vn5gW4xeeumlPJ+yMhph3uH1lIPyUN7wWr57LO+33347v8euS2lPnw914j5fX5Obpenr7LF77XjooYfydH1ZQ5lBWDd+//DDD/O/u+++e/bYY4/lf/nN0rL6xmQdpud/M51btmxZfvDZZGRy8OUFO+/TDK8hfds25+Vgaddh5fKH11PfRr5+oc4YnAvb7E9/+lPxazmkHSsz+fq8ysrDEcoGQhnyecWKFcWvXxBex2G6aLZYphMQyyesi8fkHtMHT0qbpsghhGvK9BhCm/I6YYT53n777cUvX2D6YPebnPhueZicIaY/MZsP8ybNf/7nf87vTfHXfYNOLViwINtoo42KM/WYLCgvfSt9rG9j0ztfTy8rqJOnYWnFfgvbCPjs8w3lWJUe53y7cR8+Cl2z+lTpaJg3hy+br3OoB2G6ljd/TT52+DRDrH5NbD78vQyu8e1sUJ5QzqEswvvCMsTS9ZB2io14ucZ+B0vLrvNtPgRMtqEPNj8S0w/fdnymzqljn6HLS4hxM/Lglu2SPFe01157ZVdddVXlSy9wCGedddasZ5IOOOCA4tcvOg0GQqRp17BtjTRjTjTG5ptvnu2yyy7ZE088UZxZA06FMpQ9G1xXPo9tqaPOxx57bP4iLb5zPoS8yJP0Q8d277335mXdcccde6t/yBtvvJHddddd2YMPPlhaRqBs1IPD1//cc89dq9zXXXdd/teuu++++/JOMezAyfv888/Prr766vw60t5iiy2yk08+OerkQ8hnjz32yO9lex8gRwYU9pIV0oTzzjtvpkMwWdpLzrgOmd5www35YLEK6uDbgPtpH9qR7cvox5577jmjJ17fY7Kukyvty7kzzzwzP/hc9VI26s9g97DDDptJj7JceeWVaw0o33vvvVxWJkPKgPwvvvjiys6T37Afr4foOvYR6uGBBx6Y/7XrYjoTthkHNnH66acXV/RHim5SB9rNyxD9Ou6444orvoB25De7Dlnff//9eXp1OhHLh/au0v86fUhtU3TB67HpSGijMWJ6HLMpZEv7075GmC/Xvvjii/mAOYW2Ng/kTR2tHTjQx69//et5PVL8dZ/Q/tgM7d/kJYv2OALlpW9FlqYDpLnffvtlS5YsmakjvyOj2KA4Jk9Pav8EyDfsI0899dS8bbwONOWKK67ITjrppDw97089TXxSav8E55xzzox8LM1Qpz11Ns99qf65LeRRNVZp43ewhTobaePry2x1minzwd/85jdLx5b4PG/nqWOfuSAvIcbNVG1LfvPNN3PHQPBpHH300TPOgAEQ1+AM/ECATon76GhTKOusX3311fwvM2Qx6srXBcuTzsKgbJTRgu2+6h/CYPioo47K86iCPBn8+OsOOuigjH+V/P777xdn1kDn7QchdAZ0ijh4L3PyZsBl9SHts88+O//sZVEG+ZC2gbMnDzocO0+aDIx4rg0ZgsmSvKw+lOHCCy/MX/pSBZ0LafsyH3PMMbPkUkZM1k3kWofVH1l7+TMAoXMk6AoHelzrZUUHXPcMINdRZpMBoMO83CZc3aQtfFmo27vvvjtjb77Mvi25h3v7JkU3sSUGZrHrQrjGlxtZc68NQqqw4GD//fcvzmTZCSeckP9N0f8y6toUHUAXfBtSbgKR0EZjxPQYmyIPbM3OUwbakDRpZ/J9+umnczvz9oMdEqSl0Nbm8aXU+dprr501IO/Lh6fw8ssv5wNVW4G55ppr8gkCr2ddMd31gSr1Q+ZeHkYozxgp/ZO1bShfs2PTgaaga/vss8+sNGNQhlSf1KR/Ovzww2fJp0t9vK/z+VO3Mv/chrqxyqj8DnLx9Srz9XW2mgJ6tvPOO88c2JHx/PPP5/r+1FNPzfzOOOmjjz4qrlhDmAb3dYG64GvDdqT+yGGnnXYqzqSNffqUlxDziakKbpm1YvY+NoAEZsMw8HAggrGXzSyXEeusy9I36srXBfIkb5yxdZhhsN1n/T10/k22xJGPDc4YqLH1Khw8MNMdgvxw8D5gCztgWG+99fJrU4IDtkZ5GLwzI0qn6qF+1JNOH5AleZCXx66rgjzZipSywhVSJesUudZh9fedqMEbVcmfN6waPOsXXsszgJCSNx04+kmZGTCy6m0yNkJdCNuiqsxh+/ZBnW7aoL3suhjYLAMVaz/0gxVMs+UYlg+DIWzYaKL/MVLaFB3A9mzFzfByqCKmx9gUQVUYhNCGtPUnn3yS57vllluW2nwKXWw+5m/GiX9bMquF9CcPPPBA8Wt3qnSXelN/5OBJsbGU/qmsbYHyMBi3yZWmpOoGtPFJENP9mC2B1+kmNPXPbaEuZWOVUfkdCOVa5uvrbLUOAlnaiskUAlIOdit47rjjjuzhhx/Or+HYbLPNsltvvbX4dU0AjE7b/exsIdgNA+CmxNox5htTxj59yUuI+cZUBbc4Gjp+Zr3omPzzB3SoDBb7Iuys6RDJN9bpGVXl64NwAIBDJE/K2nf9PTjTMMiLYYMGtk75rYx1K52jhLJ7GLz755zssEEOmCzZtuc791SYmbZtbKQd2+pXRkzWfcqV+jMjPGrQe/Sf/7HJgIAyU/bU1TfPuMqcCoNbBk6p0G4MdplgQg4czLTXYfmwlc/rKmmlbtFtC4Mn8iAvn7dtK6wj1GOzKXv+zB/YidFl4GxMwuZHAb6d4IPtqPiAPmiquxDKs4yq/gn6aNsYBJg2OVNFnz5pVIzL11WNVSbpd1JsNRVWLavGRN/+9rezH/zgB9k666yTHwSX1Puzzz7Lf7fVWoMtxeyW6jqmC8eWpFc24VRHn/ISYj4xVcEtMLPFaiodJZ0ugQQdPwMSBiZ94jvrspWMkLLy9QF5UwbKEjrEJvUfhaxw0myho4Ooet6zDmYbwxWfMuhsm8IgyD/nFB5+y1QX6LxIj8ETs6fHH398q06xL7ka43rz6vXXX5/rPzPo4UpdU7qWOXVwXofpps2Kp4CNMoBE35rqluXDREmopxx+W2nfYFv23FyYL/6taZuazyGoD9PjMN1uY9N1pNh83z6xbpWLAIKBcl1QxqQWOtD2kZKQJrrblKr+CVLbdhT9E/Thk8wHpEBeKZPCnnH6urKxyiT9ToqtpsAqLX3uIYcckgeosS3HMXiBE30ucD33WZBLWthtH7DSyoorY0vb4dDkf1GbLfUlLyHmG1MX3Bp0gDx/gBNm9goweDrUMIjAWTFL5meRU7DO+le/+lV+vz07lEKsfF0hTcpAWRgw0yH5YLtp/ZnVNEcONiDpEwY6PEcWEm59A86FA4LYVjW+c75JR27QcfPmUb8lKMTkHJMlHVGTGVHkzbM9bZ6PraJMrnVU1T/23E+fNJWdUVZm0+sUqFco/5gOQp1uWuBSdl0dqXZWlc+oId+Y7XWhzD95yvI1m29Dis1DSvlSqfIhQFnKtuh68B8EE6x4p+hMHVU6ZTJus4IEdf1TlU5RnnAb5jj6pzKfVGbb1MH3T6yylvklAnRk0oQ+/HMTXweU0Y9VJul3Um01BQJc21JMcPrTn/50ZlU2BoEtW5ORB9dxPfdZGnfffXdevj5Az7F/xpY8M8sW8HBsWuUHaR/oU15CzCemKrjl37D4VVBz9jb7zcsPMPrwbXJs7WL1zF6IQOfDVtG6ZyKts+aNrNxvzw6VUVe+GFUdfgw6Nmb8GDxQNt95ptYfGMCEz3Mxs912KwvloDP3gzlkwZa6GOFgjbbgXPicDwEcK5c2yCFt3q6Ysooegw6EPJiR9fmT/k033TSTj7W1f4Mseae8rfLmm2+eJX86Hjog6xibdEhN5JoyOLfBMvX3+k+avD2TFwZ1XWkFyuL1OlV2McraDN1N2SZnzzh5PSId9C1GnW5y8JlzXoaxNM32fVvH7CymE2X5QKhjMboEazaxF77JFD3Bz7UhZlNAGU3esXy5lrZrM5kDqTZf5j+9rJv466r6UhbTpzqQCavobV5QFEJ+vGyG/sPbI/VD5uwQYRK0LVX9E+mSPtuCfT+JbnO9f9FY3/0TNPFJdT7AE24bp78ln/A5yJCYzXf1z6m+rmqsQv26+J2mYxpPqq02pW4SiVVadPBb3/pWvkWZfAh27T6CXeredIK6zAcjY+yDPLGX2IRFytgnRV4cjHebPB4lxFxnqoLblStXznq2AGfPszPm7HEYvGKfTpRnDuw6ZoD5Fy44AsDpljmUEK7h2caUVd+68sWwwRz3MRjyHU4M0lq6dGk+YxyWP7X+wDV0wjhFu44BRcqzgGWQFh2b5Y1j5l80xJ4Nve222/LBmuXNAIGtNZTLw6COARGdBNeRNtdQz3CQkQpbddhy5Z8pIv3ttttuJk1kxVunmRSwvBn0XnTRRbXPaDFI8PKnnv4N1vy1DonfwwFESKpcbTDNdVXPeyM/ZI3MrYzoH2/j7GsbE+nQbmYPqbIrg/TQV99mwLk6kLe9CdbaklUJdCBGim7ymfu9/cTSxF6Ra52dlelErK04WF0xfSojVR9ilPkSBlf4nzZQXvwQWDtwIGsbrJHvBRdcMEvfWYHhXyzhC9qSYvNldcaeTdZN/HVZfQmoeFzB61MVlAvdCIO9tqCT6BeDYSsT9SWPrltOq/onIH371z+WN+1PeXw/iWz67p+a+KTU/oktxNg3dmHXItewPjGa2HyqfybNFF9XN1aJlYEjxe80HdOEpNhqHdTFthNzEETa87XGP/7jP2bf+c538t/5y6SLvXRq/fXXz7+zos3v6DT6x78Ea0KVD+Y3JjfKdnCkjn36kJcQ840Fq9lPOceg86HjYhA1ROO32eauA5FJgHNnUEHZw4FCCJ0927umqZ2alF8MC7WtEN2ZL/0TQRv/45YAuS6QFaOl6sVRMdhmTAB8ySWX5IFsF9o+H16la9M49hFiLjG1z9x2gZlMZkyH6DToUJmFZBZRjJ+UreZCCDEfUf8kRBr2byabvEhKCNEPczK4HfLKjP1zddvGJ0YDgzS2/3o41+dzqUIIMZdQ/yQmwcKFC4tP46VtvqzasnuQRZa6bd5CiP6Zk8HtEGGrF89SsP1GW1VGDy/74OUl9gwLR+pzT0IIMZ9Q/yQmyaJFi4pPafAcLc90d92S3DRfglqevbVn3DWWEGIyzMlnboUQQgghxNyAl2RxrFq1qjgzOlixJbBtGtwKIaYDBbdCCCGEEEIIIQaPtiULIYQQQgghhBg8Cm6FEEIIIYQQQgweBbdCCCGEEEIIIQaPglshhBBCCCGEEINHwa0QQgghhBBCiMGj4FYIIYQQQgghxOBRcCuEEEIIIYQQYvAouBVCCCGEEEIIMXgU3AohhBBCCCGEGDwKboUQQgghhBBCDB4Ft0IIIYQQQgghBo+CWyGEEEIIIYQQg0fBrRBCCCGEEEKIwaPgVgghhBBCCCHE4FFwK4QQQgghhBBi8Ci4FUIIIYQQQggxeBTcCiGEEEIIIYQYPApuhRBCCCGEEEIMHgW3QgghhBBCCCEGj4JbIYQQQgghhBCDR8GtEEIIIYQQQojBo+BWCCGEEEIIIcTgUXArhBBCCCGEEGLwKLgVQgghhBBCCDF4FNwKIYQQQgghhBg8Cm6FEEIIIYQQQgweBbdCCCGEEEIIIQbPgtWfU3wWQnRk5cqV+bFq1arizOhYuHBhtmjRovwQQgghhBBivjMnV27vvPPO7Mgjj8w++OCD4owQo4eg9uOPPx5LYAvkQ37kO26eeeaZbO+9985ee+214oyYJLTDEUccofYYMcgXvd90003zfsa+Yw9DIqyHSOfyyy/PzjjjjOzTTz8tzohpg7EfY0Dp9nSg9ogztFhlSL5vpMEtAkAQkx4Ej9uwhjrg6RsMYT45s0kEmTCpfD3T3nnVdSL87p221YfBvz9iaYwy0NdAek3bhO2AXAzkH/7OUaaL5p+bypX7TjzxxOzSSy/N3nnnnezQQw8tfhkWc6Ueoh3z1aeMu97y3dVIPpNjPsQoIw1u33rrreyNN97INt544+yFF14ozs4tMFAOUQ8GNZdXl8a1YhsyqXwnjQWgo3TQV111VR4A2LHrrrvmwcAkdXi++BwGPQx+nnrqqez111+faYMnn3xyra34O+ywQ37eX3PllVdG5URfRJ9E30QflQr3bbLJJtk222xTnBkmc6Ueopq53t9OC5LzdKJ2Gc8YaVoZaXBLJ7p06dLs8MMPzwcok5qh2WCDDbJbbrllbDPUW2+9dfbII4/kA2Eh5gPjtrFJccIJJ+SBwbgm60477bTssssuy9Zdd93izPzhxRdfzJ599tnspJNOmlV//CvnquCaU089Ne/U/Uo7fRB90SmnnJJtueWWY2tHIaaF+epTxl3v+ey7U5B8Jsd8iFFGFtwyoLj99tuzPfbYI9tpp50az5ILIcS0sd5662VbbLFF8U2MkjfffDOfSNhoo42KM82g3+F9ie+//35xZk3ATLo77rhjtttuu0100lUIIYQQ/TOy4PbVV1/N/7L1afPNN89nye+99978nMe22LF1gD3g9rxUuBffL6+Hz2CVPVtl2L3hdXY+lpZtifO/+TJRDs4tW7YsP/hMWqRpdQm3AlTlZ/itFMjFrrO0PVaGqmtCYvXyW/dC2YbPElodwnYIrwNm5ljJszx333337LHHHsv/ck9Yd8PyCH+3dHx5Y/WJybRKt2LE0k25b9owfXrppZdm6uPl49sw/M0I9ZbPK1asKH5dQ6zN+Eye5I38Qx3x+s0R2guEeXOQLvduv/322aOPPpodeOCB+XmvF6Pik08+yYOjJgFuTG/B7NfX2641OXKP6Z1dH/M5Hi/X2O8hJuMUmwYrR9V1pnf8bVoeg+D03XffzWeY++KJJ57IZ6vZaUD6rAwT8FZh8mG1F31D7+rqUScj364Gv3OdtyHgWg4w/fBph9eXkVIP3/4csXpaeayOdbKwfGNpWp2tfgbl8DIL5cnBOU9YLg5LIyxDmB/XxPSVI8ynjLb3GVZG7quzQ19HOyw/05Gy/pZyep8SS9/S8HLiGq61/EL9LSPUqTA/PqfKnrTI9+233y7VqTJ8vT1h+XxafcnZU5Wfwb0cocwtbcPK4NMLr4kR1iumA6RD2mX9d4yUuhll8uG8TyPUgTrZ1LVLGWZ/lp6/h7y6jqPC8pLOn/70p+LX2dSlVycD4PeyMZLd52VbpetDZGTBrR9EsO2AWXIEFVP0p59+Ovv7v//77MEHH8yfl3rllVfyAeR55523luJfd911+V97tuq+++7LO+uYMlVB4xJ4UUb/nJY9y8WAhzLbb1YmnsEDu+/MM8/MDz6zLZP6xqDuKNphhx02k2bZc2HvvfdebpCsenMdz5sxmL744otn5EF6Z5111qznzA444ID8tzKQ/fHHH59/tmfYqBerI8DvnPfPt5Hmueeeu1a7YSxQdx3Q/mw/oax77rnnTJm7bmFFFujIkiVLZsrh2xCQE7K0l6dQN4jplqeu/YfGFVdckW/lpC4md/SO3RXUzWSHPnpbMjvxesukxXHHHVdcUQ07Nu66667ctglS2A5jnc/y5ctndA07Rqe8M62yUcpAuffaa6/8XivXKKHc2CC2yMpfKmX+D30CfKVh7ykg8Aqp8zkpfqOKFJtGZ0K/w/Zf8vVtB13LY1uL8e8pg9cQthwvWLBgZuWX+ykj5QEmXXfZZZdZ8o9hW+6xffQNvavy9SkyogwE1n43ExNGL7/88qzVZF9mztX5uyqq6kHa2KT3BxzoHDaILXros5977rn8mipZxPwHaZ588sl53WhjfPP9998/kwd/8UOcN39BG/lyUQdkHJaLSR+u5Rr0jfY955xzsu9///vZhRdemJ9HZuQXGzNwremr5RP6pRCTXZ0/S6XODuvk0aS/ZfEh9pgFeol+mq1Qjzb9KGXmWpMLR9lYIVX2+Mfzzz8/u/rqq2fKgl8xnWoCtoqueVulfNCnnMH0JNXG0OVrrrlmZlxsY12TB+m18QdNfHis/y6jSpYpmHxS7KhKNm3Gm8ie32NjDU/bcRTl8vbDwZjg9NNPL674gpT0oE4/moyR6nR9iIwkuMXBIGBzjGCz8Lai62EA8oMf/CBXSqCjpCOKzaoTIHolRRlpBJQh1bHRkCgFhucbG8Pdd99988/mcAzKRAeN4XF/E7ie8lFOn2asYze4ljIAciFvPxhiYEzHzQDNOProo0sHGXD99dfnncAFF1wwS9bcZ5+Rh/0GBx100Fpb+4DBta8L15W176iwVTSvZ74NTe6U1csS51S3YtNn+08agox99tlnVseEvqF3tLfpDL/TyXlbYrcFdhKzuRTI+6ijjpqlU8gd+ftnKUmTdiJv5MtRZ6PjgM7CZjH322+/vMxtnhMK/R/1I4ihzl6nGGSyy8XbdRPq/EYVdTaNzhDUXHvttbN0iXt823m6lAdIm86dcqSsmBr0P7Sd12+/mwgoT9WkaxtSZRQLKhhcYH/8ey98G/gy1/m7LmCTpE3AYPICZEg/E+66os/mXRp1cB/377///sWZNc+tg63Iox/YOfaObMzneL3x7QisOiC/cAcJAzlL3/SN1RvKau3BX9IPt6Tjq7jO8oUq3TZS/FkT6uywiTzqIA3KGsoCvaTdmMTjPPWgXL5NUvpR0qesJheIjSmayJ5rCYKs/qR99tln55+b7PLA7ukDQ1u1cVSfcoamNoYuUy+THW1x7LHH5n4C2viDpj481n/HqJNlCk3sqE42TSDdlLEGsmgzjjL78X0hmMw9qeMy6FMGpNGnrk8DIwluzcHYIAKqZslp8NAAmG1HsBivxxuyQcCG8w8DsDLCWckqmEWxwS1OiPLYwCMV8itbjYkNcniTZ3jthhtumP81RaPON954Y3KQgVHggBjMpTgqqzOzTQwOQgUPZVfWXqPEnn8sm10yudOZepqUtWv74+x33nnnmYNZNuP555/PJ3EYWNjv5PHRRx8VV6whTIP7moKcPH7w4vG2ZDpTZnMpIOfwmUl8AB2J7yRgq622mpFvExsdJdgXs5jMaFIXG4A3xfyf6Rz1I4ihfugo34EZa2bi62w0RorfqKLOpqsCb+6lvawekFIeZqPNvuxA5zzoCX2KBbkMCkJ7Z8UTX2Vp2MqEDSZsgBH2NeGkQ1dSZUQZKAvtDdjab37zm3wwhf1beZA9toavq/N3XcAmY/0wehibALAyVWH+gwDT67PVw+oOBKTUFXvjHgtQPdSZARfta9vtTDeNsA7oG2/STvFXMX0F75dipPizJtTZoZEijxToH9FLC1KxFfokGyugr137UdrUbDM2pmgie/xoaF8xnaqDdoulFdKXnJvaWHgt19E32GRoG3/Q1IfH+u8YqbKsookd1cmmCdQ3dawR+pGUcZTZT5l+e1LSM/qUgdGXrqn5yHkAAEnGSURBVE8DvQe35hgRCsIxh0YjEowxK5FqiKPCnKoNtGLYoAv8Mn0byI9Znz5BsRm8IU/KWbeigVFgHKFxekyxCej8lggGB9MIxswqGg7RBrZ+6wZy989c2GFGW0Uf7U8gi8yZKSUg5WD1z3PHHXdkDz/8cH4Nx2abbZbdeuutxa9rAmDa2u5nSyfBbhgAV8HAIdR1BgHYI3bpZWNb4sB0pgvomx8E4x9wvvbMqD8I7I0UGx0ndCK2m+SBBx4ozqZjAxhbIaET22677fJOjMEG3y0YSOlkJ0GTgWMqBKpmX3ag7zEY9GBTdP7hJEP4r4DCLXQ2gAn1Dt9AYByuDLSliYxoZxvQEswuXrw41wfqz0DP+lILMur8XVvMJpuQMgFj/gOf4mVuYwEP9sXKAe0TriAgH/o3/jcvvo/2te12k8ZkV+fP+qRveRCQYFPoHNgKmg3Gu/Sj0zqmsHar0uM+5dzGxupo4w+a+vCw/46RIss6JmFHRupYo+04qsn4PyW9UTDNPrYtvQe3NoiwPd7+wKkBA7lUqoIxT+oME6CgKGoZOGT2uFMHOtqu1OXXFlvRwCCQU2xFw7BZ1jJwLrY1o+oZqnFgM5Kp0Ebolz1zQEcKyN0/cxEeyCtGn+3PQKGqU/v2t7+db8lfZ5118gP5MyD87LPP8t9ttdb45je/mW/pwhl1AefJFhZ0J5SLBQZ1OtMGOj86QbbjhPlymO71bTPoE3L1M58e5FDXOSMT2ifcHpQKZcA3ol8ELQQ35EfwQv5+C+o0gs5MGuTVdGsz0OegyzbA9geTVk3TK6OJjNBxdJJ2J7CwIBa9wGegJ7EZ/zJ/1xazyb4x/xEbC3B434o9UY+DDz44/+vtyx6nYWLDT1iME/KPDfJNdnX+rE/6lof5IJtoCVfQ2vajfY0pymQfI9X+UnS+TzmPysagiT8YhQ/vo26TsCOjy1gjZRzVJP2U9EbBNPjYvuk9uLVBRGyAhtBwdLZ6YYTbMYAOn44fxfDY7KKHc00cIJ0uzww1CbIpL+VuQ1V+Vs/YloVUcAzsvUfuNgsVYgFjTH5VUGZWNiYBBu6xiZMyWPFgoMrAkPZq085ltGl/Vml5gdchhxySB6h0PCkrrrwJ0uyD67nPglzSKgvQmoAu1A3oq3SmqR55cOAxm/f02XYQ2/5vUI7UFVPbLkln0BQrAy/iYUuy+UhkTP6cR4cnObFURZXOoA9dt6U1ATmiIymY7ZbJlpWlMt1oShMZ2YoZ7c6WZOsD6PMIajlf9fx16O+6UGaTdbKrokmfY4MrVm74W2df9Jt1q4ZNYXUl1AGrPwNv+tkYKf5s1HSVBzYA7B4KfWHfvph0wjFFE9nH7MvGBuhOKm3arYucR2FjnhR/0MQ/NaEPG5iUHXXR7yp5GmXpW7t7UtIbF6PwseOk1+AWpYw91+TBaYaNhwB9Z8aMNc8R+NlDg84PAzDYhsG58LmeKigbs10EDX4bB/k+9NBDuTIy2PGdMlsRw61UkGKQVflRTx4WbzpbQjm537AgOZwMMJAND+qzjdnP7FHum2++Of+dTsTXhfRZweyLVCdCWZhJ9m2NI2AW2HeKVnYj7AyRO3qB3L3OcN1NN91U2gE0af86CHBtSzHB6U9/+tOZVdkYBLZsTab8XMf13Gdp3H333Xn5usL2Rzqy8K2VZgNAGZAf7eD1Fllyri02kArfmku61k51NgpNBs9VutDkDciWTpvHK7gX3/j444/nW5L5DgS566+/fj4zmxJgT2oQQNnxyWxd8nWnfZCHfxFIH5Cub3sgX3wmbWDyq4PdE9humWytXfAdZT4hlSYy4i9+jnb/6le/OivoJahFT2w1F+r8Hd950U4osxR44RM2EL5xlsEyz1zFnoGtgzLF/AdQD8sHXTbZ0BbWT5mdou9+zMB9XVery6C/8+1mq/rh86aeFH9GmvbvbrqSKo/U/hbMBngLfugL+a3Md1b1o7R/kzFFquwZA/jHEkibfoz+LMWHG2U6b7rZt5z7tjHSqPIHMUblw+tkmUKKHTUhtV3Q77qxRhkp46gy+4mNKVPSa0LqGGmcPnZc9BrcWqRfNUCz1Qv/Zji2IiBc21/O8wMEfChcyG233ZYH0HYtDpHtMhhtE7ie+7jf0sLgCTJRRp6vw9jtN8AJhZhB8vxJ1XOvsfyoJ29LLtvWU8XKlStnPQPDgI+98lVBMr9hvBiY3Ue5t9122/x3jA9DsGel6UB49Xlfz8d4Iyf9qkEYMkEv7HktgkQ6XrZseHwboUM4dq83pMN2Hf/cF9cRXJQ58Sbt34S6GVFWacnzW9/6Vr5FGQdPsGv3EezSWfSxckvdeV4HvbT25sCpLl26tLhqjd7adie7BkfJubYg3xtuuCH/7O0eu/aDkyobBepgg2d+q3PGZbpAANHkDcjYPD7MD7BSwTfec889s3wk8kAfWb0om5zypPqcUYBt4Zu976HdsOWmE3QpeL3jaOMz0VeeHbKV8hi0BwMNe6lOF5rIiNVa2h0fa/rHX3QSPcEfe6r8HQOTsheX1FHmD1gFwlbR0TbEbJiDQRdp0hdhj36Cl78MwO1FObQ1302eDKAvuuii3p8HY+sguoUPtHJSvjrdTvFnDLCrVuGbkCoPypXa34L5JD+hYrTpRyF1TNFE9owBqL/JmrTRsyY+HMp0nkUCZNe3nEdhY3Xjnxij8OF1skyB61LGBamktgvE/JQfa5RRVu9wHIUuMX709gPhmDI1vVRIL2WMNC4fO04WrOYBvgliwq4zSAZwCJzraHghpg06KQ+TDd558XztJZdckq/SASux9n+HDZw7K7VGeM3f/M3fZD//+c9zW/ja175WnF3zghchxPyFYICBoP9XbyINgmj+zyoDurYD/CoY5zBgZxApZtNE9gQorE5Kx4UQVfT+zK0QYg3M/Nl2Yg4CXQtsDQLeX/7ylzPX+MAW/JZkDl7swSycD2yFEIIVambpNeifLpiYZ+LTdlwIIYQYLQpuhRBCiIGjXU3TCdsj2WrYZtupEEKI5ii4FaInFi5cWHwaL5PKVwghhBBCiGli4s/cCjFX4CVf/IuXcbN48eJs0aJFxTchhBBCCCHmJwpuhegRAlyOVatWFWdGByu2BLUKbIUQQgghhFBwK4QQQgghhBBiDqBnboUQQgghhBBCDB4Ft0IIIYQQQgghBo+CWyGEEEIIIYQQg0fBrRBCCCGEEEKIwaPgVgghhBBCCCHE4FFwK4QQQgghhBBi8Ci4FUIIIYQQQggxeBTcCiGEEEIIIYQYPApuhRBCCCGEEEIMHgW3QgghhBBCCCEGz8iC22eeeSbbdNNN84PPd955Z3bkkUdmH3zwQXGFEKJPUmzstddey4444oj8r5j7oBNnnHFG9umnnxZnxCgI+7tRgF1j37TpfAW/tffee/cu48svvzxvO41RxBCR/goxm5EEt3Q8Z511Vvbkk09m77zzTrbrrrsWvwwDP1ApO0Y1gBHjZ1QDJjG3kJ6sDUEzwXOKT7TgLByAMTAbcgBOvbv0d0OY+B16G1VB3ZYvX569/vrr2S233JJtsMEGxS9CTBcxO5T+CrE2Iwlun3jiiWyXXXbJNt988+LMsGBwwiDFjjPPPDM79thjc+dh54YWsItmaMWrH4a6UsyAgWMoTIOcb7/99kp7eeSRR7JHH320+DZ3iPV3FsgPbSIk1e8NrX5l9kE9qMNuu+2WrbvuusXZuYn6tLnHXNbfsj54CH1zE/841L5i2tEzt2Les/XWW+cDb01YiCqkJ+Xsueee2RtvvJG99dZbxZnZMKB+6qmnsoMPPrg48wWnnXZadtlll8354KKMQw89dOpXXOZ7GwkxDcgOhUhDwa0QQohO7LDDDtmWW26Z3XvvvcWZ2bz44ovZm2++ma9wCiGEEEKMjNU98uqrr67ea6+9Vm+yySYzx+mnn776k08+WX3HHXesPuKII1avWLGiuHoNnPfX+2u4j/v/03/6T/l34+mnn86v5a9h15IekAZp+bT99U0gf6uHx/L0eYRlrSKsu5XdIC2OUK7hdbFyhHIou8eX1/Iz+fq2COXpf6vC0iq7LzXdMB3kgVzs/pT6cQ3n/uVf/iW/39Iw+ZJHTIf5/tJLL62VnuHvL4O8wzS5z7B6kIa/NrzOCMtJ2W688cZS+Rncd/jhh+d/qYvdzxErfyyf0A7CunHNBx98kP/15znCdvJY+/zhD3+o1AkvK6uDtYv9Zvf63zxltkua/hyH5W+yCOUUy9PXM/zd0vOE+cauiRGrB4flXybTmEzA5GlHTCc83s7IK1buums4z+9er8raB0yHsWO7xss7lGWZDXGPvy4sQ9huHD6f0DY4SGPZsmWzznFY2WOUyY17fBo///nP8+t8GSAsZ5iWyYu/Pk1/XawuXm6+jcJycXDOX+Ox8oXl9tj9YTnC9Ox3r5dh/a08ENMjDsrCETtvpOgR15N+2KdYmUiDslgaVp8wbV+fMkxGdq9vv1AG/rdQphxWTtKK1cvu8eUqy99kkOJjQpmH7RsS1osjTLdJ/jGqZAf2O/UmTZ82fzlibRLTvbBMVWnH4DeTWShLDs6FWDli6cbaOUw3lEdVer58ZcTk4u8xWfqDMjz88MPR875sYdlDeVA+Dp+H6b+1hZ0P68c1KWOn8DeOMC2j7tqYrMrS8lCeVLsO683hf4ewnOHv00ivwa2BIEIFR8m8IlqjhcrJvb5RwvvAFNg3slc8ayyv2DRG2waJ1ceUxJfB8g2vjcF9vl6Wni8z11BPnx518MplcgxlwUAIYrKA2H18RoZ/+7d/W5xZQ1nZwnYJoYy+LeGmm26qrXOYLr+HBkX9uL9J/biG+p1//vmz2sfK4dPn2rAdORerM3mE13q4nmv872E9rR7U09clJo9QB4B7OBcrn4e6IgOO2P3+XJiPydTXNZQJ5wmy7XfLj791kBbXnnjiibPSI7+YrP7qr/5qVnmBNPw5a1vOG3a/rwfn0E0DuXN4Ynpi5/y1nDP7i+UftinpcQ3XGt5OUuDemJzJN9SLWJlMzl4mlCvUiRC7jzqZXH264MvGb74swL1hW1S1j6VH+4f1Ja1QliYDX4+wHOTj9dbq7utCmmFbQ1h+sDpUyc6IlYX0YjIpK5M/R3l8enaNl0EsDyCd8ByUtZGvH59D2UNYvxikT5t632x5+HytLj5f0vffYzLhXMw+LA9/LVCesC5cE9OjsNxg6frrrVzora8TacTkFmIyats/83vYtmVtZmn6upblb3Lx+cXKxGd/DeXwNheDe+raNjX/GLHrQtnxl++x/qauTfjdsHRidhRLOwbpxe6vqye/+zoZPj0OPofXcQ11oU5g1/m6GWH5YlBPX16rQ5ge38vyKDvvy17WtuiK3W91oQ05rI6xezln1/m24prQL1idUtq07Forg6+rXZsiY99mhqVpeVl6vp78Zr+bfHx+/BbWdxqZ2LZk26Z29dVXz3rW6JRTTsm3rtn2tp122il79913s88bJf9uz27xkifeEGcvR3jhhRfybXG81OP9998naM/vNXhOrs9n5SjfAQcckD8DYVCPCy+8MHv22Wfz+pXBSy3uv//+/F6rO8/znXrqqflLWXjA3PhcEbOzzz575hmLHXfcMX+5FS8xgc8VLpfjHnvskX8H0tp3332Lb81YsGBB9rnxFt/WQF1pk/333784k2UnnHBC/pdnEMuwbYj+RStHH330TJ1T0kVWV155ZXbffffNaj/qRz2b8t5772VHHXVUq2dWeFMu+DqnvNCB+tLW/veDDjoo11F01YNe8wyewXWh/qMjV1111Sx5cA/3poAMaOPY/fZSIMuHc3Yd5T/ppJNm6TcvWeN3a1OuOeaYY1rJFygbLz3x6aH/EOra9ttvP6sOQD38OXQEO6WcxvXXX59tscUW2QUXXDBTTvJDN5uAjK655pq1/IC3vxQdr7OTrrBlGL9k6ZlM8KPmP2lP2pX2NZkgR68TdZD+YYcdtpYPQwbmm1NIaR/0ZJ999pnlA/AVn3e42bXXXjvrfKjbUKW3pvvYmLdF0rz00ktz3x2+mKhPrG/0fp9y0oa0paeJb/Y+g3RpK9q87DnpptA3URbKZCBL9MzLugz6nh/84Adr1bmuP02x+SY00SOo6lO8/7Rykb63M/qVzweL+Rimjj775zbE8ocUH9Omr0ht25T8YzSRXay/gbI2If/U8WFZ2n2RMnYxv1M3Ju8K9fR+lbzwRX483xRsqsmY2tqYepP3Y489lrch90CZ/qSMnfqiqQ61oS5WIo+u44JJMbHgluAMIXkjAgSIsWF0KCQDIgwLowM64o8//jgP5vwLTHB2S5Ysye/faKONcodz7rnnzlLqvjCn4ANKw8prwWcMOjGuYTDgYUBHIOMDnlBG1I96miNYb7318vv4VxR9DLhIizQNqysOwJQbLN+qAQS/33jjjfmgKiQ1XWRFx7/NNtvk37tCWuhHG2gH2sM7PAs6rfOogvrav5Lafffdc4e6YsWK4tc1hDpFWSmz13/03jsjY6uttio+VbPxxhuX3k8+TJhYPgTXnrA83LNs2bLe/vcmdhEGQWW6VlZf2oYA2WRN+cxeTO/6eLskMsLxx/wApOp4lZ30QUymvq0Bf0VHap27EV5XRzgZWSaDMpq0D3Lz+AnOENqItrL+okpvq2wMP5QaiLSlrG802zNS9QtiNr/hhhvmf0Mf1BbK4PtuKPMjMarqbP6mjCqbb0oTPQLKV9anhL4Bvau6vg7alfY1muhAH4T5Gyk+psrmqkhp25T8Q5rKjvRilLVJrF+gjJQ1HB+Wpd0XKWOX1DF5X/DGY2tTAugm/UxIlzE1fpDJEa6tI2Xs1AdtdKgN+KGqWKmvccEkmEhwi3HhnFIwwzKjRIm32267XInpgPgeKgKKe8MNN+TKyowYxsPvfYGhYDBtwWkymEVBzLg5DjzwwOKKdJAPb89DAQmYSKdLoGETBIbVlbL5slJ26lAFToT//ciMGvf4/+WYmi6yCjuPLnRNKxzclHUIHiYd6EBw5q+88kr+r6SQS7gKkwIDUWYPRw35EHybTtmBPfl/58KsJavqdE78Ps5/NRHrjJAxOoTP8P/KyzC9S+nI6rCgwIKEkFQdr7KTcWD+mEGjLycH7doEm/G2WV1WCpB1OOgoI7V9GGSEcm8ykK/S23HZWAxrixS6+OZREU5uVAWKfVFn801pGhB27VOa0Gf/3IYw/ya06Sv6bltPU9mV+aSyNmlCH/1RHVVjlyZ+pyuMT5EzWJt2ndjtc0w9DbTRoTZUxUqmE32MCybBRIJbHAEOIRUEj1ESJBDkYqSkgcNDqa0j9at7/E7QZ4aDkve1uhTOoDcFAwz/b64dDAbDWZIU2LrA/dZ50CmAzUK2xepKumFZOfyWiRjUhTpRV8pBB0c7pqaLrKroWr+m2Na72KRKDByEbV3t4999MKBnYD8qkCUyJR/+vQtBV6x9aEeDDpJzBO7M5h1//PEjCc7qdIG2IECkzL58nq6266lriya2U2Yn48D8MYPGWDmb6q0NotjSRJCLn/aDvyq6tE+dfoSU6e2obayKJn1jV988Cmxyg4Ezvo/+ukn7l1Hm41NsvilN9WiSdNWBcet6k75iFG3rGZX9dPFho6Rq7NLE7zS5NoQ+zR4z69M/jWJM3RQbO/VBVx1qYte0ZyxWsnbua1wwbia2LRllxLhCx2Ydos0ogW0Fe+655/ItyRbEokykwXl/fQiOkQZC8fvAAqrYtgBmxRjYVQU83Otn0PoEOaCgzLggSyOsu5Wzjqq6NgFD4Rky2pGVkdR0U2XVtn5NoR4M1tBROl7Kl7oq5aGDefnll4tv6eD02EbC/R6zmxRYlSq7H2dGHcvyqQL743mQ2LPEqcTa2toSWTfFOnGjL32GOhm1ySu0k3FR5o/bYIOo6667Lv+esmXf6NI+3FfmK0iPMsVWEEO9rWpXJlKZUY9tTeuLsrYgb79rok9d7hP6PsrPzg8CmNT2L6sz8mawlkpo801pq0eToA8doD8IfQ2636Z/SqVtX9G1bT2jsp+qdK0vqxofjoq6sUuTMTmEY8y2bdNk7FJGlc32ScrYqQ/60KE2dh3GSn2OC8bNxIJbHuCn8U4++eRZgiMwo0O0B74Bg8KwHn/88XxLshkYQe7666+fz8z4hmZ26KGHHiq+fWF0NBTw2S+/NwUF5gFrHIStkAL5sHedmWvKW4YN/sJ97mG5U+D+m2++ufi2tqGZQ2NrgdWXa1hNTOm8uJ9nUmLPypCvL38IdfGrT36gkpouckSeJ5544qy0LO2u9SujylkysOU5Mtq/blWC32gLymZ1otzMXrYB3UdurM57/X3ggQcabUMjfy9P7I762rNxZfkg25tuuin/C6EO4DwJDAgQoGmQTJvRdpY+aWMn2EvdJIINgH1evJzIBwS0R5ntejtKcerIiNlnZOR1GLmin6k6XmUnQDl9WWO0mYzwWABy8cUXz8gekIFv/xSs3vfcc89aA6I6UtsnRpmvQPak51+KUaW3Ve3Kuw14SUndSkCXgXOsLShrqAOp+tWE1EFiVf1s8vmuu+5q1P7YKfZqmLxp0zJ5p9g8NLGPJno0aZroQKxt7fk9dMuupc5t+6cqqmwuRmrbtmUU9gOk22V8OEqqxi5NxuSMtxlvMO4wUtqGtmbi1vuNsrFLWR8cO9/nmLqOurETNPH/sWu76lCqXYfy4Vpka7FSn+OCcTOx4JbGYymcBrK93hzMBrEHPOwQMSYGSz6I5RqCXWYozBEaP/nJT2bSJH2cWJ9bW+hscYg0cJhP3XaLsrqjtEuXLi2uSgcDsDRQSoIpXwabjbFnS/bbb7/suOOOy7dxpEA52RqEYVg+HBhl1cBl5cqVs57ZZKDi30CZmi51YUDp0/rFL34xM3vetX4xzFmSJwbunRnlp53Qu5QVHAbJOC9ra4K3K664otUzt0B9cahWXw7gXApsV+Gtr+ib3Y8eo89+EEk+bB/y+aBf2Jx1igRhXofZhurftshfbAIZ8Hs4iAihzXDc5MP1pI2eYC++I45B2amX5cWBv0A3PGW2u+222xZXfOHUOV/1DGxMhxkUN9HxKjuxzsb7vRhN5RzC/fhdMNlz0J51kwoxCHAOOeSQpBcJhaS0TxkxX0EdQt2u09tYu5Em+pXSj6CrNnDm3jAwrYIyUBYGlNYWDDgvuuii/E2fnlQfmkqV3/NU1c90Meyv68BOve5RBtqyqj+lTVNs3sqUah+pejQNpOpArG1pR3sbvdlD1/6pjDqbC0lt2y70bT9GmQ9DB6v0edRQrrKxC7qQOibnGsYbTduGNFix92NWiI1dyvrg2PmysrcdU5eROnZq4v/Lru2iQ03suipWor36HBeMkwWr2RcihGiEOaBJdlRzDRw5uw78v4CZ7zAApdOmQ+0y2BJinDS1ZflTIcaDbK0d9MXnnHNOPsnoA1kxnUxs5VaIoYKTY+axyaqEEG1gS953v/tdBbZiMLCSwsx+3SMbQojxorGLmC8ouBWiIfaP36d9W4YYPmwPStkGK8S0wDswwLYPCiGmA41dxHxBwa0QibCdh+cNeAZFW2eFEOIL2Ipsz2NVPUsphBgvGruI+YaeuRVCCCGEEEIIMXi0ciuEEEIIIYQQYvAouBVCCCGEEEIIMXgU3AohhBBCCCGEGDwKboUQQgghhBBCDB4Ft0IIIYQQQgghBo+CWyGEEEIIIYQQg0fBrRBCCCGEEEKIwaPgVgghhBBCCCHE4Fmw+nOKzxNl5cqV+bFq1arizGhZuHBhtmjRovwQQozfBkeNbFwIIYQQYn4xFcEtA+qPP/64+DZeFi9erMGvmPdM0gZHjWxcCCGEEGJ+MBXbkhlYT4px5/3BBx9kRx55ZHbnnXcWZ8QksfZ45plnijPzk0na4Kipqttrr72WHXHEEfnfSYMO7r333lNRlnGDP8QOscc+uPzyy7Mzzjgj+/TTT4szo4X8OMRoQcabbrppr7oSoj66f3sEbBGbpP3GaZujYNz+RbRD47u1mUt2WMVUBLeT3AY5DVswR9GR9AUDbQbcZc4hFhxQHwwnPMLBghnZKAaFdeUWs5krW5FjzOW69YUFDWX22udgTsFDc0xmKZMf5vt8e80FmaODy5cvz15//fXslltuyTbYYIPilzSmPSCZy3aBzM8777xsyZIl2TvvvJNddtll2brrrlv8KoQYB/PJDvVCqXkKHT3HqNhrr72yV155JTcgjieffDK78sorR5pnHQwapm1wM41lEvMHG1CD2SrHfffdl58Ts4lN5o2Tl19+Obv33nuLb3H4nevmEugpE5W77bbbrMHYpNujLan979DqV9afvfXWW9mzzz6b7bHHHsUZIfrV71GPaecC88kOFdxOAYceemirmeghsfXWW2ennnpqPkBhoDJqyO+RRx7Jdt111+KMECIEG4ETTjgh/2tgN/gl47TTTuttlhc/h7/z6Ys0Dj744EofakEg13kk8351eBSojYQQoh8U3IqxscUWWxSfxLTz2WefZRdeeGG2884758cpp5ySffTRR8Wv6Vg6HHxuw+9///vs8MMPzx588MHijOgLtnhil+utt15xRkwzu+yyS/7XJiVCOE97br755sUZIYQQYn4xkuCWrSn+2a0hviTFtusxC85WB+rhtzzY71ZHPsdm0+1eO55++unily9AXv5+26rx0ksv5Vt8uI9rjFC+/jeDbUF2rx2UhfrwedmyZfnB57Ky982bb77ZeCBNmcNtTsgHnQrrzbXWRnYN9bXPBGg33nhjttVWW0V10su1TGfDducIy8H3mEwpi6WbWiaPtZ0/OOcxGVj6dl1MR8ogCGWFY5NNNsmef/75/CDA/fGPf9wqwB0KyM3kVWYTXkdico3ZXWybXqhHfF6xYkXx62zCtgzTowycw19wXZ0eediehP69+OKLxZk4yMbnG+ZpZUMfQxmE5bW61+lkKOuwXpYOeVrb8TckLLuRWg6wOu2+++7ZY489lv8lv/DeFLuLtT3nUvizP/uzfFX9qaeeitbn9ttvz7fufulLXyrOrqGsrmFZfJn569s4lD+/+/ti9Qh1gSMsQ+jXYvlsv/322aOPPpr7S65hhTOlPTxlemC6Y0esj4awbcO0+N22WPo0vVysrrH+17dRlb611Wf7nTJwjZXP0q0jbCcOzoHJJtafUV7Kz1b5Aw88cNZ9EJbFy8vgGuoc6qLJ3I+VOMjT7rNzdk8dVfUsI0XPTf5V18SwOpos/f1hufidw+rgZRnm738jbeQTqyfpeX2rSgfsd9Iqk3+VfkOYB0dZG1hd68a0KbpgcrDrfL1jWD1M3zyh3MCXIZZ+0/w9YdqhDChPlR3ONXoPbhEmqwEc9vzWAQcckJ177rlrKdsQuO666/IBIPVgWxOggGwdOuyww2bqyIDj5JNPnqmjKb29AINreAb1hhtuyDvpFK644orspJNOyu+1rUooKAMYe57VnmU1pwCU4fjjj88/+7wJVign388888z84PM4tkRjRHR8yKzJtjBkzzMCPCtgEARgoH6AR53JI/YsgW1Rvuqqq7Jjjz02lwnfOW9g7IA8OGI6S/oMsny7t32WOKVMHur5xBNPzHqOmXvPOuustZw0Dv6aa67JVzq5jucnkX2qI/v1r3+dvf3223mHatjn3/3ud/nfVNZZZ51cjhx8bsPXvva17Lbbbsv222+/4ky/vPfee7nTNzunLZiEufjii2d1LCm2R5BIcGFtxLVM6tBWRsx/4FuOO+644oovoM0o26WXXppfR9mAl0L4sr3xxhvZXXfdlbd5lR6F4A/wA+h/k44UGMT+7Gc/m9Ez0kEfqYfVLVb/FLA76sphMirrR2I+2hPzIYCcgMFEHfgsJnxo8z333DP/S35+C2mK3aX0HXUcdNBBeX3CCYlXX301/5tSH7CyWJ/AQb38v82K6RU6gq54W7B6kJ75I67zLy+JpY9NoTMmTw4eX0HnTW6kST68xwE94hoGbnXtUYfVI6WPTrXDOl+S2v9W6VtXfcZegPQ4TE+9Hwuh7FX9T1V/hk1S/h122CHPi3uRg8m/To+MMh+HzH/4wx/OjJXIA1s88cQTk/yHp66eMbinTs/Rn65jh3POOWdGrzgoF37b+xdgcua5557LrzHdMlsv8zvs9GBXCHX38Bvp27Pudel4qsZUVfrN76Tn86BNy0ixqdTxXYqNtwX78rpO+jvuuGPxa/v8U+2ozA7nKr0HtygUQvQBDJ0x/073/fffL87UY1sRY9si+YsSs6LEebuG7x5bcbLj2muvLX5JB4cUKgAv7MAR7L///sWZL55Zsw6GgQeDurPPPntGFsiG7ZkoVx047H322WfWIBUlvf/++3P5muHyO4MBFNsM9frrr8871AsuuGBW3kcffXT+eRwwOEB2NouE02xjTNtss00elL/wwgvFmSxPizrzf1k/+eST/JwN7Li+DegTjsBAZ999992ZdHEgyJgOxV+H/HFGtEtZ59cHtKNvd2AQg2zCFT8GgV7vcKAMOMKOqwycLPay/vrrF2ey/DPnrCPFPpEZDths0NsoYG9me7FtyeHWZzvMTknL2zeDGo/dzySHTyf0AynQrqabyI2O1Q8gU23POhSDa0mLAbR1UPgPOld/HfdRBo/pHHL2ZWMQFwY3+Iujjjpqps2bQJ3o7GzFJTXIxY9RFssTm4GlS5fOlNfqj974gUQd3Jfaj8R8tAf9x1/7FzFRP/SG+7xNdSHF7lL6jjrQO/QH3bB2Ml1JrQ/XE4iTDnI2SHvfffctvsX1yvq2q6++elZe2KqXM76Z6xiQGz59bIqBOPbOeQO7QOd9/UZBah9tsk2xQ6jzJV3pqs/YS8z3UMcyG6Ueqf1PKql6ZFT5OPyw6ZDZHeMD/y6BsE+P0aaedXpu+tNl7EDdGQ+bXkGZnSxYsCC/1lPnd6g3AWzop8MJsyb+i7L5+qbIH/Dv+PmddtqpOLNGR33dm1JXlqY23gbGSqRtukX6xxxzTP63S/5N7Wi+MLJnbjESC2yYjWDrQaoTZFD7k5/8JO90GKhy4Bj8YPuPf/xjPhv6ox/9KP+dz3SSPgD+13/915n777777uzhhx/OPzeBwZ4Hw6dudFgon8FWWwJKm21hQOMV2dhoo41yR5kC6XkI8FBWnLeH6zBUnIKVL3yr5Ljxb0um7ZhJpVxNQX7I0eRK/X7zm9/kHQdtbM4J40YObZ8d9B0TWDuRLjAwYebYO1wjFoCPCjpBOhrsikEKkwhWRiPUO/SAWWUfYNWR8sweq7i8uIYZcuyKwPLWW28tfs1mzmObMVj1Awa4XIcz5uA+wN7RHX7/3ve+l5+L8f3vfz8fpFte3g+ksPHGG6/VrhtuuGH+13xWiu15mI03/0edaCMGQWafob5BaO+mcxY0GqFuAt853xZ0Blu1IJedH36QEwN5eD2xcoU+swsp/Uhdfuh/OHArk20X6uzO2r6u70gB/fEBU9P6cD33x/TQE9Orsr4tlLPVq2zVC5vacssto74mrN8oSO2jy2Qbs8MUX9KVrvpc5ntifiwkpf9JJVWPjDIfF8rc7I46tR0PNKlnnZ5b23QZO8T0CvB91rcYYb1T/Y4FsD5I9W3U1H+FehazlxhcR4Bet8rehLqyNLHxttBWjINjOyS65N/UjuYLvQe35hQY3FlwY0vhTaFRqiD4ZcsiMPD58pe/PNOIDIz/8i//Mv8MODsGpmy3bAJG68H50wmwzcEGXRwoLoNCYCDDgKYLODPrFA2ch62u+LxtywVY+cJyTxKbYUQn2hgZjskMlGB28eLFeVti0Bg28mbWGkP2TrdPGJgwezopqDtb8Qj8CN6wK+yLSYRJwhY+glpgkIrupbw4imu4lqDUtivTnqn3ewhorQzf/OY381nfvp15iu0BHRfngTayyR3D7DMFdM4/j2SHDbY84YCmLbQBegXsAJkUTfqRFF/HwBC522RYVWA1KlL6jlTwf35Wnr+smPsV0Cos0Ar7mJBQr5r0bfhith5i46bDfmDXJJjvmyb1aGKH42Lc+tx3/9NmjNSXj6uiTT3r9HzcYwfGun4clOp3CI7w//a4Fz6YVWULDPv0X1VQDsYVtDc2Rh51sUBXxmHjjIOZPGaym7T9Dqm2+bexo/lCr8EtgratTl2e4yQwveSSS2ZWgzjCLYkxWM398MMPi2+zt0XS8d9xxx3FL+2xmRTbsx4etpUOB9M3OBF7niXMl9k2BjZWvr6omznCKJll47oqmJHCMaZuvfMwALOOnGDWglicLoaNEy6bGe0LysCEQwopg+2m2FZz7CB1ANsFZhJjhCt1X/nKV4pvWf5MLLOtKc/Wcg16RedJMMvBZ861fTZ3lKTYHnrIM1T4Br/V09PEPtE5/zxSePhtVn2C32Z2flIzvn31Ix7ah/TGNRkWw9q+qu9IhXLbrDyHH4Sm0MSfedr0bdSL+tnAzp4xxKYmRZN6TMoOqxiFPqObZf143/1PGz0aB13qWabnbW0tFcpbFfQ38Tv4ENsxEe5W6tN/1YF+MGFAukwOE1DHVjz7oq2NN9VjJg9IjwkTxtS2Q2pc+c8nRrYt2YORNP2n8rYlkQCXLcXM5PC5DBSEFRsbbOOcuP6Xv/xl/rdua2MqtgWDTqUKOu7Y4JAAre1MEPnWbdVKLV8q4WxeCPnwe90AlI6C52IY/BMENIGACifLSxLYkmxBLA6BoJbzo16FwbETxMe2D9GmBN8+uOY7M52evtrE6KJLVdCe2Izf2stnzm222WbFmX5gwomJJw6IvVRpGkixvRg28DSq7DM8V6Vz44ByjnqlpAlt+hGP7QBhhpyBhW3DGxd9+2YrPy8Iim2Zr6KLbpX1babrZf0B5+nTmZDk2iqbQkbhtve+Se2jJ22HZbTV5zLf09Teu/Y/bfVo3DStZ6jnTccOMVj5De83ORHcVE1qNPE7tiPkV7/6VZ62nzDp23+lQmDHzr9R7vToauPW1gY6jW6XgV7zbL+9Q2IS/niu02twa7MIXtC2mtEFGoZ/gVDFP/zDP2Rf/epXZ2Yx6DAZiJth/uIXv+hl5Zb0WNWI7Z2/+eabZ+ptHQ1bJk3p+c1m89pgjid8FgEZP/TQQ/lnysdD6Mzk+7y4nvIZZQYRg1VXBiF+eyVQf/JJec4HkAkzf00fcKdOOFlWyGhjG/Dwl6D28ccfT5q1rhpM1YEOMjPJjKxvd2TPszb+hRb2HA2rT9b2yBqdCUktE+3lr+uqS1V8/etfz//652f5jD194xvfKM50g2D5t7/9bT5xRdDMkbrqOwlSbI8Oinb3nf8DDzwwa8tWmf+I6Qc6x7XoHL8b6NRNN900qzONQfrYXNVkEjrk0wa+k2f4bNW4IM9R9CP2sjneuBp2+MiSbWKhTw/pMggpa3vwfUcqph/33HNP41W7Kn9m+lwGL5PBb4VvSKV/IMiyF8zwm+9zkLEfjNMGrD6yBdTrKOWhX/EvKyujS3uk9tFd7TBGav9bVb8qfa4C/fP1QN6cq7L31P6nSR+bqkfjpE0/yzVVel5la+HYoYpwYQA5Uda68RdlSPU7XIsvOf3009eaMGmSTiox/Q59EOmir7RNFak2FaOLjTPJRB9PX2+wAyCcEAllRJ2pOzLokv802tE00PvKLY2DoG2vPAN8/qVNk2duwzclf+c738k7QT57WNK3a8APjvnXJTxfy4oQv+OsKFsf0JGwfQBn4/fHM7NlHQx/eXsZyoXR8TvKd9FFF7V+TgXnwlYN8jf5clBvW/kCHCXOByOxa7h+2223La74omPnfPj/sEJi6XHgwJts3zEDDjvXFJjZZPYSPUIOYI6YwR06V4cFKDzXUDfojxFrd9LijYd+2wj1ZFaOjsfanoCH7TwhqWUifWzAnsnoqktVxB4LgCbBJ8Er9sa9PBtvK7Sc4zfywK4POeSQmTw47Hew/LmP+0mH7zxuMG5SbM/anYG5/Q7hpBBp2NY1u65MP2h3zvvnnNCp7bbbbsYOuhI+Q8WACz2nnJMC2XTtR0LM/+Avwi289A8pjzZYGtZ24SCvjpgP4fB9RxMoLzbkB6GpxMpCoFnnz8tsgdULdlj5enhbQG8Z8Pvti3xmcO+fNeOtocg1pV/p0h7cm9pH922Hqf1vVf3st5g+V3HbbbflMrZ60P519p7a/zTpY5vo0bho28/W6XnM1sgjHDuUwbZmrqW/sfsZQ6XaSSx/jpjfwafgZ7kn/K1JOimYDof6zQtlLW10g2vq5JRqU2W0tXFkQh9vdeDAHllt9rBC7/UcG/RvOG6b/zTa0TSwYDXr4hOGRmgCg98f//jHeUfMYLcrOCIh5jNNbbArTGAxyUEHYC+F47lbnDSrn9h2n8jGBTB4YlLO/5s0YKDIYCM8L8Q0U6bPMRjsE6wRdDEQFsOACQL+xy1BdupCghDznbE8cyuEEB5e/BY+k8zWG3ZbjPI5OzF/YXBPABvbwsvKOasDCmzFUKjSZyGEmM8ouBVCjB12XPBYgd+WbI8f8NZlIfrG3tQe28Kr1SwxNKr0WQgh5jNTEdwuXLiw+JSGvUm5jy3JTfMWYi4yCTsgiLWXSdkxisBWNj6/Yetm7BknIYaI9FkIIaqZimduV65cmX388cfFt/GyePHibNGiRcU3IeYnk7TBUSMbF0IIIYSYH0xFcAsMrjlWrVpVnBktrOYw4NWgV4g1jNsGR41sXAghhBBifjE1wa0QQgghhBBCCNEWvVBKCCGEEEIIIcTgUXArhBBCCCGEEGLwKLgVQgghhBBCCDF4FNwKIYQQQgghhBg8Cm6FEEIIIYQQQgweBbdCCCGEEEIIIQaPglshhBBCCCGEEINHwa0QQgghhBBCiMGzYPXnFJ+FEEKIibBy5cr8WLVqVXFm2CxcuDBbtGhRfgghhBBiPCi4FUIIMVEIaj/++OPi29xi8eLFCnCFEEKIMTH2bckffPBBduSRR2Z33nlncUbAM888k+29997Za6+9VpyZbi6//PLsjDPOyD799NPizPSDbJExsjaa1INrN91001x/f/e730mPP8fs2ctUDAt0HxtAtydl0wS3c5WquuGTjjjiiKnw+0Prg0Q59FUcQgyFJrHBNPRZk2aa+o5pZCqeuUWZUWqUW4wXDCMM+MbFkAJkyrp8+fLs9ddfz2655ZbsK1/5SvHL9CK7EnVge+edd162ZMmS7J133skuu+yybN111y1+HR9zZStyjLlcNyHEdMAYZT5Mtk9LnzUq+h4XT3KMP0nmxQultLokGXQB2SG33XbbbU450abQcc7XWdK5yltvvZU9++yz2R577FGcEWJ8qF/qxjhWb+ZiGxFAcMxl5qptzbc+Sz6yHVMR3B566KH5atgGG2xQnBHjYuutt84eeeSRbNdddy3OjI/TTjttzs26TROyKyGEEEKIYdD3uHiSY/xJon8FJIQQYqr47LPPsgsvvDDbeeed8+OUU07JPvroo+LXdH7/+99nhx9+ePbggw8WZ5rTRxpCCCGEGA8jC27ZwsjD3nawrM7yeoyyZwPZNuLTCJflbWuJ7Sm36/xzB/y+/fbbZ48++mh24IEH5r/XbUdh26U9rG6H3WPbgF566aWZa3x+Yb39b4ZtM7Br+LxixYri19nUpcd3yvH222/PStPXsUoGsf34fLZ07KjbEhGTWazuHsrgt7mm1KWMWP4+7bZQJpMdA2zSrapXle5ATN7ANaENmK7xF8J2Ca8PoZz+GtM70uE3S4fyWB4xrMzU/8Ybb8y22mqr6D0paVpadl1KG3GPyQE52b0cMTlymKxi9bd7Y/Krk3FdGvZ7qozD9Di8ftXlV4XPP3Yvctp9992zl19+ecYvhPL0hLIJr29a9zIIbJm53mSTTbLnn38+Pwhwf/zjH7cKcIeC1+2ydg7b1OsKhPrCQboh4XV87toH0SfS1qntTbnq+uYw7zK5xKAMVb7Gyp3S34TlsLRMjqFMrB/wadXJiWt9HlW2aOljv4899lj+l3vCcoQyKCun/c5hdYOUNgopk5VR1y5GmI61vckc+ZjMfJmq0jcftmzZsvzw6UJd2UOsLP6eUD6kSTpt253fOerakhU/dmsB16e2G/WjfLHfORfKoK/2JW2fztNPP138Ug73xPqsOp2ItVMoP8odju19Or7eYRuGlMnU9M+3sV1r5eEekxmfU9qRc1Y2r89g7eHz5HqOOp0aMiMJbhHalVdemT355JP5A98cBxxwQPFrPdbY9gIf7r/vvvvyxvUNBDioa665Jp9Vt+sYhNt1GPwrr7yS7bXXXvlvXMO5MlCK448/Pv9seXM/Ay3PFVdckZ100kn5796h3H777fn1nKf+yMErDMrE9Ycddlh+jZXnuOOOK674gpT0gICDNK6++uqZ6+6///6Z65rIANk/8cQTM3lyXHXVVdlZZ51Vaszc4x/wtzK0+fcXdXUp48UXX8yfibX8Kf+bb76Zl70LtJXJjrRI29o7BPnst99+s+TAveiiOavNN98822WXXXIZG5xH13Fgr776anE2y1544YVsyy23zO8hDdoAeVjaTWzKgx2BT+fcc8+d5RA9tq2F+h977LG5XfCd80ZKmtSBjunSSy/NryEdQHeQQR3nnHNO/pyN5UF5Yj6BTvK5557Lr7Ft2TG7Y5vOySefPFPGOhmnpGGkyMPSIw27zttNk/w8yBJ9877D7iU90gXsjPx22GGHGb/ANTFIM9UvNNWvkF//+td5wMFAw7DPvKW8CV/72tey2267LbfLtvSRRhXvvfdebhem29jFFltskV188cWz7CKlP8AuaVeTPdeE/jOmV9zTpQ964403srvuuivvh0PfUAZ5km6sX0rV4TJSfU1Kf8NnXw7S2nHHHYtfmxGTk9U1ZbxjsGWRCSDKu+eee+Z/uQ/ZGHVjI6jrN6vaKEadrFLbJWUMed11183YjJWpLn3ztWeeeWZ+8Nn6iDbtnGJv0LXdU9rS07TdUumjfWP1Jr0bbrghHwNVQR2QcVmfVaYTBIje35EG+oWeefDFP/zhD2fG9uSB7E888cSZsnLU9WnYJ3ZF3v4abAv8+I9niNGPnXbaqTjzBXXtmNp3xGiqU0Oj9+AWwWDc11577awO7uijj05+9g+HywPjKJjtO0eBcUYYlm80Gv3ss8+euQ5DYwDulacJ119/fa4cF1xwwUyalJvyGyjUPvvsM6t+dLbUG8WzevL7qaeempfZFPzee+/NDcN3QtTNOhMjNT3A0NnC568jj6eeeqpWwUOos88TmNkhuC+b2f/kk09yo8XADMqw7777Ft/SaVsXG/QY3I8zw4E2lUFbrG2986Ec1Ad9Rq9jTg/nxv/4RG/N+VFm6mwvseI8QTGBrtHEpjzYkZfVQQcdlL377ruzAuum1KVJfdBbrrPOiHph4yabKrA5tob6joz8Yj5hwYIF+bUe2gb57b///sWZLDvhhBPyvww2oE7GKWkYKfKgYwn1xdtNk/w8yJK6MGD3+kHHRXqk25QmfqGrfmEbrNSuv/76xZks/8w563jZKkw+dObUK9y6zF87z0EHHhJufbaDvgvq0uB3ysDKsl2H3lG2puD/vV3gu7ALfAOk9gfI3duI+U8bZIL5Kd9G3NOlD8I+jzrqqLzsfdBFh5v4mpT+BtmRjl1DWsccc0yrusbkRHlSxztNSBkbkY/XA+rYpd+sklVqu6SOIQlYLB1o0u4x2rRzir1B13bve5zblj7al7/Ytq8P6WGH2GMXynQC3+b1nHYiAEfPwoky/JvpncmZ8Zn1vZDSpxGshn0+fgX5ePvyixhtqOs7ypgWnRoVvQe3CCYcIDaFNHAQ3rEB2yExCoIpwxsa0FCsnLVxznTWOFYLKKogAPagoNQbBfFwHQr+/vvvz6Tvg0CjTXpGTN4xWTUBg7ftCrYtgvRirLfeenm5qlZ3U+laF2bibIsFA6EuMmhCVdtSH+plTgOnt3r16pk2pK232267XO9sUGUTBqYX/GWVIRyAtiEs40YbbZQHKWXtm0JdmjY7SafgSc174403js5sxnQDWaGThrUNTt/btemtDUSqZJyahpEiDzqgmL5A0/w86FnoF4F0YrPJTUjxC33oV0r/wSruwQcfnM+q29blW2+9Nf+NYJh2ZBX/e9/7Xn4u5Gc/+1n+l2ssQOUgPUhJ449//GM+S/6jH/0oT+Mv/uIvsptvvjkPnFOJ6faGG26Y/7WJgyb9Af6DlRHzg8zQW39Y5adIy9MkT9qXdu6LLjrcxNek9Dd8R4bhalwbYnJqMt5pQpOxUV/9ZpWsUtsFecTaJYS8PF37mLbtXGVvRtd273Oc24W+2jdm23ZdF8p0IjZ22GabbfL88HNG6ItNzvg8P6ZIwcZ9Vm/KQpCM76VMfAf6cvIgr6ak9B1lTItOjYpeg1sEgmDaNhRYGhiQOQs7cLqjhM6aTjvs5ENQKFMgAwVlYIxx+TLbFj2w9FNISW8UMGBgzz4DPGZO2a5g2yLKoK3ZIoWjZosE5exjINAE8iNfoMwcfQSCqTRpW5weM3U4VfSdgBaHh5Myp2ezfThgwBHZlifqGT5XMe3gaP2zYXZYgNQnof+xtsF2fN7YFjZmVMk4NY1UrOMJ/YjRNj/zn33Txi+MA7ayEdQCdoXMUgJLruFafNY666yTn6P9U+/3MPvN1mUgDbZU9z04SO0PCFK4hgDQ/CArBcao+qA2g78yuupw376GFR/bskc6BDJt2zeUk9V1EuMd6LvfrJJVSruYPFLGkOE4rWu7t2nnOnszpq3d29JX+46KmE6waj4J0F+/YGGLGEwW2viPfrVsslF0o9fglsbEKXXB0sBBmLPwxyj/tUmXmSMcHEv6DAjCMtszFk3ST0lvFNi2bLbgNc2D7WuUz5xf+DzDqGA1iecnyNdv8RwnTdrWdBynR9mZzSOItaAXhxyb3aQ9aHt0gjaio+m6Uj4uCOL8s2HhQV3aEg4cQqxt0I9Y3l5nymTcJI0UkAeTZGW0za8PHxyji19og81qh/jVHGT0la98pfiW5c/E8hyUBatVcA3yZSKDYJaDz5xLuX/cpPQHDJKoAzZWZk9N/NSk+qCuOjwKX4Mv5l4mdFiJ4b0cDEzxO9hFWyY53hlVv1kmq5R26dL2fbR7WdljpNhbGZNs95CmMp9U+7ahrp8dNfgGdmhha7aIgQwIevGr4SKG6I/etyXTIVZtGUqhjzTaYB0VgUVTTInLBmVQlX54LiW9cYEBNpnxxvkx+8sMXd3M56ggX5zJuKhqW9ow3ILKZzoGOgJm8+jIzPE/9NBDuezKZvO4jtUiBqkEwkOAQTXPwvotQE1g9jW819oYmSGTMtrYdSjjLr4hRp08uuRX5j9NXthnHwOnpn4hFcrHFl//ZmQ+c26zzTYrzvTDHXfckS1dujQ/IPZSpWmgbX+ADqALxlD6oC463NXXVEGePBvoHysBBqoe8/kpTGq8E6PPfjOUVWq7tJVHn+1e1s51hPZWxTS1O4Tjtbq69N2+o+hPqspEfuxiiW1Z7gvb+swLLm0RA/CtyIDzffXHYja9B7e8/ISGC9/oyXNIqUbMM10QvvELZagytjJSB4oMaHn4ndk4v+pIuSl/FWw1YH997I2oBCtA+jxDFz6zQJ0450lJrwmpMsDx+AENedetwIbysQ6yLujoCxwYDsTX7YEHHmi1XbQtVbpDG7L9ESdm4OR4po8VkDDo5TX33hECbU7bG+aYmZkcF10GuzhvdJ8VfW/D6MpNN900y87LYJXBy4AJFMoTPuMTUmZ34P1SlYxT00gFebBagjx8embfXfIr88HIiwkV/2KMVNr4hbZ8/etfz//a87PAZwLbb3zjG8WZbhAs//a3v83uvvvuPGjmSF31nQQp/YH5Aj+QY8XdDxjL9GoUfRBp1j0+UdYvddHhPnyNJ7Q35MuAmX4HebIKg+wsL9LnZXH48RS6jHe6BHSp/WaTibYqWaW2S9sxZJN2jwVYVWWPkWJvVfQ9zg1p0m6MO2h32t+I1aWP9o3VmzRH0Z9U9bO8I8a/PGoUkD/jvscff3xmEQPKxn8xmrSj+ILeg1ucPc9f0qDstbd99wwSrWHr4DqepQKckKXBW8/ocJviO3TSqTIiFB0jwDgtX+qx7bbbFlfEKas3AwNbFQB+ZxsQxmbXoLSc86Sml0qqDNg64p+dpYO56KKLap+tI6izMtJmBLZ9bnWqAn1hBtGXAbo8O9SGMt1B7qEsKDPOjo7BB7F85tzixYtzp2asXLly1rMsOObwbZKjxga7lIMOygeCKaBb6Ll/jhRdQQ7oZxVsLeLthui/3YuckXeKDLAjVskJkO1+DmRsfqlOxilpNCGWHs+0ds2vzHcwM49fbVPWtn6hDXT6l1xySR5w2puKgbZPDT7tXnwlq7OswvOd9gTy+M53vpMdcsghM3lw4JdtxbgujXGS0h+gN9iI71sYOIXPAJLGOPog0uTeOl2N9UtddbiLrwlh7OLLwDjEv8WZvJCx5cX2eHYAsKU7BdJpO97hXgsouMcP4Ovg3pR+s6yNYqTIqq5dyto+ZQyZ2u4WYJG+TcDUlT0k1d7KIN0+x7khTdoNWdPudXXpo325lnuYpLJ6j7I/oW5hP0o/RttR3lGDHO+5555ZQSwyQCbsSKtboGjSjuILFqxmT4EQQkwpBNH8j1s6v5RAVgwPgpZxwr/rYbDA4M1eBsVztwyqWc2yNyb3xTifM5sGWJHhf1syKGNwKYQQQoyL3lduhRBCiGnmww8/XOtZOgIy3nTsX1ol2sH29S9/+cu9rEAJIYQQTVBwK4QQYqIsXLiw+DQe2F7MWz79tmS2KbP1mm2lfTLuuk0D7LD467/+61lbQYUQQohxoOBWCCHERFm0aFHxaXwQxNrLpOzoO7CFSdRNCCGEmK/omVshhBAThxd6caxatao4M2xYsSWwVXArhBBCjA8Ft0IIIYQQQgghBo+2JQshhBBCCCGEGDwKboUQQgghhBBCDB4Ft0IIIYQQQgghBo+CWyGEEEIIIYQQg0fBrRBCCCGEEEKIwaPgVgghhBBCCCHE4FFwK4QQQgghhBBi8Ci4FUIIIYQQQggxeBTcCiGEEEIIIYQYPApuhRBCCCGEEEIMHgW3QgghhBBCCCEGz9iC29deey074ogj8r+j4s4778zOOOOM7NNPPy3OCCGEEEIIIYSYD2jlVgghhBBCCCHE4BlJcHv55ZfnhxBCCCGEEEIIMQ60ciuEEEIIIYQQYvAouBVCCCGEEEIIMXh6DW6feeaZbNNNN82WLVuWH3w+8sgjsw8++KC4Yg1sWea3st+Bl0PZNRx8T2XFihV5umV58JlzlNfK4rdR2+92P4fPn/v23nvvWS/H4iVWvMwqfKEV1/r8w3qF14d5h2W3F3O99NJL+b1c00Q2QgghhBBCCDEX6TW43XXXXbN33nknO/PMM/ODz7fccku2wQYb5L+/99572e67757tscce+W+vv/56tsUWW2QXX3zxrACPQPP222/PXnnllfy6J598MrvyyiuTgrg33ngjO//887Orr756Vh4nn3zyrCARrrvuupmynHbaafk5gtHtt98+O+yww/LzPn8LgLfZZptsk002yV544YX8O3zyySfZm2++mT377LPZW2+9VZzNsieeeCKXCzKg/L5elG3HHXcsrlwTuB566KGz8ubeWNmvuOKK7KSTTsqv4R4hhBBCCCGEmM+MfVvyVVddlQdssO666+aBnA8ICfDuv//+PNi0oHjrrbfOTj311DwwDIO8EAJoVjTtXvI4++yz88+PPPJI/tcgiLWyAAE2eVBGHzCS/6WXXpqXi/KRNvc99dRTM0H5q6++mq2//vp54MvKMVBWgmUCaCCYtUAXKNsxxxyT/4V7770322WXXbL9998//w4nnHBC/teXnTrus88+ebmEEEIIIYQQQow5uN14442znXbaqfi2hg033DD/awEhq6EEeH5FE1h9fffdd7P333+/OBOHezfffPPi2xrWW2+9/H6CS89WW21VfFoDATYrv2EZIVytJWBlpZYVW2CF9rvf/W623Xbb5Z+Bsq5evXqmjuTHdu3YCrQFwgT7FuxCWdk5J4QQQgghhBBiDVP3QimCuBtvvDEPBO25U44DDzywuKI/wgCRAJtV0RQIdoEVWwLT3/zmN3lQTNBLkMo5AuEtt9xyJthmNfi+++7LTjnllLxO/nlbAmGCd+rp640ckIeHSQILmIUQQgghhBBCTGFwSzB37LHH5kGuPXdqB1tzu2zFDVdqQwgYCRxTsBVVVmkJcBcvXpwHsQS9bE/+wx/+kG9b3m233WatxLItmbrw3C0rv8cff3weCG+00Ub5yjDBb1hvDnsmWAghhBBCCCHE2kxdcEvAGL6UqQmxe/nO+bqtvASYCxYsmPWiKIMAlpVV27JMwErgunz58uyhhx6aCWIJegl0eQnVxx9/HN3iDDx3e+GFF+bbllm19cGyEEIIIYQQQohmjCS4ZYXUtuY2hWdteW723HPPnXU/L3IiiKzj5Zdfzq655pqZ7b6kQVqx53hDCDhZIWXbsH8ulrzPOuus/KVWfuWYwJVndAmew6CXVeavfvWrs57/vfnmm2fViSCaYJqgmvt43jb2TG54XwzkzTZm/gohhBBCCCHEfGMkwS3/AxZ4G3H4f1rrIMi77LLL8u273G/PnhKgLl26tLiqHLY0H3DAATPP7NobkUmTtOvgWvvXP5Y3/76ItyWH/3KHwJVnatmG7INYAl2e3f3Sl740K09Wfn2deDMz/7LI3p4cy5uDVV27RgghhBBCCCHE2ixYzb5YIYQQQgghhBBiwEzdM7dCCCGEEEIIIURTFNwKIYQQQgghhBg8Cm6FEEIIIYQQQgweBbdCCCGEEEIIIQaPglshhBBCCCGEEINHwa0QQgghhBBCiMGj4FYIIYQQQgghxOBRcCuEEEIIIYQQYvAouBVCCCGEEEIIMXgU3AohhBBCCCGEGDwKboUQQgghhBBCDB4Ft0IIIYQQQgghBo+CWyGEEEIIIYQQg0fBrRBCCCGEEEKIwaPgVgghhBBCCCHE4FFwK4QQQgghhBBi8Ci4FUIIIYQQQggxeBTcCiGEEEIIIYQYPApuhRBCCCGEEEIMHgW3QgghhBBCCCEGj4JbIYQQQgghhBCDR8GtEEIIIYQQQojBo+BWCCGEEEIIIcTgUXArhBBCCCGEEGLgZNn/DyAL6I4U4TsNAAAAAElFTkSuQmCC;" vertex="1" parent="1">
          <mxGeometry x="-105.5" y="1130" width="951" height="755" as="geometry" />
        </mxCell>
        <mxCell id="wvPPl5dqIDjig_3wGtzi-22" value="https://learn.microsoft.com/en-us/azure/active-directory/develop/v2-oauth2-auth-code-flow" style="text;html=1;align=center;verticalAlign=middle;resizable=0;points=[];autosize=1;strokeColor=none;fillColor=none;fontSize=24;" vertex="1" parent="1">
          <mxGeometry x="-100" y="1950" width="980" height="40" as="geometry" />
        </mxCell>
      </root>
    </mxGraphModel>
  </diagram>
</mxfile>
